<svg id="Layer_1" data-name="Layer 1" xmlns="http://www.w3.org/2000/svg" viewBox="0 0 313.74 362.07"><defs><style>.cls-1{fill:#f48975;}.cls-2{fill:#f8ec66;}.cls-3{fill:#50ba78;}.cls-4{fill:#9c68aa;}.cls-5{fill:#637abe;}.cls-6{fill:#10aed3;}.cls-7{fill:none;stroke:#000;stroke-miterlimit:10;stroke-width:0.5px;}</style></defs><title>ETHShape</title><g id="Layer_3" data-name="Layer 3"><polygon class="cls-1" points="157.52 292.18 204.42 272.18 157.32 349.98 157.52 292.18"/><polygon class="cls-2" points="157.52 292.18 157.32 349.98 110.32 272.18 157.52 292.18"/><polygon class="cls-3" points="157.52 292.18 110.32 272.18 157.32 243.48 157.52 292.18"/><polygon class="cls-4" points="157.32 243.48 157.52 292.18 204.42 272.18 157.32 243.48"/><polygon class="cls-5" points="157.32 198.08 204.42 264.48 157.32 236.58 157.32 198.08"/><polygon class="cls-6" points="157.32 198.08 110.32 264.48 157.32 236.58 157.32 198.08"/><polygon class="cls-1" points="60.92 235.28 101.52 266.18 10.52 263.58 60.92 235.28"/><polygon class="cls-2" points="60.92 235.28 10.52 263.58 55.02 184.38 60.92 235.28"/><polygon class="cls-3" points="60.92 235.28 55.02 184.38 103.22 210.98 60.92 235.28"/><polygon class="cls-4" points="103.22 210.98 60.92 235.28 101.52 266.18 103.22 210.98"/><polygon class="cls-5" points="142.22 190.18 107.82 263.88 108.82 209.18 142.22 190.18"/><polygon class="cls-6" points="142.22 190.18 61.32 182.08 108.82 209.18 142.22 190.18"/><polygon class="cls-1" points="303.22 263.58 212.32 266.18 252.92 235.28 303.22 263.58"/><polygon class="cls-2" points="258.72 184.38 303.22 263.58 252.92 235.28 258.72 184.38"/><polygon class="cls-3" points="210.62 210.98 258.72 184.38 252.92 235.28 210.62 210.98"/><polygon class="cls-4" points="212.32 266.18 252.92 235.28 210.62 210.98 212.32 266.18"/><polygon class="cls-5" points="205.02 209.18 206.02 263.88 171.52 190.18 205.02 209.18"/><polygon class="cls-6" points="205.02 209.18 252.42 182.08 171.52 190.18 205.02 209.18"/><polygon class="cls-1" points="157.32 12.08 204.42 89.88 157.52 69.88 157.32 12.08"/><polygon class="cls-2" points="110.32 89.88 157.32 12.08 157.52 69.88 110.32 89.88"/><polygon class="cls-3" points="157.32 118.58 110.32 89.88 157.52 69.88 157.32 118.58"/><polygon class="cls-4" points="204.42 89.88 157.52 69.88 157.32 118.58 204.42 89.88"/><polygon class="cls-5" points="157.32 125.48 204.42 97.58 157.32 163.98 157.32 125.48"/><polygon class="cls-6" points="157.32 125.48 110.32 97.58 157.32 163.98 157.32 125.48"/><polygon class="cls-1" points="10.52 98.48 101.52 95.88 60.92 126.78 10.52 98.48"/><polygon class="cls-2" points="55.02 177.68 10.52 98.48 60.92 126.78 55.02 177.68"/><polygon class="cls-3" points="103.22 151.08 55.02 177.68 60.92 126.78 103.22 151.08"/><polygon class="cls-4" points="101.52 95.88 60.92 126.78 103.22 151.08 101.52 95.88"/><polygon class="cls-5" points="108.82 152.88 107.82 98.18 142.22 171.88 108.82 152.88"/><polygon class="cls-6" points="108.82 152.88 61.32 179.98 142.22 171.88 108.82 152.88"/><polygon class="cls-1" points="252.92 126.78 212.32 95.88 303.22 98.48 252.92 126.78"/><polygon class="cls-2" points="252.92 126.78 303.22 98.48 258.72 177.68 252.92 126.78"/><polygon class="cls-3" points="252.92 126.78 258.72 177.68 210.62 151.08 252.92 126.78"/><polygon class="cls-4" points="210.62 151.08 252.92 126.78 212.32 95.88 210.62 151.08"/><polygon class="cls-5" points="171.52 171.88 206.02 98.18 205.02 152.88 171.52 171.88"/><polygon class="cls-6" points="171.52 171.88 252.42 179.98 205.02 152.88 171.52 171.88"/><path class="cls-7" d="M306.7,192.9l49.6-88.3-101.9-2.9L200.3,12.3l-54,89.3L43.4,104.5,93,192.9,43.4,281.2l102.9,2.9,54,89.3L254.4,284l101.9-2.9ZM154,192.8l40.2-4-14.1-31.2,20.2,28.5,18.9-26.6-13.7,29.3,40.2,4-40.2,4,13.7,29.3-18.9-26.6-22.1,31.3,16.1-33.9Z" transform="translate(-42.98 -11.82)"/></g></svg>