<svg id="Layer_1" data-name="Layer 1" xmlns="http://www.w3.org/2000/svg" viewBox="0 0 635.01 630.94"><defs><style>.cls-1{fill:#02e2ac;}.cls-1,.cls-2,.cls-3,.cls-4,.cls-5,.cls-6{stroke:#0e0333;stroke-linejoin:round;}.cls-1,.cls-2,.cls-3,.cls-4,.cls-5{stroke-width:0.1px;}.cls-2{fill:#11bc92;}.cls-3{fill:#ffeea8;}.cls-4{fill:#fc0;}.cls-5{fill:#b3ffed;}.cls-6{fill:none;}</style></defs><title>PillShape</title><path class="cls-1" d="M166.71,578.1,305,501.18l-46.5-83.07-42.61,74.33Z"/><path class="cls-1" d="M299.5,346.47l-33.36,58.19,46.51,83Z"/><path class="cls-2" d="M305,501.18l-46.5-83.07-42.61,74.33Z"/><path class="cls-1" d="M215.82,492.44l42.61-74.33-94.68,1,3,159Z"/><path class="cls-1" d="M171.48,405.61l94.66-1,33.36-58.19Z"/><path class="cls-2" d="M215.82,492.44l42.61-74.33-94.68,1Z"/><path class="cls-1" d="M16,315.06l135.25,82.09,48.18-82.09Z"/><path class="cls-1" d="M281.49,315.06h-66.7l-48.17,82.08Z"/><path class="cls-2" d="M151.17,397.14l48.18-82.08H114.12Z"/><path class="cls-1" d="M114.12,315.06h85.23L151.17,233,16,315.06Z"/><path class="cls-1" d="M166.63,233l48.16,82.09h66.7Z"/><path class="cls-2" d="M114.12,315.06h85.23L151.17,233Z"/><path class="cls-1" d="M166.71,52l-3,159,94.68,1-42.61-74.33Z"/><path class="cls-1" d="M299.5,283.64l-33.35-58.18-94.67-1Z"/><path class="cls-2" d="M163.75,211l94.68,1L215.82,137.7Z"/><path class="cls-1" d="M215.82,137.67,258.43,212,305,128.94,166.71,52Z"/><path class="cls-1" d="M312.66,142.39l-46.51,83,33.35,58.18Z"/><path class="cls-2" d="M215.82,137.67,258.43,212,305,128.94Z"/><path class="cls-1" d="M468.3,52,330.09,128.94,376.59,212l42.61-74.33Z"/><path class="cls-1" d="M335.52,283.64l33.35-58.17-46.51-83.08Z"/><path class="cls-2" d="M330.09,128.94,376.59,212l42.61-74.33Z"/><path class="cls-1" d="M419.2,137.67,376.59,212l94.68-1-3-159Z"/><path class="cls-1" d="M463.54,224.5l-94.67,1-33.35,58.17Z"/><path class="cls-2" d="M419.2,137.67,376.59,212l94.68-1Z"/><path class="cls-1" d="M619.1,315.06,483.85,233l-48.18,82.09Z"/><path class="cls-1" d="M353.53,315.06h66.7L468.39,233Z"/><path class="cls-2" d="M483.85,233l-48.18,82.09H520.9Z"/><path class="cls-1" d="M520.9,315.06H435.67l48.18,82.08L619.1,315.06Z"/><path class="cls-1" d="M468.39,397.15l-48.16-82.09h-66.7Z"/><path class="cls-2" d="M520.9,315.06H435.67l48.18,82.08Z"/><path class="cls-1" d="M468.3,578.09l3-159-94.68-1,42.61,74.34Z"/><path class="cls-1" d="M335.52,346.47l33.35,58.18,94.67,1Z"/><path class="cls-2" d="M471.27,419.09l-94.68-1,42.61,74.34Z"/><path class="cls-1" d="M419.2,492.45l-42.61-74.34-46.5,83.07L468.3,578.09Z"/><path class="cls-1" d="M322.36,487.7l46.51-83-33.35-58.18Z"/><path class="cls-2" d="M419.2,492.45l-42.61-74.34-46.5,83.06Z"/><path class="cls-3" d="M260.29,293.32h.07a9.73,9.73,0,0,0,1.31-.24l.59-.1a12.21,12.21,0,0,0,1.2-.43c.2-.07.41-.13.6-.21s.64-.34.94-.5a7.43,7.43,0,0,0,.73-.4c.24-.16.46-.35.7-.52s.56-.43.83-.66l.05-.08c.19-.17.35-.38.53-.57s.5-.5.72-.77.36-.52.52-.74.37-.53.54-.81a5.86,5.86,0,0,0,.43-.87c.1-.32.31-.55.37-.83s.2-.67.3-1,.17-.5.23-.76l.05-.07a9.3,9.3,0,0,0,.13-1.06,5.58,5.58,0,0,0,.09-1.73V279.9a2.9,2.9,0,0,0-.12-.67,9.68,9.68,0,0,0-.25-1.19,5.89,5.89,0,0,0-.21-.59,9.19,9.19,0,0,0-.45-1.24v-.07L174,64.57,307.58,254.31h.07c.24.31.49.62.76.91s.3.4.47.57a8.7,8.7,0,0,0,.8.68c.21.19.42.4.65.57a6.79,6.79,0,0,0,.74.43l.91.53a5.79,5.79,0,0,0,.68.29,6.33,6.33,0,0,0,1.11.46h.07c.23.07.46.1.69.16a10.3,10.3,0,0,0,1.1.25c.3,0,.6.07.9.08a8.4,8.4,0,0,0,1,.07,4.17,4.17,0,0,0,.94-.07c.31-.07.65,0,1-.08s.67-.14,1-.23.53-.11.79-.18l.09-.05c.32-.1.62-.24.93-.37s.58-.23.85-.37.42-.26.62-.38.69-.4,1-.63c.13-.1.25-.22.37-.33a13.44,13.44,0,0,0,1.07-.93,2.67,2.67,0,0,1,.31-.36,14.3,14.3,0,0,0,.93-1.13v0L461.12,64.54,364.89,275.93a11.4,11.4,0,0,0-.66,1.8l-.09.16a12,12,0,0,0-.33,1.69.71.71,0,0,0,0,.29,12,12,0,0,0-.06,1.7v.2a11,11,0,0,0,.21,1.62v.28c.06.27.16.52.23.78s.18.67.3,1a9,9,0,0,0,.41.88c.14.29.26.57.41.85s.39.57.56.84a8.12,8.12,0,0,0,.52.74,10.09,10.09,0,0,0,.77.83c.26.27.3.36.48.53h.07c.3.26.62.49.94.73s.38.32.59.45l.91.53.74.43a4.66,4.66,0,0,0,.82.28,9.19,9.19,0,0,0,1,.36c.23.06.49.08.73.13a9.54,9.54,0,0,0,1.17.2l.07,0,230,21.7-230,21.75h-.08a3.07,3.07,0,0,0-.42.07c-.43.06-.86.13-1.28.23l-.56.16a11.6,11.6,0,0,0-1.13.39c-.16.07-.34.13-.49.21a10.58,10.58,0,0,0-1.52.82v.09a10.55,10.55,0,0,0-1.31,1l-.16.13a1,1,0,0,1-.21.21c-.31.3-.59.61-.87.94a2.83,2.83,0,0,1-.32.37,14.72,14.72,0,0,0-.94,1.39,14.07,14.07,0,0,0-.72,1.52,2.64,2.64,0,0,0-.17.47c-.14.4-.26.81-.37,1.22l-.08.29v.21a11.61,11.61,0,0,0-.22,1.66.22.22,0,0,1-.05.08,12.46,12.46,0,0,0,.05,1.73,4.63,4.63,0,0,0,.07.52,11.93,11.93,0,0,0,.24,1.19,3.41,3.41,0,0,0,.14.55,9.71,9.71,0,0,0,.42,1.29,2.7,2.7,0,0,0,.14.4V354l96.27,211.49L327.44,375.8h-.07a11.25,11.25,0,0,0-.76-.92c-.16-.18-.31-.4-.48-.57s-.53-.46-.79-.69-.43-.39-.66-.56a7.89,7.89,0,0,0-.74-.43,10.28,10.28,0,0,0-.91-.53,5.79,5.79,0,0,0-.68-.29,5.53,5.53,0,0,0-1.1-.45h-.07c-.23-.07-.46-.1-.69-.16a8.15,8.15,0,0,0-1.11-.26c-.29,0-.59-.06-.9-.08s-.66-.06-1-.07a3.74,3.74,0,0,0-1,.07c-.32.07-.64,0-1,.07s-.66.16-1,.24a7.47,7.47,0,0,0-.78.19h-.12l-.14.05a13.62,13.62,0,0,0-1.52.65l-.17.09a10.81,10.81,0,0,0-1.44.9c-.05.08-.16.11-.23.17a10.74,10.74,0,0,0-1.3,1.13.51.51,0,0,1-.09.16,12.78,12.78,0,0,0-1.23,1.42L173.89,565.52l96.28-211.46V354a11.68,11.68,0,0,0,.47-1.29,2,2,0,0,0,.19-.54c.1-.42.18-.84.24-1.27,0-.21.09-.41.11-.62s0-.73,0-1.1a5.61,5.61,0,0,0,0-.82,6.57,6.57,0,0,0-.12-.89,5.8,5.8,0,0,0-.12-1,.09.09,0,0,0,0-.1c-.06-.26-.17-.51-.23-.77a9.7,9.7,0,0,0-.3-1c-.12-.33-.28-.59-.41-.88s-.26-.58-.41-.85-.37-.57-.56-.85-.33-.51-.52-.74-.51-.56-.77-.83-.31-.35-.49-.52h-.07a11.33,11.33,0,0,0-.94-.74c-.21-.12-.38-.31-.59-.44a10.28,10.28,0,0,0-.91-.53l-.74-.44a5.57,5.57,0,0,0-.81-.29c-.28-.1-.66-.25-1-.34s-.49-.09-.73-.14a11.27,11.27,0,0,0-1.16-.21h-.07l-230-21.7Z"/><path class="cls-4" d="M295.89,372.66v-.07c-.06-.45-.13-.89-.23-1.32-.05-.2-.06-.4-.11-.6-.12-.41-.26-.81-.42-1.21-.07-.19-.13-.41-.21-.6s-.33-.64-.5-1-.25-.49-.39-.73-.35-.47-.52-.7-.42-.58-.65-.84l-.08,0c-.18-.19-.38-.35-.57-.54a9.23,9.23,0,0,0-.77-.71c-.27-.21-.51-.38-.77-.56s-.53-.37-.81-.54a5.31,5.31,0,0,0-.86-.43c-.31-.11-.55-.32-.86-.4s-.66-.2-1-.31a6.26,6.26,0,0,0-.75-.22l-.08-.05c-.35-.06-.7-.11-1-.14a5.53,5.53,0,0,0-1.72-.09h-1.06a2.9,2.9,0,0,0-.67.12,9.52,9.52,0,0,0-1.18.25c-.2.05-.39.14-.59.21a8.93,8.93,0,0,0-1.22.45h-.08l-209.94,97L257.18,325.05V325a11.1,11.1,0,0,0,.91-.76c.19-.16.4-.31.57-.48s.46-.53.68-.8.4-.43.56-.66.28-.5.45-.78a10.36,10.36,0,0,0,.52-.92,5.79,5.79,0,0,0,.29-.68,11.9,11.9,0,0,0,.45-1.12l.05-.07c.07-.24.1-.47.15-.7a10.52,10.52,0,0,0,.26-1.11c.05-.37.06-.6.09-.9s.06-.67.06-1-.05-.63-.07-1a5.47,5.47,0,0,0-.08-1c-.08-.35-.16-.67-.24-1s-.1-.53-.18-.79v-.09a7.69,7.69,0,0,0-.38-.94,7.61,7.61,0,0,0-.31-.79,5.73,5.73,0,0,0-.38-.62,11.18,11.18,0,0,0-.62-1c-.1-.13-.22-.25-.33-.37a9.43,9.43,0,0,0-.92-1.07,2.17,2.17,0,0,1-.36-.32,11,11,0,0,0-1.11-.94h-.06L68.78,170.39l209.89,96.9a12.53,12.53,0,0,0,1.8.67l.15.09a11.88,11.88,0,0,0,1.68.33h.29a11.94,11.94,0,0,0,1.69.06h.2a11,11,0,0,0,1.62-.21h.29c.26-.06.5-.16.77-.23s.66-.18,1-.3a7.83,7.83,0,0,0,.87-.42c.29-.14.58-.26.85-.41s.56-.38.84-.56a7.54,7.54,0,0,0,.73-.53c.23-.19.56-.51.83-.77s.35-.31.52-.49v-.08a11.22,11.22,0,0,0,.73-.94c.12-.22.31-.39.44-.6a8.29,8.29,0,0,0,.53-.91l.45-.79a4.59,4.59,0,0,0,.29-.81c.1-.27.25-.66.34-1s.09-.49.14-.74.16-.77.2-1.17v-.07L317.47,25.8l21.61,231.59v.08a3.21,3.21,0,0,0,.07.43,11.68,11.68,0,0,0,.24,1.29,2,2,0,0,0,.16.56,9,9,0,0,0,.38,1.14c.07.16.13.34.21.5a12.35,12.35,0,0,0,.82,1.52l.08,0a11.62,11.62,0,0,0,1,1.31,1.09,1.09,0,0,0,.13.17l.21.21a9.57,9.57,0,0,0,.93.87l.37.32a11.66,11.66,0,0,0,1.38,1,12.34,12.34,0,0,0,1.51.73l.46.17c.4.14.81.27,1.22.37l.28.08h.21a11.49,11.49,0,0,0,1.65.23h.08a12.34,12.34,0,0,0,1.72,0l.52-.06c.39-.06.79-.15,1.18-.25a5.29,5.29,0,0,0,.54-.13c.42-.13.83-.27,1.24-.44l.4-.16h.08l210-97L377.74,305v.07c-.32.24-.61.51-.91.77s-.4.31-.57.48-.46.53-.68.8-.39.43-.56.66a8,8,0,0,0-.45.78c-.16.28-.36.61-.52.92a5.79,5.79,0,0,0-.29.68,10.73,10.73,0,0,0-.45,1.11v.07c-.07.23-.1.47-.16.7a8.48,8.48,0,0,0-.25,1.11c0,.3-.06.6-.09.91s-.07.67-.07,1,.05.63.07.95a5.85,5.85,0,0,0,.08,1c.08.35.16.67.24,1s.11.53.18.79l.05.12.06.15a10.58,10.58,0,0,0,.63,1.52l.08.18a14.55,14.55,0,0,0,.9,1.45l.17.23a12.58,12.58,0,0,0,1.12,1.3l.16.09a11.54,11.54,0,0,0,1.47,1.23L566.16,459.65l-210-97h-.07a11.36,11.36,0,0,0-1.27-.47c-.18-.06-.36-.14-.54-.19a8.76,8.76,0,0,0-1.26-.24,4.52,4.52,0,0,1-.62-.12,10.09,10.09,0,0,0-1.1,0h-.8a6.57,6.57,0,0,0-.89.12c-.3.05-.68.06-1,.13a.09.09,0,0,0-.1,0c-.26.06-.51.16-.77.23s-.66.18-1,.3-.58.28-.88.41a6.58,6.58,0,0,0-.84.42c-.27.16-.57.37-.84.56s-.5.33-.74.52-.55.52-.82.78-.36.32-.52.49v.07c-.26.31-.5.62-.73.95s-.31.39-.44.59-.37.61-.53.92l-.45.79a3.91,3.91,0,0,0-.29.81c-.1.28-.25.66-.34,1s-.09.49-.14.73a9.54,9.54,0,0,0-.2,1.17v.07l-21.54,231.6Z"/><path class="cls-1" d="M366.36,300.76a35.68,35.68,0,0,0-2.56-39.37,35.11,35.11,0,0,0-58.45,3.86l-24.65,43,61,35.47Z"/><path class="cls-5" d="M280.72,308.3l-24.65,43A35.58,35.58,0,0,0,269,399.73a35.09,35.09,0,0,0,48-12.74l.15-.26,24.66-43Z"/><path class="cls-2" d="M348,249.71a35.64,35.64,0,0,1,7.92,45l-24.65,43,10.43,6.07,24.66-43a35.64,35.64,0,0,0-2.59-39.39A35.34,35.34,0,0,0,348,249.71Z"/><path class="cls-2" d="M331.28,337.69l-24.65,43a35.32,35.32,0,0,1-18.5,15.6,34.92,34.92,0,0,1-24.12-.05,34.28,34.28,0,0,0,4.95,3.5,35.1,35.1,0,0,0,48-12.77l.13-.23,24.65-43Z"/><polygon class="cls-6" points="309.42 605 300.84 512.61 158.96 591.57 155.92 428.23 72.14 466.93 43.02 473.48 64.14 453.16 139.41 399.38 0.5 315.06 139.44 230.73 64.13 176.89 43.72 156.88 72.13 163.12 155.92 201.81 158.96 38.56 300.95 117.58 309.56 25.03 317.94 0.5 325.5 25.04 334.1 117.55 476.05 38.56 479.09 201.78 562.78 163.13 596.43 153.12 570.78 176.9 495.5 230.69 634.51 315.06 495.59 399.38 570.81 453.15 593.62 474.2 562.81 466.92 479.09 428.26 476.05 591.56 333.96 512.49 325.35 605.01 317.04 630.44 309.42 605"/></svg>