<?xml version="1.0" encoding="utf-8"?>
<!-- Generator: Adobe Illustrator 23.0.5, SVG Export Plug-In . SVG Version: 6.00 Build 0)  -->
<svg version="1.1" id="Layer_1" xmlns="http://www.w3.org/2000/svg" xmlns:xlink="http://www.w3.org/1999/xlink" x="0px" y="0px"
	 viewBox="0 0 417.1 379" style="enable-background:new 0 0 417.1 379;" xml:space="preserve">
<style type="text/css">
	.st0{fill-rule:evenodd;clip-rule:evenodd;fill:url(#etr1rb30h02138_1_);}
	.st1{fill-rule:evenodd;clip-rule:evenodd;fill:url(#etr1rb30h02139_1_);}
	.st2{fill-rule:evenodd;clip-rule:evenodd;fill:url(#etr1rb30h02140_1_);}
	.st3{fill-rule:evenodd;clip-rule:evenodd;fill:url(#etr1rb30h02141_1_);}
	.st4{fill-rule:evenodd;clip-rule:evenodd;fill:url(#etr1rb30h02142_1_);}
	.st5{fill:#FEFEFE;}
	.st6{fill:#15003E;}
	.st7{fill:#5CF2CD;}
	.st8{fill:#09E3AC;}
	.st9{fill:#14BD92;}
	.st10{fill:#5A29C4;}
	.st11{fill:#8D60F7;}
	.st12{fill-rule:evenodd;clip-rule:evenodd;fill:#FFFFFF;}
	.st13{fill-rule:evenodd;clip-rule:evenodd;fill:#15003E;}
	.st14{fill-rule:evenodd;clip-rule:evenodd;fill:#0FCE7C;}
	.st15{fill-rule:evenodd;clip-rule:evenodd;fill:#EFF4EE;}
	.st16{fill-rule:evenodd;clip-rule:evenodd;fill:#25E899;}
	
		.st17{opacity:0.27;fill-rule:evenodd;clip-rule:evenodd;fill:url(#etr1rb30h02479_1_);stroke:#0000FF;stroke-width:4;stroke-miterlimit:10;enable-background:new    ;}
	.st18{fill:none;stroke:#000000;stroke-width:0.25;stroke-miterlimit:10;}
</style>
<title>Rainbow_Stickers2</title>
<g id="etr1rb30h021">
	<g id="git">
		<g id="orange">
			
				<linearGradient id="etr1rb30h02138_1_" gradientUnits="userSpaceOnUse" x1="164.1461" y1="-455.3197" x2="350.9764" y2="-642.14" gradientTransform="matrix(1 0 0 -1 -88.41 -305.55)">
				<stop  offset="0" style="stop-color:#FF3515"/>
				<stop  offset="0.2" style="stop-color:#FF5F10"/>
				<stop  offset="0.46" style="stop-color:#FF9109"/>
				<stop  offset="0.69" style="stop-color:#FFB604"/>
				<stop  offset="0.88" style="stop-color:#FFCD01"/>
				<stop  offset="1" style="stop-color:#FFD500"/>
			</linearGradient>
			<path id="etr1rb30h02138" class="st0" d="M326.9,217.8c-0.3-1.6-1-3.1-2.1-4.3c-0.1-1-0.3-2-0.7-2.9c-1.2-2.9-3.1-4.7-5.1-5h-0.2
				c-1.6-2.6-3.6-4-5.6-3.9c-1.4,0-2.6,0.8-3.2,2.1c-0.9,1.8-0.5,4.1,1,6.2c0.4,0.6,0.5,1.4,0.4,2.1c-0.4,1.5-1.2,2.9-2.2,4.1
				c-0.1-0.8-0.3-1.7-0.7-2.4c-0.7-1.5-2.2-3.2-5.5-3.4c-4.3,0-8.3,2-10.8,5.4c-0.4,0.6-0.7,1.3-0.8,2.1c-0.4-0.2-0.8-0.3-1.2-0.3
				c-1.2-0.1-3.5,0.3-5.9,3.7c-2.1,3-2.7,6.9-1.5,10.4c-3,1.5-11.5,6-14.1,7.8c-1.1,0.7-1.9,1.8-2.2,3c-5,0.8-16.1,2.1-20.6,0.7
				c-1.2-7.1-3.3-14.1-6.3-20.7c-2.6-6.1-6.2-11.6-10.7-16.4c-0.7-0.8-1.5-1.5-2.2-2.2v-8.5c0-7.5-5.2-14-12.5-15.6
				c0.3-0.9,0.6-1.7,0.9-2.6l1.9-0.8c0.1,0,0.1,0,0.1-0.1l0,0c2-1.1,3.4-3.1,3.8-5.3l0.9,0.1h0.3c2.1,0,3.9-1.7,4.1-3.8l0.7-9.3
				c0.2-2.2-1.5-4.2-3.7-4.4c0,0-0.1,0-0.1,0l0,0l-1.2-0.1c-0.2-2.3-1.3-4.3-3-5.8l-0.1-0.1l-3.4-2.1c-6.1-20.4-24.1-35.1-45.2-35.1
				s-39,14.7-45.1,35l-3.6,2.2l-0.1,0.1c-1.8,1.4-2.9,3.5-3,5.8l-1.2,0.1c-1.1,0.1-2.1,0.6-2.8,1.4c-0.7,0.8-1.1,1.9-1,3l0.7,9.3
				c0.1,2.1,1.9,3.8,4,3.8h0.3l0.9-0.1c0.5,2.2,1.8,4.2,3.8,5.3c0.1,0,0.1,0,0.1,0.1l0,0l2.1,0.9c0.2,0.8,0.5,1.5,0.8,2.3
				c-8,1-14,7.8-14,15.8v10l-0.6,0.6c-4.4,4.8-8.1,10.4-10.7,16.4c-3,6.6-5.1,13.6-6.3,20.7c-4.6,1.4-15.6,0.1-20.6-0.7
				c-0.3-1.2-1.1-2.3-2.2-3c-2.6-1.8-11.2-6.3-14.1-7.8c1.3-3.5,0.7-7.4-1.5-10.4c-2.3-3.5-4.7-3.8-5.9-3.7c-0.4,0-0.8,0.1-1.2,0.3
				c-0.1-0.7-0.4-1.5-0.8-2.1c-2.5-3.5-6.5-5.5-10.8-5.4c-2.4-0.1-4.5,1.3-5.5,3.4c-0.4,0.8-0.6,1.6-0.7,2.4
				c-1.1-1.1-1.9-2.6-2.2-4.1c-0.2-0.7,0-1.5,0.4-2.1c1.5-2.1,1.9-4.4,1-6.2c-0.6-1.2-1.8-2.1-3.2-2.1c-2-0.1-4,1.4-5.6,3.9h-0.2
				c-2,0.2-3.9,2-5.1,5c-0.4,0.9-0.6,1.9-0.7,2.9c-1.1,1.2-1.8,2.7-2.1,4.3c-1.1,4.9,3.4,10.4,6.9,14.2c0.8,1.2,8.4,12.2,17.8,14.9
				c1,1.9,8.5,16.8,10.9,19c0.7,0.6,1.5,0.9,2.4,0.9c0.5,0,1-0.1,1.5-0.2c0.3-0.1,0.7-0.2,1.1-0.3c3.6,2.7,7.4,5,11.4,7
				c5.8,2.9,14.3,6,23.6,6c1.3,0,2.7-0.1,4.1-0.2c4.4-0.5,8.7-1.7,12.7-3.7c-1,2-1.2,4.2-0.7,6.3c-6.2-0.1-11.7,1.1-16.2,3.7
				c-7.1,4.1-11.4,11.5-12.6,21.9c-1.1,9.2,4.5,17.7,16.5,25.4c-1.7,0.4-3.2,1.2-4.5,2.4l0,0c-1.9,1.8-2.6,4.7-1.8,8.4
				c1.5,7.4,8.8,17.4,17.9,20.6c7.1,2.5,16.6,5.4,25.3,5.4c0.9,0,1.8,0,2.7-0.1h0.2c1.8-0.2,3.6-0.5,5.3-0.9
				c7.2-2.1,25.3-7.3,32.3-9.4c7,2,25.1,7.3,32.3,9.4c1.7,0.3,3.5,0.5,5.3,0.4l1-0.1l0.6-0.1c0.8,0,1.5-0.1,2.3-0.2
				c8.7,0,13.9-11.5,21-14c9.1-3.2,19.6-3.7,21.3-11c0.8-3.7,0.1-6.6-1.8-8.4l0,0c-1.3-1.1-2.8-1.9-4.4-2.4c1.3-0.8,2.5-1.6,3.7-2.5
				c9.5-7,13.9-14.7,12.9-22.9c-1.2-10.4-5.5-17.8-12.6-21.9c-4.6-2.7-10.3-3.9-16.7-3.7c0.5-2.2,0.1-4.5-1-6.5
				c4.2,2.2,8.7,3.5,13.4,4c1.4,0.1,2.7,0.2,4.1,0.2c9.3,0,17.8-3.2,23.6-6c4-2,7.8-4.3,11.4-7c0.4,0.1,0.8,0.2,1.1,0.3
				c0.5,0.1,1,0.2,1.5,0.2c0.9,0,1.7-0.3,2.4-0.9c2.4-2.1,9.9-17.1,10.9-19c9.4-2.8,17-13.7,17.8-14.9
				C323.5,228.2,328,222.7,326.9,217.8z M293.2,222.9c0.4-0.6,0.6-1.3,0.5-2c1.6-0.1,3.1-0.5,4.5-1.2c0.5-0.2,1.1-0.4,1.6-0.6
				c0,3.4-0.7,6.9-4.3,7.5c-0.9,0.1-2.4,0.3-2.9-0.5C292.3,225,292.5,223.8,293.2,222.9L293.2,222.9z M47.6,225.9
				c-0.5,0.8-2,0.6-2.9,0.5c-3.6-0.6-4.2-4-4.3-7.5c0.5,0.2,1.1,0.4,1.6,0.6c1.4,0.7,2.9,1.1,4.5,1.2c-0.1,0.7,0.1,1.4,0.5,2
				C47.6,223.7,48,225.2,47.6,225.9z"/>
		</g>
		<g id="green">
			
				<linearGradient id="etr1rb30h02139_1_" gradientUnits="userSpaceOnUse" x1="240.7462" y1="-455.1197" x2="429.6884" y2="-644.0519" gradientTransform="matrix(1 0 0 -1 -88.41 -305.55)">
				<stop  offset="0" style="stop-color:#EAFF15"/>
				<stop  offset="0.11" style="stop-color:#E1FF17"/>
				<stop  offset="0.3" style="stop-color:#CAFF1E"/>
				<stop  offset="0.52" style="stop-color:#A4FF29"/>
				<stop  offset="0.79" style="stop-color:#6FFF38"/>
				<stop  offset="1" style="stop-color:#3FFF46"/>
			</linearGradient>
			<path id="etr1rb30h02139" class="st1" d="M403.5,217.6c-0.3-1.6-1-3.1-2.1-4.3c-0.1-1-0.3-2-0.7-2.9c-1.2-2.9-3.1-4.7-5.1-5h-0.2
				c-1.6-2.6-3.6-4-5.6-3.9c-1.4,0-2.6,0.8-3.2,2.1c-0.9,1.8-0.5,4.1,1,6.2c0.4,0.6,0.5,1.4,0.4,2.1c-0.4,1.5-1.2,2.9-2.2,4.1
				c-0.1-0.8-0.3-1.7-0.7-2.4c-0.7-1.5-2.2-3.2-5.5-3.4c-4.3,0-8.3,2-10.8,5.4c-0.4,0.6-0.7,1.3-0.8,2.1c-0.4-0.2-0.8-0.3-1.2-0.3
				c-1.2-0.1-3.5,0.3-5.9,3.7c-2.1,3-2.7,6.9-1.5,10.4c-3,1.5-11.5,6-14.1,7.8c-1.1,0.7-1.9,1.8-2.2,3c-5,0.8-16.1,2.1-20.6,0.7
				c-1.2-7.1-3.3-14.1-6.3-20.7c-2.6-6.1-6.2-11.6-10.7-16.4c-0.7-0.8-1.5-1.5-2.2-2.2v-8.5c0-7.5-5.2-14-12.5-15.6
				c0.3-0.9,0.6-1.7,0.9-2.6l1.9-0.8c0.1,0,0.1,0,0.1-0.1l0,0c2-1.1,3.4-3.1,3.8-5.3l0.9,0.1h0.3c2.1,0,3.9-1.7,4.1-3.8l0.7-9.3
				c0.2-2.2-1.5-4.2-3.7-4.4c0,0-0.1,0-0.1,0l0,0l-1.2-0.1c-0.2-2.3-1.3-4.3-3-5.8l-0.1-0.1l-3.4-2.1c-6.1-20.4-24.1-35.1-45.2-35.1
				s-39,14.7-45.1,35l-3.6,2.2l-0.1,0.1c-1.8,1.4-2.9,3.5-3,5.8l-1.2,0.1c-1.1,0.1-2.1,0.6-2.8,1.4c-0.7,0.8-1.1,1.9-1,3l0.7,9.3
				c0.1,2.1,1.9,3.8,4,3.8h0.3l0.9-0.1c0.5,2.2,1.8,4.2,3.8,5.3c0.1,0,0.1,0,0.1,0.1l0,0l2.1,0.9c0.2,0.8,0.5,1.5,0.8,2.3
				c-8,1-14,7.8-14,15.8v10l-0.6,0.6c-4.4,4.8-8.1,10.4-10.7,16.4c-3,6.6-5.1,13.6-6.3,20.7c-4.6,1.4-15.6,0.1-20.6-0.7
				c-0.3-1.2-1.1-2.3-2.2-3c-2.6-1.8-11.2-6.3-14.1-7.8c1.3-3.5,0.7-7.4-1.5-10.4c-2.3-3.5-4.7-3.8-5.9-3.7c-0.4,0-0.8,0.1-1.2,0.3
				c-0.1-0.7-0.4-1.5-0.8-2.1c-2.5-3.5-6.5-5.5-10.8-5.4c-2.4-0.1-4.5,1.3-5.5,3.4c-0.4,0.8-0.6,1.6-0.7,2.4
				c-1.1-1.1-1.9-2.6-2.2-4.1c-0.2-0.7,0-1.5,0.4-2.1c1.5-2.1,1.9-4.4,1-6.2c-0.6-1.2-1.8-2.1-3.2-2.1c-2-0.1-4,1.4-5.6,3.9H98
				c-2,0.2-3.9,2-5.1,5c-0.4,0.9-0.6,1.9-0.7,2.9c-1.1,1.2-1.8,2.7-2.1,4.3c-1.1,4.9,3.4,10.4,6.9,14.2c0.8,1.2,8.4,12.2,17.8,14.9
				c1,1.9,8.5,16.8,10.9,19c0.7,0.6,1.5,0.9,2.4,0.9c0.5,0,1-0.1,1.5-0.2c0.3-0.1,0.7-0.2,1.1-0.3c3.6,2.7,7.4,5,11.4,7
				c5.8,2.9,14.3,6,23.6,6c1.3,0,2.7-0.1,4.1-0.2c4.4-0.5,8.7-1.7,12.7-3.7c-1,2-1.2,4.2-0.7,6.3c-6.2-0.1-11.7,1.1-16.2,3.7
				c-7.1,4.1-11.4,11.5-12.6,21.9c-1.1,9.2,4.5,17.7,16.5,25.4c-1.7,0.4-3.2,1.2-4.5,2.4l0,0c-1.9,1.8-2.6,4.7-1.8,8.4
				c1.5,7.4,8.8,17.4,17.9,20.6c7.1,2.5,16.6,5.4,25.3,5.4c0.9,0,1.8,0,2.7-0.1h0.2c1.8-0.2,3.6-0.5,5.3-0.9
				c7.2-2.1,25.3-7.3,32.3-9.4c7,2,25.1,7.3,32.3,9.4c1.7,0.5,3.5,0.8,5.3,0.9h0.2c0.9,0.1,1.8,0.1,2.7,0.1c8.7,0,18.2-2.9,25.3-5.4
				c9.1-3.2,16.3-13.2,17.9-20.6c0.8-3.7,0.1-6.6-1.8-8.4l0,0c-1.3-1.1-2.8-1.9-4.4-2.4c1.3-0.8,2.5-1.6,3.7-2.5
				c9.5-7,13.9-14.7,12.9-22.9c-1.2-10.4-5.5-17.8-12.6-21.9c-4.6-2.7-10.3-3.9-16.7-3.7c0.5-2.2,0.1-4.5-1-6.5
				c4.2,2.2,8.7,3.5,13.4,4c1.4,0.1,2.7,0.2,4.1,0.2c9.3,0,17.8-3.2,23.6-6c4-2,7.8-4.3,11.4-7c0.4,0.1,0.8,0.2,1.1,0.3
				c0.5,0.1,1,0.2,1.5,0.2c0.9,0,1.7-0.3,2.4-0.9c2.4-2.1,9.9-17.1,10.9-19c9.4-2.8,17-13.7,17.8-14.9
				C400.1,228.1,404.6,222.6,403.5,217.6z M369.9,222.7c0.4-0.6,0.6-1.3,0.5-2c1.6-0.1,3.1-0.5,4.5-1.2c0.5-0.2,1.1-0.4,1.6-0.6
				c0,3.4-0.7,6.9-4.3,7.5c-0.9,0.1-2.4,0.3-2.9-0.5S369.2,223.6,369.9,222.7L369.9,222.7z M124.2,225.7c-0.5,0.8-2,0.6-2.9,0.5
				c-3.6-0.6-4.2-4-4.3-7.5c0.5,0.2,1.1,0.4,1.6,0.6c1.4,0.7,2.9,1.1,4.5,1.2c-0.1,0.7,0.1,1.4,0.5,2
				C124.2,223.5,124.6,225,124.2,225.7z"/>
		</g>
		<g id="blue">
			
				<linearGradient id="etr1rb30h02140_1_" gradientUnits="userSpaceOnUse" x1="244.7462" y1="-389.9197" x2="433.6884" y2="-578.8519" gradientTransform="matrix(1 0 0 -1 -88.41 -305.55)">
				<stop  offset="0" style="stop-color:#00FFD7"/>
				<stop  offset="0" style="stop-color:#00F0D9"/>
				<stop  offset="0.3" style="stop-color:#00B9DE"/>
				<stop  offset="0.52" style="stop-color:#008EE3"/>
				<stop  offset="0.72" style="stop-color:#0070E6"/>
				<stop  offset="0.88" style="stop-color:#005DE8"/>
				<stop  offset="1" style="stop-color:#0056E9"/>
			</linearGradient>
			<path id="etr1rb30h02140" class="st2" d="M407.5,152.4c-0.3-1.6-1-3.1-2.1-4.3c-0.1-1-0.3-2-0.7-2.9c-1.2-2.9-3.1-4.7-5.1-5h-0.2
				c-1.6-2.6-3.6-4-5.6-3.9c-1.4,0-2.6,0.8-3.2,2.1c-0.9,1.8-0.5,4.1,1,6.2c0.4,0.6,0.5,1.4,0.4,2.1c-0.4,1.5-1.2,2.9-2.2,4.1
				c-0.1-0.8-0.3-1.7-0.7-2.4c-0.7-1.5-2.2-3.2-5.5-3.4c-4.3,0-8.3,2-10.8,5.4c-0.4,0.6-0.7,1.3-0.8,2.1c-0.4-0.2-0.8-0.3-1.2-0.3
				c-1.2-0.1-3.5,0.3-5.9,3.7c-2.1,3-2.7,6.9-1.5,10.4c-3,1.5-11.5,6-14.1,7.8c-1.1,0.7-1.9,1.8-2.2,3c-5,0.8-16.1,2.1-20.6,0.7
				c-1.2-7.1-3.3-14.1-6.3-20.7c-2.6-6.1-6.2-11.6-10.7-16.4c-0.7-0.8-1.5-1.5-2.2-2.2V130c0-7.5-5.2-14-12.5-15.6
				c0.3-0.9,0.6-1.7,0.9-2.6l1.9-0.8c0.1,0,0.1,0,0.1-0.1l0,0c2-1.1,3.4-3.1,3.8-5.3l0.9,0.1h0.3c2.1,0,3.9-1.7,4.1-3.8l0.7-9.3
				c0.2-2.2-1.5-4.2-3.7-4.4c0,0-0.1,0-0.1,0l0,0l-1.2-0.1c-0.2-2.3-1.3-4.3-3-5.8l-0.1-0.1l-3.4-2.1C289.9,59.7,271.9,45,250.8,45
				s-39,14.7-45.1,35l-3.6,2.2l-0.1,0.1c-1.8,1.4-2.9,3.5-3,5.8l-1.2,0.1c-1.1,0.1-2.1,0.6-2.8,1.4c-0.7,0.8-1.1,1.9-1,3l0.7,9.3
				c0.1,2.1,1.9,3.8,4,3.8h0.3l0.9-0.1c0.5,2.2,1.8,4.2,3.8,5.3c0.1,0,0.1,0,0.1,0.1l0,0l2.1,0.9c0.2,0.8,0.5,1.5,0.8,2.3
				c-8,1-14,7.8-14,15.8v10l-0.6,0.6c-4.4,4.8-8.1,10.4-10.7,16.4c-3,6.6-5.1,13.6-6.3,20.7c-4.6,1.4-15.6,0.1-20.6-0.7
				c-0.3-1.2-1.1-2.3-2.2-3c-2.6-1.8-11.2-6.3-14.1-7.8c1.3-3.5,0.7-7.4-1.5-10.4c-2.3-3.5-4.7-3.8-5.9-3.7c-0.4,0-0.8,0.1-1.2,0.3
				c-0.1-0.7-0.4-1.5-0.8-2.1c-2.5-3.5-6.5-5.5-10.8-5.4c-2.4-0.1-4.5,1.3-5.5,3.4c-0.4,0.8-0.6,1.6-0.7,2.4
				c-1.1-1.1-1.9-2.6-2.2-4.1c-0.2-0.7,0-1.5,0.4-2.1c1.5-2.1,1.9-4.4,1-6.2c-0.6-1.2-1.8-2.1-3.2-2.1c-2-0.1-4,1.4-5.6,3.9H102
				c-2,0.2-3.9,2-5.1,5c-0.4,0.9-0.6,1.9-0.7,2.9c-1.1,1.2-1.8,2.7-2.1,4.3c-1.1,4.9,3.4,10.4,6.9,14.2c0.8,1.2,8.4,12.2,17.8,14.9
				c1,1.9,8.5,16.8,10.9,19c0.7,0.6,1.5,0.9,2.4,0.9c0.5,0,1-0.1,1.5-0.2c0.3-0.1,0.7-0.2,1.1-0.3c3.6,2.7,7.4,5,11.4,7
				c5.8,2.9,14.3,6,23.6,6c1.3,0,2.7-0.1,4.1-0.2c4.4-0.5,8.7-1.7,12.7-3.7c-1,2-1.2,4.2-0.7,6.3c-6.2-0.1-11.7,1.1-16.2,3.7
				c-7.1,4.1-11.4,11.5-12.6,21.9c-1.1,9.2,4.5,17.7,16.5,25.4c-1.7,0.4-3.2,1.2-4.5,2.4l0,0c-1.9,1.8-2.6,4.7-1.8,8.4
				c1.5,7.4,8.8,17.4,17.9,20.6c7.1,2.5,16.6,5.4,25.3,5.4c0.9,0,1.8,0,2.7-0.1h0.2c1.8-0.2,3.6-0.5,5.3-0.9
				c7.2-2.1,25.3-7.3,32.3-9.4c7,2,25.1,7.3,32.3,9.4c1.7,0.5,3.5,0.8,5.3,0.9h0.2c0.9,0.1,1.8,0.1,2.7,0.1c8.7,0,18.2-2.9,25.3-5.4
				c9.1-3.2,16.3-13.2,17.9-20.6c0.8-3.7,0.1-6.6-1.8-8.4l0,0c-1.3-1.1-2.8-1.9-4.4-2.4c1.3-0.8,2.5-1.6,3.7-2.5
				c9.5-7,13.9-14.7,12.9-22.9c-1.2-10.4-5.5-17.8-12.6-21.9c-4.6-2.7-10.3-3.9-16.7-3.7c0.5-2.2,0.1-4.5-1-6.5
				c4.2,2.2,8.7,3.5,13.4,4c1.4,0.1,2.7,0.2,4.1,0.2c9.3,0,17.8-3.2,23.6-6c4-2,7.8-4.3,11.4-7c0.4,0.1,0.8,0.2,1.1,0.3
				c0.5,0.1,1,0.2,1.5,0.2c0.9,0,1.7-0.3,2.4-0.9c2.4-2.1,9.9-17.1,10.9-19c9.4-2.8,17-13.7,17.8-14.9
				C404.1,162.8,408.6,157.3,407.5,152.4z M373.8,157.6c0.4-0.6,0.6-1.3,0.5-2c1.6-0.1,3.1-0.5,4.5-1.2c0.5-0.2,1.1-0.4,1.6-0.6
				c0,3.4-0.7,6.9-4.3,7.5c-0.9,0.1-2.4,0.3-2.9-0.5C372.9,159.7,373.1,158.5,373.8,157.6L373.8,157.6z M128.1,160.6
				c-0.5,0.8-2,0.6-2.9,0.5c-3.6-0.6-4.2-4-4.3-7.5c0.5,0.2,1.1,0.4,1.6,0.6c1.4,0.7,2.9,1.1,4.5,1.2c-0.1,0.7,0.1,1.4,0.5,2
				C128.2,158.3,128.6,159.8,128.1,160.6z"/>
		</g>
		<g id="purple">
			
				<linearGradient id="etr1rb30h02141_1_" gradientUnits="userSpaceOnUse" x1="160.3462" y1="-391.5197" x2="349.2884" y2="-580.4519" gradientTransform="matrix(1 0 0 -1 -88.41 -305.55)">
				<stop  offset="0" style="stop-color:#1700E9"/>
				<stop  offset="0.33" style="stop-color:#5510F2"/>
				<stop  offset="0.64" style="stop-color:#891EF9"/>
				<stop  offset="0.87" style="stop-color:#AA27FD"/>
				<stop  offset="1" style="stop-color:#B62AFF"/>
			</linearGradient>
			<path id="etr1rb30h02141" class="st3" d="M323.1,154c-0.3-1.6-1-3.1-2.1-4.3c-0.1-1-0.3-2-0.7-2.9c-1.2-2.9-3.1-4.7-5.1-5H315
				c-1.6-2.6-3.6-4-5.6-3.9c-1.4,0-2.6,0.8-3.2,2.1c-0.9,1.8-0.5,4.1,1,6.2c0.4,0.6,0.5,1.4,0.4,2.1c-0.4,1.5-1.2,2.9-2.2,4.1
				c-0.1-0.8-0.3-1.7-0.7-2.4c-0.7-1.5-2.2-3.2-5.5-3.4c-4.3,0-8.3,2-10.8,5.4c-0.4,0.6-0.7,1.3-0.8,2.1c-0.4-0.2-0.8-0.3-1.2-0.3
				c-1.2-0.1-3.5,0.3-5.9,3.7c-2.1,3-2.7,6.9-1.5,10.4c-3,1.5-11.5,6-14.1,7.8c-1.1,0.7-1.9,1.8-2.2,3c-5,0.8-16.1,2.1-20.6,0.7
				c-1.2-7.1-3.3-14.1-6.3-20.7c-2.6-6.1-6.2-11.6-10.7-16.4c-0.7-0.8-1.5-1.5-2.2-2.2v-8.5c0-7.5-5.2-14-12.5-15.6
				c0.3-0.9,0.6-1.7,0.9-2.6l1.9-0.8c0.1,0,0.1,0,0.1-0.1l0,0c2-1.1,3.4-3.1,3.8-5.3l0.9,0.1h0.3c2.1,0,3.9-1.7,4.1-3.8l0.7-9.3
				c0.2-2.2-1.5-4.2-3.7-4.4c0,0-0.1,0-0.1,0l0,0l-1.2-0.1c-0.2-2.3-1.3-4.3-3-5.8l-0.1-0.1l-3.4-2.1c-6.1-20.4-24.1-35.1-45.2-35.1
				s-39,14.7-45.1,35l-3.6,2.2l-0.1,0.1c-1.8,1.4-2.9,3.5-3,5.8l-1.2,0.1c-1.1,0.1-2.1,0.6-2.8,1.4c-0.7,0.8-1.1,1.9-1,3l0.7,9.3
				c0.1,2.1,1.9,3.8,4,3.8h0.3l0.9-0.1c0.5,2.2,1.8,4.2,3.8,5.3c0.1,0,0.1,0,0.1,0.1l0,0l2.1,0.9c0.2,0.8,0.5,1.5,0.8,2.3
				c-8,1-14,7.8-14,15.8v10l-0.6,0.6c-4.4,4.8-8.1,10.4-10.7,16.4c-3,6.6-5.1,13.6-6.3,20.7c-4.6,1.4-15.6,0.1-20.6-0.7
				c-0.3-1.2-1.1-2.3-2.2-3c-2.6-1.8-11.2-6.3-14.1-7.8c1.3-3.5,0.7-7.4-1.5-10.4c-2.3-3.5-4.7-3.8-5.9-3.7c-0.4,0-0.8,0.1-1.2,0.3
				c-0.1-0.7-0.4-1.5-0.8-2.1c-2.5-3.5-6.5-5.5-10.8-5.4c-2.4-0.1-4.5,1.3-5.5,3.4c-0.4,0.8-0.6,1.6-0.7,2.4
				c-1.1-1.1-1.9-2.6-2.2-4.1c-0.2-0.7,0-1.5,0.4-2.1c1.5-2.1,1.9-4.4,1-6.2c-0.6-1.2-1.8-2.1-3.2-2.1c-2-0.1-4,1.4-5.6,3.9h-0.2
				c-2,0.2-3.9,2-5.1,5c-0.4,0.9-0.6,1.9-0.7,2.9c-1.1,1.2-1.8,2.7-2.1,4.3c-1.1,4.9,3.4,10.4,6.9,14.2c0.8,1.2,8.4,12.2,17.8,14.9
				c1,1.9,8.5,16.8,10.9,19c0.7,0.6,1.5,0.9,2.4,0.9c0.5,0,1-0.1,1.5-0.2c0.3-0.1,0.7-0.2,1.1-0.3c3.6,2.7,7.4,5,11.4,7
				c5.8,2.9,14.3,6,23.6,6c1.3,0,2.7-0.1,4.1-0.2c4.4-0.5,8.7-1.7,12.7-3.7c-1,2-1.2,4.2-0.7,6.3c-6.2-0.1-11.7,1.1-16.2,3.7
				c-7.1,4.1-11.4,11.5-12.6,21.9c-1.1,9.2,4.5,17.7,16.5,25.4c-1.7,0.4-3.2,1.2-4.5,2.4l0,0c-1.9,1.8-2.6,4.7-1.8,8.4
				c1.5,7.4,8.8,17.4,17.9,20.6c7.1,2.5,16.6,5.4,25.3,5.4c0.9,0,1.8,0,2.7-0.1h0.2c1.8-0.2,3.6-0.5,5.3-0.9
				c7.2-2.1,25.3-7.3,32.3-9.4c7,2,25.1,7.3,32.3,9.4c1.7,0.5,3.5,0.8,5.3,0.9h0.2c0.9,0.1,1.8,0.1,2.7,0.1c8.7,0,18.2-2.9,25.3-5.4
				c9.1-3.2,16.3-13.2,17.9-20.6c0.8-3.7,0.1-6.6-1.8-8.4l0,0c-1.3-1.1-2.8-1.9-4.4-2.4c1.3-0.8,2.5-1.6,3.7-2.5
				c9.5-7,13.9-14.7,12.9-22.9c-1.2-10.4-5.5-17.8-12.6-21.9c-4.6-2.7-10.3-3.9-16.7-3.7c0.5-2.2,0.1-4.5-1-6.5
				c4.2,2.2,8.7,3.5,13.4,4c1.4,0.1,2.7,0.2,4.1,0.2c9.3,0,17.8-3.2,23.6-6c4-2,7.8-4.3,11.4-7c0.4,0.1,0.8,0.2,1.1,0.3
				c0.5,0.1,1,0.2,1.5,0.2c0.9,0,1.7-0.3,2.4-0.9c2.4-2.1,9.9-17.1,10.9-19c9.4-2.8,17-13.7,17.8-14.9
				C319.7,164.4,324.2,158.9,323.1,154z M289.4,159.1c0.4-0.6,0.6-1.3,0.5-2c1.6-0.1,3.1-0.5,4.5-1.2c0.5-0.2,1.1-0.4,1.6-0.6
				c0,3.4-0.7,6.9-4.3,7.5c-0.9,0.1-2.4,0.3-2.9-0.5C288.5,161.2,288.7,160,289.4,159.1z M43.8,162.1c-0.5,0.8-2,0.6-2.9,0.5
				c-3.6-0.6-4.2-4-4.3-7.5c0.5,0.2,1.1,0.4,1.6,0.6c1.4,0.7,2.9,1.1,4.5,1.2c-0.1,0.7,0.1,1.4,0.5,2
				C43.9,159.8,44.1,161,43.8,162.1z"/>
		</g>
		<g id="red">
			
				<linearGradient id="etr1rb30h02142_1_" gradientUnits="userSpaceOnUse" x1="199.0462" y1="-354.4197" x2="387.9884" y2="-543.3519" gradientTransform="matrix(1 0 0 -1 -88.41 -305.55)">
				<stop  offset="0" style="stop-color:#E01F00"/>
				<stop  offset="0" style="stop-color:#E01F0A"/>
				<stop  offset="0.29" style="stop-color:#E0204A"/>
				<stop  offset="0.53" style="stop-color:#E0207D"/>
				<stop  offset="0.73" style="stop-color:#E021A2"/>
				<stop  offset="0.9" style="stop-color:#E021B9"/>
				<stop  offset="1" style="stop-color:#E021C1"/>
			</linearGradient>
			<path id="etr1rb30h02142" class="st4" d="M361.8,116.9c-0.3-1.6-1-3.1-2.1-4.3c-0.1-1-0.3-2-0.7-2.9c-1.2-2.9-3.1-4.7-5.1-5h-0.2
				c-1.6-2.6-3.6-4-5.6-3.9c-1.4,0-2.6,0.8-3.2,2.1c-0.9,1.8-0.5,4.1,1,6.2c0.4,0.6,0.5,1.4,0.4,2.1c-0.4,1.5-1.2,2.9-2.2,4.1
				c-0.1-0.8-0.3-1.7-0.7-2.4c-0.7-1.5-2.2-3.2-5.5-3.4c-4.3,0-8.3,2-10.8,5.4c-0.4,0.6-0.7,1.3-0.8,2.1c-0.4-0.2-0.8-0.3-1.2-0.3
				c-1.2-0.1-3.5,0.3-5.9,3.7c-2.1,3-2.7,6.9-1.5,10.4c-3,1.5-11.5,6-14.1,7.8c-1.1,0.7-1.9,1.8-2.2,3c-5,0.8-16.1,2.1-20.6,0.7
				c-1.2-7.1-3.3-14.1-6.3-20.7c-2.6-6.1-6.2-11.6-10.7-16.4c-0.7-0.8-1.5-1.5-2.2-2.2v-8.5c0-7.5-5.2-14-12.5-15.6
				c0.3-0.9,0.6-1.7,0.9-2.6l1.9-0.8c0.1,0,0.1,0,0.1-0.1l0,0c2-1.1,3.4-3.1,3.8-5.3l0.9,0.1h0.3c2.1,0,3.9-1.7,4.1-3.8l0.7-9.3
				c0.2-2.2-1.5-4.2-3.7-4.4c0,0-0.1,0-0.1,0l0,0l-1.2-0.1c-0.2-2.3-1.3-4.3-3-5.8l-0.1-0.1l-3.4-2.1c-6.1-20.4-24.1-35.1-45.2-35.1
				s-39,14.7-45.1,35l-3.6,2.2l-0.1,0.1c-1.8,1.4-2.9,3.5-3,5.8l-1.2,0.1c-1.1,0.1-2.1,0.6-2.8,1.4c-0.7,0.8-1.1,1.9-1,3l0.7,9.3
				c0.1,2.1,1.9,3.8,4,3.8h0.3l0.9-0.1c0.5,2.2,1.8,4.2,3.8,5.3c0.1,0,0.1,0,0.1,0.1l0,0l2.1,0.9c0.2,0.8,0.5,1.5,0.8,2.3
				c-8,1-14,7.8-14,15.8v10l-0.6,0.6c-4.4,4.8-8.1,10.4-10.7,16.4c-3,6.6-5.1,13.6-6.3,20.7c-4.6,1.4-15.6,0.1-20.6-0.7
				c-0.3-1.2-1.1-2.3-2.2-3c-2.6-1.8-11.2-6.3-14.1-7.8c1.3-3.5,0.7-7.4-1.5-10.4c-2.3-3.5-4.7-3.8-5.9-3.7c-0.4,0-0.8,0.1-1.2,0.3
				c-0.1-0.7-0.4-1.5-0.8-2.1c-2.5-3.5-6.5-5.5-10.8-5.4c-2.4-0.1-4.5,1.3-5.5,3.4c-0.4,0.8-0.6,1.6-0.7,2.4
				c-1.1-1.1-1.9-2.6-2.2-4.1c-0.2-0.7,0-1.5,0.4-2.1c1.5-2.1,1.9-4.4,1-6.2c-0.6-1.2-1.8-2.1-3.2-2.1c-2-0.1-4,1.4-5.6,3.9h-0.2
				c-2,0.2-3.9,2-5.1,5c-0.4,0.9-0.6,1.9-0.7,2.9c-1.1,1.2-1.8,2.7-2.1,4.3c-1.1,4.9,3.4,10.4,6.9,14.2c0.8,1.2,8.4,12.2,17.8,14.9
				c1,1.9,8.5,16.8,10.9,19c0.7,0.6,1.5,0.9,2.4,0.9c0.5,0,1-0.1,1.5-0.2c0.3-0.1,0.7-0.2,1.1-0.3c3.6,2.7,7.4,5,11.4,7
				c5.8,2.9,14.3,6,23.6,6c1.3,0,2.7-0.1,4.1-0.2c4.4-0.5,8.7-1.7,12.7-3.7c-1,2-1.2,4.2-0.7,6.3c-6.2-0.1-11.7,1.1-16.2,3.7
				c-7.1,4.1-11.4,11.5-12.6,21.9c-1.1,9.2,4.5,17.7,16.5,25.4c-1.7,0.4-3.2,1.2-4.5,2.4l0,0c-1.9,1.8-2.6,4.7-1.8,8.4
				c1.5,7.4,8.8,17.4,17.9,20.6c7.1,2.5,16.6,5.4,25.3,5.4c0.9,0,1.8,0,2.7-0.1h0.2c1.8-0.2,3.6-0.5,5.3-0.9
				c7.2-2.1,25.3-7.3,32.3-9.4c7,2,25.1,7.3,32.3,9.4c1.7,0.5,3.5,0.8,5.3,0.9h0.2c0.9,0.1,1.8,0.1,2.7,0.1c8.7,0,18.2-2.9,25.3-5.4
				c9.1-3.2,16.3-13.2,17.9-20.6c0.8-3.7,0.1-6.6-1.8-8.4l0,0c-1.3-1.1-2.8-1.9-4.4-2.4c1.3-0.8,2.5-1.6,3.7-2.5
				c9.5-7,13.9-14.7,12.9-22.9c-1.2-10.4-5.5-17.8-12.6-21.9c-4.6-2.7-10.3-3.9-16.7-3.7c0.5-2.2,0.1-4.5-1-6.5
				c4.2,2.2,8.7,3.5,13.4,4c1.4,0.1,2.7,0.2,4.1,0.2c9.3,0,17.8-3.2,23.6-6c4-2,7.8-4.3,11.4-7c0.4,0.1,0.8,0.2,1.1,0.3
				c0.5,0.1,1,0.2,1.5,0.2c0.9,0,1.7-0.3,2.4-0.9c2.4-2.1,9.9-17.1,10.9-19c9.4-2.8,17-13.7,17.8-14.9
				C358.4,127.3,362.9,121.8,361.8,116.9z M328.2,122c0.4-0.6,0.6-1.3,0.5-2c1.6-0.1,3.1-0.5,4.5-1.2c0.5-0.2,1.1-0.4,1.6-0.6
				c0,3.4-0.7,6.9-4.3,7.5c-0.9,0.1-2.4,0.3-2.9-0.5C327.2,124.1,327.4,122.9,328.2,122L328.2,122z M82.5,125
				c-0.5,0.8-2,0.6-2.9,0.5c-3.6-0.6-4.2-4-4.3-7.5c0.5,0.2,1.1,0.4,1.6,0.6c1.4,0.7,2.9,1.1,4.5,1.2c-0.1,0.7,0.1,1.4,0.5,2
				C82.6,122.7,82.8,123.9,82.5,125z"/>
		</g>
		<g id="main">
			<g id="etr1rb30h02144">
				<path id="etr1rb30h02145" class="st5" d="M211.5,270h-11.4c-27.8,0-50.4-22.5-50.4-50.4c0,0,0,0,0,0l0,0v-26.4
					c0-27.8,22.5-50.4,50.4-50.4c0,0,0,0,0,0h11.4c27.8,0,50.4,22.5,50.4,50.4c0,0,0,0,0,0l0,0v26.4
					C261.9,247.4,239.3,270,211.5,270z"/>
			</g>
			<g id="etr1rb30h02146">
				<path id="etr1rb30h02147" class="st6" d="M247.1,271.2h-82.7c-8.8,0-15.9-7.1-15.9-15.9c0,0,0,0,0,0v-97.6
					c0-8.8,7.1-15.9,15.9-15.9c0,0,0,0,0,0h82.7c8.8,0,15.9,7.1,15.9,15.9c0,0,0,0,0,0v97.6c0,8.7-7,15.8-15.7,15.9L247.1,271.2z
					 M164.4,144.1c-7.4,0-13.5,6.1-13.5,13.5v97.6c0,7.4,6.1,13.5,13.5,13.5h82.7c7.4,0,13.5-6.1,13.5-13.5v-97.6
					c0-7.4-6.1-13.5-13.5-13.5H164.4z"/>
			</g>
			<g id="etr1rb30h02148">
				<path id="etr1rb30h02149" class="st5" d="M256.5,259.6c-0.1-1.6-0.2-3.3-0.1-4.9l0.4-14.3c-0.2-16.3-1.5-32.7-4.1-48.8
					c0,0-7.5-23.3-5.9-33.1l-80.1,1.9c0,0-0.3,19.7-6.3,31.2c-2.6,16-3.9,32.3-4.1,48.5l0.4,14.5c0,0.7,0,2.4-0.1,4.8
					C170.9,262.3,213.1,268.7,256.5,259.6z"/>
			</g>
			<g id="etr1rb30h02150">
				<path id="etr1rb30h02151" class="st5" d="M166.4,158.4c-29.1,7.5-34.4,47.9-34.4,47.9c-5.6,2.4-24.8-2-24.8-2l-17.6,21.1
					c0,0,39.4,33.5,67.4-1.7l5.5-2.8L166.4,158.4z"/>
			</g>
			<g id="etr1rb30h02152">
				<path id="etr1rb30h02153" class="st5" d="M246.8,158.6c29.1,7.5,34.4,47.9,34.4,47.9c5.6,2.4,24.8-2,24.8-2l17.7,21.1
					c0,0-39.4,33.5-67.4-1.7l-5.5-2.8L246.8,158.6z"/>
			</g>
			<g id="etr1rb30h02154">
				<g id="etr1rb30h02155">
					<polygon id="etr1rb30h02156" class="st7" points="191.4,247.9 198.1,237.4 215.1,237.4 221.4,247.9 					"/>
				</g>
			</g>
			<g id="etr1rb30h02157">
				<g id="etr1rb30h02158">
					<polygon id="etr1rb30h02159" class="st7" points="195.5,248.6 200.3,241 212.6,241 217.1,248.6 					"/>
				</g>
			</g>
			<g id="etr1rb30h02160">
				<g id="etr1rb30h02161">
					<path id="etr1rb30h02162" class="st7" d="M191.4,253.5c0,0,0.8,17.3,7.7,33.1c2.4,0.8,4.9,1.1,7.4,1c2.5,0,5-0.4,7.4-1
						c6.9-15.8,7.5-32.5,7.5-32.5s-9.2,0.1-15.2,0S191.4,253.5,191.4,253.5z"/>
				</g>
			</g>
			<g id="etr1rb30h02163">
				<g id="etr1rb30h02164">
					<path id="etr1rb30h02165" class="st8" d="M155.8,243.1c0,0,50.4,12.1,101,0v5.5c-50.6,12.1-101,0-101,0L155.8,243.1z"/>
				</g>
			</g>
			<g id="etr1rb30h02166">
				<g id="etr1rb30h02167">
					<rect id="etr1rb30h02168" x="200.8" y="219.4" class="st8" width="11.6" height="17.7"/>
				</g>
			</g>
			<g id="etr1rb30h02169">
				<g id="etr1rb30h02170">
					<path id="etr1rb30h02171" class="st5" d="M206.6,162.5c25.5,0,38.7-13.6,41.3-17.1c3.2-6.9,4.9-14.5,4.9-22.1
						c0-27.2-20.7-49.3-46.2-49.3s-46.2,22.1-46.2,49.3c0,7.6,1.7,15.2,4.9,22.1C167.9,148.9,181.1,162.5,206.6,162.5z"/>
				</g>
				<g id="etr1rb30h02172">
					<path id="etr1rb30h02173" class="st6" d="M206.6,163.7c-28.8,0-41.7-16.9-42.3-17.6c0-0.1-0.1-0.1-0.1-0.2
						c-3.3-7.1-5-14.8-5-22.6c0-27.9,21.3-50.5,47.4-50.5S254,95.5,254,123.3c0,7.8-1.7,15.5-5,22.6c0,0.1-0.1,0.1-0.1,0.2
						C248.3,146.8,235.3,163.7,206.6,163.7z M166.3,144.7c1.2,1.5,13.5,16.5,40.2,16.5s39.1-15.1,40.2-16.5
						c3.1-6.7,4.7-14.1,4.7-21.5c0-26.5-20.2-48.1-45-48.1s-45,21.6-45,48.1C161.5,130.6,163.2,138,166.3,144.7z"/>
				</g>
				<g id="etr1rb30h02174">
					<path id="etr1rb30h02175" class="st9" d="M155.9,132l-0.8,0.1c-1.8,0.1-3.4-1.3-3.6-3.1l-0.6-8.3c-0.1-1.8,1.3-3.4,3.1-3.6
						l0.8-0.1c1.8-0.1,3.4,1.3,3.6,3.1l0.6,8.3C159,130.2,157.7,131.8,155.9,132z"/>
				</g>
				<g id="etr1rb30h02176">
					<path id="etr1rb30h02177" class="st6" d="M154.5,133.3c-1,0-1.9-0.3-2.6-1c-0.8-0.7-1.3-1.7-1.4-2.8l-0.7-9.3
						c-0.2-2.2,1.5-4.2,3.7-4.4c0,0,0.1,0,0.1,0l0,0l1.7-0.1c2.2-0.2,4.2,1.5,4.4,3.7c0,0,0,0.1,0,0.1l0,0l0.7,9.3
						c0.2,2.2-1.5,4.2-3.7,4.4c0,0-0.1,0-0.1,0l0,0l-1.7,0.1H154.5z M155.5,118.2h-0.1l-1.7,0.1c-0.4,0-0.9,0.2-1.1,0.6
						c-0.3,0.3-0.4,0.8-0.4,1.2l0.7,9.3c0,0.4,0.2,0.9,0.6,1.1c0.3,0.3,0.8,0.4,1.2,0.4l1.7-0.1l0,0c0.4,0,0.9-0.2,1.1-0.6
						c0.3-0.3,0.4-0.8,0.4-1.2l-0.7-9.3c0-0.4-0.2-0.9-0.6-1.1C156.3,118.4,155.9,118.2,155.5,118.2z"/>
				</g>
				<g id="etr1rb30h02178">
					<path id="etr1rb30h02179" class="st5" d="M171.1,103.3l-12.6,7.7c-1.7,1.4-2.7,3.5-2.6,5.7l0.8,15.3c0.1,2.3,1.4,4.4,3.4,5.5
						l9.6,4.2L171.1,103.3z"/>
				</g>
				<g id="etr1rb30h02180">
					<path id="etr1rb30h02181" class="st9" d="M257.1,132l0.8,0.1c1.8,0.1,3.4-1.3,3.6-3.1l0.6-8.3c0.1-1.8-1.3-3.4-3.1-3.6
						l-0.8-0.1c-1.8-0.1-3.4,1.3-3.6,3.1l-0.6,8.3C253.9,130.2,255.3,131.8,257.1,132z"/>
				</g>
				<g id="etr1rb30h02182">
					<path id="etr1rb30h02183" class="st6" d="M258.6,133.3h-0.3l-1.7-0.1c-1.1-0.1-2.1-0.6-2.8-1.4c-0.7-0.8-1.1-1.9-1-3l0.7-9.3
						c0.2-2.2,2.1-3.9,4.4-3.7c0,0,0,0,0,0l0,0l1.7,0.1c1.1,0.1,2.1,0.6,2.8,1.4c0.7,0.8,1.1,1.9,1,3l-0.7,9.3
						C262.5,131.7,260.7,133.3,258.6,133.3z M257.5,118.2c-0.8,0-1.5,0.7-1.6,1.5l-0.7,9.3c0,0.4,0.1,0.9,0.4,1.2
						c0.3,0.3,0.7,0.5,1.1,0.6l1.7,0.1c0.9,0.1,1.6-0.5,1.7-1.4v-0.1l0.7-9.3c0-0.4-0.1-0.9-0.4-1.2c-0.3-0.3-0.7-0.5-1.1-0.6
						l-1.7-0.1L257.5,118.2z"/>
				</g>
				<g id="etr1rb30h02184">
					<path id="etr1rb30h02185" class="st5" d="M241.9,103.3l12.6,7.7c1.7,1.4,2.7,3.5,2.6,5.7l-0.8,15.3c-0.1,2.3-1.4,4.4-3.4,5.5
						l-9.6,4.2L241.9,103.3z"/>
				</g>
				<g id="etr1rb30h02186">
					<path id="etr1rb30h02187" class="st6" d="M243.4,142.9c-0.5,0-0.9-0.3-1.1-0.7c-0.3-0.6,0-1.3,0.6-1.6c0,0,0,0,0,0l0,0l9.5-4.1
						c1.6-1,2.6-2.6,2.7-4.5l0.8-15.3c0.1-1.8-0.7-3.5-2-4.6l-12.6-7.6c-0.6-0.2-0.9-1-0.7-1.6c0.2-0.6,1-0.9,1.6-0.7
						c0.1,0.1,0.2,0.1,0.3,0.2l12.6,7.7l0.1,0.1c2,1.6,3.2,4.1,3,6.7l-0.8,15.3c-0.1,2.7-1.6,5.2-4,6.5c-0.1,0-0.1,0-0.1,0.1l0,0
						l-9.6,4.2C243.7,142.9,243.6,142.9,243.4,142.9z"/>
				</g>
				<g id="etr1rb30h02188">
					<g id="etr1rb30h02189">
						<path id="etr1rb30h02190" class="st10" d="M206.6,154.6c-24.8,0-44.2-12.8-44.2-29.2c0-6.7,1.3-12.1,3.8-16.5
							c2.5-4.2,6.4-7.5,11-9.3c8-3.4,18.4-3.4,29.4-3.4s21.3,0,29.4,3.4c4.6,1.8,8.4,5.1,11,9.3c2.6,4.4,3.8,9.7,3.8,16.5
							C250.8,141.8,231.4,154.6,206.6,154.6z"/>
					</g>
				</g>
				<g id="etr1rb30h02191">
					<path id="etr1rb30h02192" class="st6" d="M206.6,155.9c-25.5,0-45.4-13.3-45.4-30.4c0-6.9,1.3-12.5,4-17.1
						c2.7-4.5,6.8-7.9,11.6-9.8c8.3-3.5,18.7-3.5,29.8-3.5s21.6,0,29.8,3.5c4.8,1.9,8.9,5.3,11.6,9.8c2.7,4.5,4,10.1,4,17.1
						C252,142.5,232.1,155.9,206.6,155.9z M206.6,97.5c-10.8,0-21.1,0-28.9,3.3c-4.3,1.7-8,4.8-10.4,8.8c-2.5,4.2-3.7,9.3-3.7,15.8
						c0,15.7,18.9,27.9,43,27.9s43-12.3,43-27.9c0-6.5-1.2-11.7-3.7-15.8c-2.4-4-6.1-7.1-10.4-8.8C227.7,97.5,217.4,97.5,206.6,97.5
						L206.6,97.5z"/>
				</g>
				<g id="etr1rb30h02193">
					<g id="etr1rb30h02194">
						<ellipse id="etr1rb30h02195" class="st11" cx="206.6" cy="125.5" rx="38.3" ry="23.2"/>
					</g>
				</g>
				<g id="etr1rb30h02196">
					<path id="etr1rb30h02197" class="st6" d="M206.6,149.9c-10.4,0-20.3-2.5-27.7-7c-7.6-4.6-11.8-10.8-11.8-17.5
						c0-11.2,3.8-18,12-21.5c7.2-3,17.1-3,27.6-3s20.4,0,27.6,3c8.2,3.4,12,10.2,12,21.5c0,6.7-4.2,12.9-11.8,17.5
						S217,149.9,206.6,149.9z M206.6,103.5c-10.2,0-19.9,0-26.6,2.8c-7.1,3-10.5,9.1-10.5,19.2c0,12.1,16.6,22,37.1,22
						s37.1-9.9,37.1-22c0-10.1-3.3-16.2-10.5-19.2C226.5,103.5,216.8,103.5,206.6,103.5z"/>
				</g>
				<g id="etr1rb30h02198">
					<path id="etr1rb30h02199" class="st6" d="M206.6,180.5c-11.9,0-22.2-2.4-29.8-6.9c-7-4.2-11-10-11-16v-10.1
						c0-0.5,0.3-1,0.8-1.2c0.5-0.2,1.1,0,1.4,0.4c2.7,2.9,5.9,5.4,9.4,7.3c5.8,3.3,15.5,7.3,29.2,7.3c26.3,0,38.5-14.5,38.6-14.6
						c0.3-0.4,0.9-0.6,1.4-0.4c0.5,0.2,0.8,0.7,0.8,1.2v10.1c0,6.2-3.7,11.9-10.5,16C229.6,178.1,219.1,180.5,206.6,180.5z
						 M168.3,150.4v7.2c0,9.9,13.4,20.4,38.3,20.4c26.3,0,38.3-10.6,38.3-20.4v-7.2c-2.4,2.1-5,4-7.7,5.6
						c-6.1,3.5-16.3,7.7-30.6,7.7s-24.5-4.2-30.6-7.7C173.2,154.5,170.6,152.6,168.3,150.4z"/>
				</g>
				<g id="etr1rb30h02200">
					<g id="etr1rb30h02201">
						<path id="etr1rb30h02202" class="st9" d="M206.6,162.5c-21.9,0-34.7-10-39.6-15.1v0.7c0,11.1,14.6,21.7,39.6,21.7
							c26.4,0,39.6-10.6,39.6-21.7v-0.6C241.3,152.5,228.5,162.5,206.6,162.5z"/>
					</g>
				</g>
				<g id="etr1rb30h02203">
					<path id="etr1rb30h02204" class="st6" d="M206.6,170.9c-11.9,0-22.2-2.4-29.8-6.9c-7-4.2-11-10-11-16v-0.7
						c0-0.7,0.6-1.2,1.3-1.2c0.3,0,0.6,0.1,0.8,0.4c4.2,4.4,16.5,14.7,38.7,14.7s34.4-10.3,38.7-14.7c0.3-0.4,0.9-0.5,1.3-0.3
						c0.5,0.2,0.8,0.6,0.8,1.1v0.7c0,6.2-3.7,11.9-10.5,16C229.6,168.6,219.1,170.9,206.6,170.9z M168.5,150.5c2,9.1,15.2,18,38,18
						c24.1,0,36.2-8.9,38.1-18c-5.9,5.2-18.2,13.2-38.1,13.2S174.4,155.7,168.5,150.5z"/>
				</g>
				<g id="etr1rb30h02205">
					<path id="etr1rb30h02206" class="st6" d="M169.6,142.9c-0.2,0-0.3,0-0.5-0.1l-9.6-4.2c-0.1,0-0.1,0-0.1-0.1l0,0
						c-2.3-1.4-3.8-3.8-4-6.5l-0.8-15.3c-0.1-2.6,1-5.1,3-6.7l0.1-0.1l12.6-7.7c0.6-0.4,1.3-0.2,1.7,0.4c0.4,0.6,0.2,1.3-0.4,1.7
						l0,0l-12.6,7.6c-1.4,1.1-2.1,2.8-2,4.6l0.8,15.3c0.1,1.9,1.1,3.5,2.7,4.5l9.5,4.1c0.6,0.3,0.9,1,0.6,1.6c0,0,0,0,0,0l0,0
						C170.5,142.5,170.1,142.9,169.6,142.9z"/>
				</g>
			</g>
			<g id="etr1rb30h02207">
				<path id="etr1rb30h02208" class="st6" d="M157.7,259.6l-2.5-0.1c0.1-1.6,0.2-3.1,0.1-4.7c-0.3-4.6-0.4-9.5-0.4-14.6h2.5
					c0,5.1,0.1,9.9,0.4,14.5C157.8,256.3,157.8,258,157.7,259.6z"/>
			</g>
			<g id="etr1rb30h02209">
				<path id="etr1rb30h02210" class="st6" d="M206.3,288.7c-4.5,0.1-9-0.6-13.3-1.9c-0.7-0.2-1-0.9-0.8-1.6c0.2-0.7,0.9-1,1.6-0.8
					l0,0l0,0c8.1,2.2,16.7,2.2,24.8,0c0.6-0.2,1.3,0.2,1.5,0.8c0.2,0.6-0.2,1.3-0.8,1.5C215.1,288.1,210.7,288.8,206.3,288.7z"/>
			</g>
			<g id="etr1rb30h02211">
				<path id="etr1rb30h02212" class="st6" d="M255.3,259.7c-0.1-1.7-0.2-3.4-0.1-5.1c0.3-4.5,0.4-9.2,0.4-14.2h2.5
					c0,5-0.1,9.9-0.4,14.4c0,0.7,0,2.7,0.1,4.8L255.3,259.7z"/>
			</g>
			<g id="etr1rb30h02213">
				<path id="etr1rb30h02214" class="st6" d="M208,249.7c-7.7,0-14.8-0.4-20.7-0.8c-18.8-1.5-31.6-4.5-31.7-4.6l0.6-2.4
					c10.4,2.2,20.8,3.7,31.4,4.5c17.2,1.4,43.1,1.7,69.1-4.5l0.6,2.4C241.1,248,224.6,249.8,208,249.7z"/>
			</g>
			<g id="etr1rb30h02215">
				<path id="etr1rb30h02216" class="st6" d="M208,255.2c-7.7,0-14.8-0.4-20.7-0.8c-18.8-1.5-31.6-4.5-31.7-4.6l0.6-2.4
					c10.4,2.2,20.8,3.7,31.4,4.5c17.2,1.4,43.1,1.7,69.1-4.5l0.6,2.4C241.1,253.5,224.6,255.3,208,255.2z"/>
			</g>
			<g id="etr1rb30h02217">
				<path id="etr1rb30h02218" class="st6" d="M199.1,287.7c-0.5,0-0.9-0.3-1.1-0.7c-6.9-15.8-7.8-32.8-7.8-33.5
					c0-0.7,0.5-1.3,1.2-1.3s1.3,0.5,1.3,1.2l0,0c0,0.2,0.9,17.2,7.6,32.6c0.3,0.6,0,1.3-0.6,1.6c0,0,0,0,0,0l0,0
					C199.5,287.7,199.3,287.7,199.1,287.7z"/>
			</g>
			<g id="etr1rb30h02219">
				<path id="etr1rb30h02220" class="st6" d="M213.9,287.7c-0.2,0-0.3,0-0.5-0.1c-0.6-0.3-0.9-1-0.6-1.6c0,0,0,0,0,0l0,0
					c6.7-15.4,7.4-31.9,7.4-32.1c0-0.7,0.6-1.2,1.3-1.2s1.2,0.6,1.2,1.3l0,0c-0.7,11.3-3.2,22.5-7.6,33
					C214.8,287.4,214.4,287.7,213.9,287.7z"/>
			</g>
			<g id="etr1rb30h02221">
				<path id="etr1rb30h02222" class="st6" d="M221.4,249.2c-0.4,0-0.9-0.2-1.1-0.6l-5.9-9.9h-15.7l-6.3,10c-0.4,0.6-1.1,0.8-1.7,0.4
					c-0.6-0.4-0.8-1.1-0.4-1.7l0,0l0,0l6.7-10.5c0.2-0.4,0.6-0.6,1-0.6h17.1c0.4,0,0.9,0.2,1.1,0.6l6.3,10.5
					c0.3,0.6,0.2,1.3-0.4,1.7C221.8,249.1,221.6,249.2,221.4,249.2z"/>
			</g>
			<g id="etr1rb30h02223">
				<path id="etr1rb30h02224" class="st6" d="M200.8,238.6c-0.6,0-1.1-0.5-1.2-1.1l0,0v-18.3c0-0.7,0.5-1.2,1.2-1.2
					c0.7,0,1.2,0.5,1.2,1.2l0,0v18.3C201.9,238.1,201.4,238.6,200.8,238.6z"/>
			</g>
			<g id="etr1rb30h02225">
				<path id="etr1rb30h02226" class="st6" d="M212.4,238.6c-0.6,0-1.1-0.5-1.2-1.1v-18.4c0-0.7,0.5-1.2,1.2-1.2
					c0.7,0,1.2,0.5,1.2,1.2l0,0v18.4C213.6,238.1,213.1,238.6,212.4,238.6C212.4,238.6,212.4,238.6,212.4,238.6z"/>
			</g>
			<g id="etr1rb30h02227">
				<g id="etr1rb30h02228">
					<path id="etr1rb30h02229" class="st7" d="M156.4,229.4c0,0-7.2,1.4-11.7,6.6c-5.8,6.7,0.1,16.2,11.7,15.3
						c34.4-2.7,37-37.6,37-37.6l-10.8-0.4c0,0-4.8,25.8-26.4,26.9L156.4,229.4z"/>
				</g>
			</g>
			<g id="etr1rb30h02230">
				<path id="etr1rb30h02231" class="st6" d="M156.3,241.4l-0.1-2.5c8.5-0.4,15.3-4.8,20.2-13.2c2.4-3.9,4.1-8.2,5-12.7l2.4,0.5
					c-1.1,4.7-2.9,9.2-5.3,13.4C173.2,236,165.5,241,156.3,241.4z"/>
			</g>
			<g id="etr1rb30h02232">
				<path id="etr1rb30h02233" class="st6" d="M154.9,252.6c-5.8,0-10.6-2.5-12.7-6.7c-1.8-3.5-1.2-7.8,1.6-10.7
					c4.7-5.4,12.1-6.9,12.4-7l0.5,2.4c-0.1,0-6.9,1.4-11,6.2c-2.1,2.1-2.6,5.4-1.2,8c1.8,3.6,6.5,5.7,11.9,5.3
					c13.8-1.1,24-7.5,30.4-19.1c2.9-5.4,4.8-11.3,5.5-17.4l2.4,0.2c-0.7,6.4-2.6,12.6-5.7,18.3c-4.6,8.5-14,19-32.4,20.4
					C156,252.6,155.5,252.6,154.9,252.6z"/>
			</g>
			<g id="etr1rb30h02234">
				<g id="etr1rb30h02235">
					<path id="etr1rb30h02236" class="st6" d="M189.6,220.1c-2.9,0-5.8-0.7-8.4-2.2l0.7-1.2c3.2,1.7,6.9,2.4,10.5,1.8l0.2,1.3
						C191.6,220,190.6,220.1,189.6,220.1z"/>
				</g>
				<g id="etr1rb30h02237">
					<path id="etr1rb30h02238" class="st6" d="M188,227.6c-3.5-0.1-6.8-1.3-9.5-3.5l0.9-1l-0.4,0.5l0.4-0.5c0,0,4.9,4,10.5,3
						l0.2,1.3C189.4,227.5,188.7,227.6,188,227.6z"/>
				</g>
				<g id="etr1rb30h02239">
					<path id="etr1rb30h02240" class="st6" d="M184.4,235c-5.5,0-9.6-4.4-9.8-4.6l1-0.9l-0.5,0.5l0.5-0.5c0,0.1,4.9,5.1,10.6,4
						l0.3,1.3C185.8,234.9,185.1,235,184.4,235z"/>
				</g>
				<g id="etr1rb30h02241">
					<path id="etr1rb30h02242" class="st6" d="M178.9,242.9c-6.7,0-10-6.7-10.1-7l1.2-0.6l-0.6,0.3l0.6-0.3c0,0.1,3.2,6.6,9.4,6.2
						l0.1,1.4L178.9,242.9z"/>
				</g>
				<g id="etr1rb30h02243">
					<path id="etr1rb30h02244" class="st6" d="M170.2,248.6c-7.7-1.6-8.1-9.5-8.1-9.6l1.4-0.1c0,0.3,0.4,6.9,7.1,8.3L170.2,248.6z"
						/>
				</g>
				<g id="etr1rb30h02245">
					<path id="etr1rb30h02246" class="st6" d="M160.1,251.5c-7.7-3.1-4.9-11.5-4.9-11.5l1.3,0.4c-0.1,0.3-2.4,7.2,4.1,9.8
						L160.1,251.5z"/>
				</g>
				<g id="etr1rb30h02247">
					<path id="etr1rb30h02248" class="st6" d="M146.7,248.6h-1.4c0-10.3,10.7-11.2,10.8-11.3l0.1,1.4
						C155.9,238.8,146.7,239.6,146.7,248.6z"/>
				</g>
				<g id="etr1rb30h02249">
					<path id="etr1rb30h02250" class="st6" d="M145.9,235.7l-0.7-1.2c4.6-2.7,11-1,11.3-0.9l-0.4,1.3
						C156.1,234.9,150,233.3,145.9,235.7z"/>
				</g>
			</g>
			<g id="etr1rb30h02251">
				<g id="etr1rb30h02252">
					<path id="etr1rb30h02253" class="st7" d="M256.4,229.6c0,0,7.2,1.4,11.7,6.6c5.8,6.7-0.1,16.2-11.7,15.3
						c-34.4-2.7-37-37.6-37-37.6l10.8-0.4c0,0,4.8,25.8,26.4,26.9L256.4,229.6z"/>
				</g>
			</g>
			<g id="etr1rb30h02254">
				<path id="etr1rb30h02255" class="st6" d="M256.5,241.6c-9.2-0.4-17-5.4-22.3-14.4c-2.4-4.2-4.2-8.7-5.3-13.4l2.4-0.5
					c0.9,4.5,2.6,8.8,5,12.7c5,8.3,11.8,12.7,20.2,13.2V241.6z M230.2,213.5l1.2-0.2l0,0L230.2,213.5z"/>
			</g>
			<g id="etr1rb30h02256">
				<path id="etr1rb30h02257" class="st6" d="M257.9,252.8c-0.5,0-1.1,0-1.6-0.1c-18.3-1.4-27.7-11.9-32.4-20.4
					c-3.1-5.7-5-11.9-5.7-18.3l2.4-0.2l-1.2,0.1l1.2-0.1c0.7,6.1,2.6,12,5.5,17.4c6.3,11.6,16.6,18,30.4,19.1
					c5.4,0.4,10.1-1.6,11.9-5.3c1.3-2.7,0.8-5.8-1.2-8c-4.1-4.8-11-6.2-11-6.2l0.5-2.4c0.3,0.1,7.7,1.6,12.4,7
					c2.7,2.9,3.3,7.1,1.6,10.7C268.4,250.3,263.7,252.8,257.9,252.8z"/>
			</g>
			<g id="etr1rb30h02258">
				<g id="etr1rb30h02259">
					<path id="etr1rb30h02260" class="st6" d="M223.2,220.3c-1,0-2-0.1-3-0.3l0.2-1.3c3.6,0.7,7.3,0,10.5-1.8l0.7,1.2
						C229.1,219.6,226.2,220.3,223.2,220.3z"/>
				</g>
				<g id="etr1rb30h02261">
					<path id="etr1rb30h02262" class="st6" d="M224.7,227.8c-0.7,0-1.5-0.1-2.2-0.2l0.2-1.3c5.6,1,10.5-3,10.5-3l0.9,1
						C231.5,226.5,228.2,227.8,224.7,227.8z"/>
				</g>
				<g id="etr1rb30h02263">
					<path id="etr1rb30h02264" class="st6" d="M228.4,235.2c-0.7,0-1.3-0.1-2-0.2l0.3-1.3c5.7,1.2,10.5-3.9,10.6-4l1,0.9
						C238,230.8,233.8,235.2,228.4,235.2z"/>
				</g>
				<g id="etr1rb30h02265">
					<path id="etr1rb30h02266" class="st6" d="M233.9,243.1h-0.6l0.1-1.4c6.1,0.4,9.3-6.2,9.4-6.2l1.2,0.6
						C243.9,236.4,240.6,243.1,233.9,243.1z"/>
				</g>
				<g id="etr1rb30h02267">
					<path id="etr1rb30h02268" class="st6" d="M242.5,248.8l-0.3-1.3c6.7-1.4,7.1-8.2,7.1-8.3l1.4,0.1
						C250.7,239.3,250.2,247.2,242.5,248.8z"/>
				</g>
				<g id="etr1rb30h02269">
					<path id="etr1rb30h02270" class="st6" d="M252.7,251.7l-0.5-1.3c6.5-2.6,4.2-9.5,4.1-9.8l1.3-0.4
						C257.7,240.2,260.5,248.6,252.7,251.7z"/>
				</g>
				<g id="etr1rb30h02271">
					<path id="etr1rb30h02272" class="st6" d="M267.4,248.8H266c0-9-9.2-9.9-9.5-9.9l0.1-1.4C256.7,237.6,267.4,238.6,267.4,248.8z"
						/>
				</g>
				<g id="etr1rb30h02273">
					<path id="etr1rb30h02274" class="st6" d="M266.9,235.9c-4.1-2.4-10.1-0.8-10.2-0.7l-0.4-1.3c0.3-0.1,6.6-1.8,11.3,0.9
						L266.9,235.9z"/>
				</g>
			</g>
			<g id="etr1rb30h02275">
				<g id="etr1rb30h02276">
					<path id="etr1rb30h02277" class="st9" d="M258.5,225.4c8.3-6.2,15.7-13.5,22-21.7l0.2,2.2l2.4,0.5c0,0-1.2,22.1-9.2,31.3
						c-3.8-1.8-7.3-4.1-10.4-6.9C261.7,229.2,260,227.4,258.5,225.4z"/>
				</g>
			</g>
			<g id="etr1rb30h02278">
				<g id="etr1rb30h02279">
					<path id="etr1rb30h02280" class="st9" d="M154.7,225.3c-8.3-6.2-15.7-13.5-22-21.7l-0.2,2.2l-2.4,0.5c0,0,1.2,22.1,9.2,31.3
						c3.8-1.8,7.3-4.1,10.4-6.9C151.5,229,153.1,227.2,154.7,225.3z"/>
				</g>
			</g>
			<g id="etr1rb30h02281">
				<g id="etr1rb30h02282">
					<path id="etr1rb30h02283" class="st5" d="M216.4,213.7h-19.6c-11,0-19.9-8.9-19.9-19.9c0,0,0,0,0,0l0,0v-4.5
						c0-11,8.9-19.9,19.9-19.9c0,0,0,0,0,0h19.6c11,0,19.9,8.9,19.9,19.9c0,0,0,0,0,0l0,0v4.5C236.2,204.7,227.4,213.6,216.4,213.7z
						"/>
				</g>
				<g id="etr1rb30h02284">
					<g id="etr1rb30h02285">
						<polygon id="etr1rb30h02286" class="st8" points="197.1,213.7 200,219.1 213.4,219.1 216.1,213.7 						"/>
					</g>
				</g>
			</g>
			<g id="etr1rb30h02287">
				<g id="etr1rb30h02288">
					<path id="etr1rb30h02289" class="st7" d="M225.4,203.1h-0.5c-1.2,0-2.2-1-2.3-2.2v-18.5c0-1.2,1-2.2,2.2-2.3h0.6
						c1.2,0,2.2,1,2.3,2.2v18.5c0,1.2-0.9,2.2-2.1,2.3L225.4,203.1z"/>
				</g>
			</g>
			<g id="etr1rb30h02290">
				<g id="etr1rb30h02291">
					<circle id="etr1rb30h02292" class="st7" cx="185.5" cy="183" r="2.9"/>
				</g>
				<g id="etr1rb30h02293">
					<circle id="etr1rb30h02294" class="st7" cx="185.5" cy="191.6" r="2.9"/>
				</g>
				<g id="etr1rb30h02295">
					<circle id="etr1rb30h02296" class="st7" cx="185.5" cy="200.3" r="2.9"/>
				</g>
			</g>
			<g id="etr1rb30h02297">
				<path id="etr1rb30h02298" class="st6" d="M227.9,215h-42.6c-5.3,0-9.6-4.3-9.6-9.6v0l0,0v-27.6c0-5.3,4.3-9.6,9.6-9.6h0h42.6
					c5.3,0,9.6,4.3,9.6,9.6v0l0,0v27.7C237.5,210.8,233.2,215,227.9,215z M185.3,170.7c-3.9,0-7.1,3.2-7.1,7.1v27.6
					c0,3.9,3.2,7.1,7.1,7.1h42.6c3.9,0,7.1-3.2,7.1-7.1v-27.6c0-3.9-3.2-7.1-7.1-7.1H185.3z"/>
			</g>
			<g id="etr1rb30h02299">
				<path id="etr1rb30h02300" class="st6" d="M213.2,220.4h-13.4c-0.5,0-0.9-0.3-1.1-0.7l-2.9-5.4c-0.3-0.6-0.1-1.4,0.5-1.7
					s1.4-0.1,1.7,0.5l0,0l0,0l2.5,4.7h11.9l2.3-4.7c0.3-0.6,1-0.8,1.6-0.5c0,0,0,0,0,0c0.5,0.3,0.8,0.9,0.6,1.5l-2.6,5.4
					C214.2,220,213.8,220.4,213.2,220.4z"/>
			</g>
			<g id="etr1rb30h02301">
				<g id="etr1rb30h02302">
					<path id="etr1rb30h02303" class="st6" d="M185.5,186.6c-2,0-3.6-1.6-3.6-3.6s1.6-3.6,3.6-3.6s3.6,1.6,3.6,3.6
						C189,184.9,187.5,186.5,185.5,186.6z M185.5,180.8c-1.2,0-2.2,1-2.2,2.2c0,1.2,1,2.2,2.2,2.2c1.2,0,2.2-1,2.2-2.2l0,0
						C187.7,181.8,186.7,180.8,185.5,180.8z"/>
				</g>
				<g id="etr1rb30h02304">
					<path id="etr1rb30h02305" class="st6" d="M185.5,195.2c-2,0-3.6-1.6-3.6-3.6s1.6-3.6,3.6-3.6s3.6,1.6,3.6,3.6
						C189,193.5,187.5,195.1,185.5,195.2z M185.5,189.4c-1.2,0-2.2,1-2.2,2.2c0,1.2,1,2.2,2.2,2.2c1.2,0,2.2-1,2.2-2.2l0,0
						C187.6,190.4,186.7,189.5,185.5,189.4z"/>
				</g>
				<g id="etr1rb30h02306">
					<path id="etr1rb30h02307" class="st6" d="M185.5,203.8c-2,0-3.6-1.6-3.6-3.6s1.6-3.6,3.6-3.6s3.6,1.6,3.6,3.6
						C189,202.1,187.5,203.7,185.5,203.8z M185.5,198.1c-1.2,0-2.2,1-2.2,2.2c0,1.2,1,2.2,2.2,2.2c1.2,0,2.2-1,2.2-2.2l0,0
						C187.7,199.1,186.7,198.1,185.5,198.1z"/>
				</g>
			</g>
			<g id="etr1rb30h02308">
				<path id="etr1rb30h02309" class="st6" d="M226.2,203.8h-2.1c-1.2,0-2.2-1-2.2-2.2v-20c0-1.2,1-2.2,2.2-2.2h2.1
					c1.2,0,2.2,1,2.2,2.2v20c0.1,1.1-0.8,2.1-1.9,2.2c0,0-0.1,0-0.1,0H226.2z M224.1,180.8c-0.4,0-0.8,0.3-0.8,0.8c0,0,0,0,0,0l0,0
					v20c0,0.4,0.3,0.8,0.8,0.8c0,0,0,0,0,0h2.1c0.4,0,0.8-0.3,0.8-0.8c0,0,0,0,0,0l0,0v-20c0-0.4-0.3-0.8-0.8-0.8c0,0,0,0,0,0H224.1
					z"/>
			</g>
			<g id="etr1rb30h02310">
				<path id="etr1rb30h02311" class="st6" d="M156.2,241.4L156.2,241.4c-0.6,0-1.2-0.5-1.2-1.1c0,0,0-0.1,0-0.1
					c0.2-16.3,1.6-32.6,4.1-48.7c0.1-0.7,0.6-1.2,1.3-1.1c0.7,0.1,1.2,0.6,1.1,1.3v0.2c-2.5,16-3.9,32.1-4.1,48.3
					C157.4,240.9,156.9,241.4,156.2,241.4z"/>
			</g>
			<g id="etr1rb30h02312">
				<path id="etr1rb30h02313" class="st6" d="M256.8,241.6c-0.6,0-1.1-0.5-1.2-1.1l0,0c-0.2-16.2-1.6-32.5-4.1-48.5
					c-0.1-0.6,0.3-1.2,0.9-1.3c0.1,0,0.1,0,0.2,0c0.6-0.1,1.2,0.3,1.3,0.9c2.6,16.2,4,32.6,4.1,49
					C258,241.2,257.5,241.6,256.8,241.6C256.9,241.6,256.8,241.6,256.8,241.6L256.8,241.6z"/>
			</g>
			<g id="etr1rb30h02314">
				<g id="etr1rb30h02315">
					<g id="etr1rb30h02316">
						<circle id="etr1rb30h02317" class="st9" cx="214.2" cy="259" r="2.3"/>
					</g>
					<g id="etr1rb30h02318">
						<path id="etr1rb30h02319" class="st6" d="M214.2,261.7c-1.5,0-2.7-1.2-2.7-2.7c0-1.5,1.2-2.7,2.7-2.7c1.5,0,2.7,1.2,2.7,2.7
							C216.9,260.5,215.7,261.7,214.2,261.7C214.2,261.7,214.2,261.7,214.2,261.7z M214.2,257.1c-1,0.1-1.8,0.9-1.9,1.9
							c0,1,0.8,1.9,1.8,2c1,0,1.9-0.8,2-1.9V259C216,258,215.2,257.2,214.2,257.1z"/>
					</g>
				</g>
				<g id="etr1rb30h02320">
					<g id="etr1rb30h02321">
						<circle id="etr1rb30h02322" class="st9" cx="198.9" cy="259" r="2.3"/>
					</g>
					<g id="etr1rb30h02323">
						<path id="etr1rb30h02324" class="st6" d="M198.9,261.7c-1.5,0-2.7-1.2-2.7-2.7c0-1.5,1.2-2.7,2.7-2.7c1.5,0,2.7,1.2,2.7,2.7
							C201.5,260.4,200.4,261.6,198.9,261.7z M198.9,257.1c-1,0-1.9,0.9-1.9,1.9s0.9,1.9,1.9,1.9c1,0,1.9-0.9,1.9-1.9l0,0l0,0
							C200.7,258,199.9,257.2,198.9,257.1z"/>
					</g>
				</g>
			</g>
			<g id="etr1rb30h02325">
				<g id="etr1rb30h02326">
					<circle id="etr1rb30h02327" class="st9" cx="212.6" cy="242.2" r="2.3"/>
				</g>
				<g id="etr1rb30h02328">
					<path id="etr1rb30h02329" class="st6" d="M212.6,244.9c-1.5,0-2.7-1.2-2.7-2.7c0-1.5,1.2-2.7,2.7-2.7c1.5,0,2.7,1.2,2.7,2.7
						l0,0C215.3,243.7,214.1,244.9,212.6,244.9C212.6,244.9,212.6,244.9,212.6,244.9z M212.6,240.3c-1,0-1.9,0.9-1.9,1.9
						s0.9,1.9,1.9,1.9c1,0,1.9-0.9,1.9-1.9v0l0,0C214.5,241.2,213.6,240.4,212.6,240.3L212.6,240.3z"/>
				</g>
			</g>
			<g id="etr1rb30h02330">
				<g id="etr1rb30h02331">
					<circle id="etr1rb30h02332" class="st9" cx="200.7" cy="242.2" r="2.3"/>
				</g>
				<g id="etr1rb30h02333">
					<path id="etr1rb30h02334" class="st6" d="M200.7,244.9c-1.5,0-2.7-1.2-2.7-2.7c0-1.5,1.2-2.7,2.7-2.7c1.5,0,2.7,1.2,2.7,2.7
						l0,0C203.4,243.7,202.2,244.9,200.7,244.9C200.7,244.9,200.7,244.9,200.7,244.9z M200.7,240.3c-1,0.1-1.8,0.9-1.9,1.9
						c0,1,0.8,1.9,1.8,2c1,0,1.9-0.8,2-1.9l0,0v-0.1C202.5,241.2,201.7,240.4,200.7,240.3L200.7,240.3z"/>
				</g>
			</g>
			<g id="etr1rb30h02335">
				<path id="etr1rb30h02336" class="st6" d="M252.7,192.9c-0.5,0-1-0.3-1.1-0.8c-4-10.7-6.1-22.1-6-33.6c0-0.7,0.6-1.2,1.3-1.2
					s1.2,0.6,1.2,1.3c-0.1,11.1,1.9,22.2,5.8,32.6c0.2,0.6-0.1,1.3-0.7,1.6C253,192.8,252.9,192.9,252.7,192.9z"/>
			</g>
			<g id="etr1rb30h02337">
				<path id="etr1rb30h02338" class="st6" d="M160.5,192.9c-0.1,0-0.3,0-0.4-0.1c-0.6-0.2-0.9-0.9-0.7-1.5v-0.1
					c3.9-10.4,5.8-21.5,5.8-32.6c0-0.7,0.5-1.3,1.2-1.3s1.3,0.5,1.3,1.2c0.1,11.5-2,22.9-6,33.6C161.5,192.6,161,192.9,160.5,192.9z
					"/>
			</g>
			<g id="etr1rb30h02339">
				<g id="etr1rb30h02340">
					<path id="etr1rb30h02341" class="st5" d="M265.3,298.6c5.6-1.7,16.8-5.7,22.4-0.5s-3.4,22.6-15.6,27
						c-9.2,3.2-22.6,7.2-32.8,4.3c-9-2.6-35.1-10.2-35.1-10.2s5.7-24.5,17.9-33.7c0,0,25.6,15.2,27,15.6
						C252.4,302.2,261.2,299.9,265.3,298.6z"/>
				</g>
				<g id="etr1rb30h02342">
					<polygon id="etr1rb30h02343" class="st8" points="238.2,316.1 219.8,310.4 225.3,295.1 242.8,302 					"/>
				</g>
				<g id="etr1rb30h02344">
					<path id="etr1rb30h02345" class="st6" d="M247.2,331.7c-2.8,0-5.6-0.3-8.3-1.1c-8.9-2.6-34.8-10.1-35.1-10.2
						c-0.6-0.2-1-0.8-0.9-1.5c0.2-1,5.9-25,18.3-34.4c0.4-0.3,0.9-0.3,1.4-0.1c10.1,6,25.5,15,26.7,15.5c2.1,0.7,8-0.2,15.5-2.5
						c0.4-0.1,0.9-0.2,1.3-0.4c6.2-1.9,16.6-5.1,22.3,0.2c1.9,1.8,2.6,4.7,1.8,8.4c-1.5,7.4-8.8,17.4-17.9,20.6
						C265.4,328.8,255.9,331.7,247.2,331.7z M205.6,318.5c5.1,1.5,26.1,7.6,34,9.9c9.8,2.8,23-1.1,32.1-4.3
						c8.3-2.9,14.9-12,16.3-18.8c0.6-2.8,0.2-5-1.1-6.1c-4.7-4.4-14.3-1.4-20,0.3c-0.5,0.1-0.9,0.3-1.3,0.4l0,0
						c-5.9,1.8-13.6,3.6-17,2.5c-1.3-0.4-19.7-11.3-26.5-15.3C212.3,295.1,206.9,313.6,205.6,318.5z"/>
				</g>
				<g id="etr1rb30h02346">
					<path id="etr1rb30h02347" class="st6" d="M244.5,331.6c-0.2,0-0.5-0.1-0.7-0.2c-0.3-0.2-0.5-0.5-0.5-0.9
						c-0.1-0.9-0.8-9.1,2.7-12.6s17.1-5.8,18.7-6.1c0.7-0.1,1.3,0.3,1.4,1c0.1,0.6-0.2,1.2-0.8,1.4h-0.2c-4,0.7-15,3-17.4,5.4
						c-1.9,1.9-2.2,6.4-2.1,9.1c3.7-1.1,13.9-4.2,21.9-8.1c13.7-6.7,19-22.7,19.1-22.8c0.2-0.6,0.9-1,1.5-0.8s1,0.9,0.8,1.5l0,0l0,0
						c-0.2,0.7-5.7,17.1-20.3,24.3c-7.7,3.6-15.6,6.5-23.8,8.7C244.7,331.6,244.6,331.6,244.5,331.6z"/>
				</g>
				<g id="etr1rb30h02348">
					<path id="etr1rb30h02349" class="st6" d="M266.1,323.9c-0.5,0-1-0.3-1.2-0.8c-2.2-6.6-1.7-13.7,1.4-19.9
						c1.3-2.8,3.2-5.3,5.4-7.5c0.5-0.4,1.3-0.4,1.7,0.1c0.4,0.5,0.4,1.3-0.1,1.7l0,0c-2,2-3.7,4.3-4.9,6.9c-2.8,5.6-3.2,12-1.2,17.9
						c0.2,0.6-0.1,1.3-0.7,1.5h-0.1C266.3,323.8,266.2,323.9,266.1,323.9z"/>
				</g>
				<g id="etr1rb30h02350">
					<path id="etr1rb30h02351" class="st6" d="M246.8,320c-0.1,0-0.3,0-0.4-0.1L207.7,308c-0.6-0.2-1-0.9-0.8-1.5
						c0.2-0.6,0.9-1,1.5-0.8l38.7,11.9c0.6,0.2,1,0.9,0.8,1.5C247.8,319.6,247.3,320,246.8,320z"/>
				</g>
				<g id="etr1rb30h02352">
					<path id="etr1rb30h02353" class="st6" d="M250.1,306c-1.2,0-2-0.4-2.3-1.2c-0.7-1.5,0.8-3.3,1.8-4.3c0.5-0.5,1.2-0.5,1.7,0
						c0.5,0.5,0.5,1.2,0,1.7c-0.4,0.4-0.7,0.8-1,1.3h0.1c10.1-0.8,16.9-4.4,18.1-5.3c0.2-0.4,0.7-0.7,1.2-0.6
						c0.6,0.1,1.1,0.7,1.1,1.3c0,0.7-0.5,1.1-2,2c-0.8,0.4-2.1,1.1-4.1,1.9c-4.6,1.7-9.3,2.8-14.2,3.2H250.1z"/>
				</g>
				<g id="etr1rb30h02354">
					<path id="etr1rb30h02355" class="st6" d="M249.3,305.9c-0.2,0-0.3,0-0.5-0.1l-33-13.2c-0.6-0.2-0.9-1-0.7-1.6
						c0.2-0.6,1-0.9,1.6-0.7l33,13.2c0.6,0.3,0.9,1,0.7,1.6C250.3,305.6,249.8,305.9,249.3,305.9z"/>
				</g>
				<g id="etr1rb30h02356">
					<path id="etr1rb30h02357" class="st6" d="M238.2,317.3h-0.3c-0.6-0.2-1-0.8-0.8-1.4c0,0,0,0,0,0v-0.1l4-14.3
						c0.2-0.6,0.9-1,1.5-0.8c0.6,0.2,1,0.9,0.8,1.5l0,0l-4,14.3C239.2,317,238.7,317.3,238.2,317.3z"/>
				</g>
				<g id="etr1rb30h02358">
					<path id="etr1rb30h02359" class="st6" d="M231.9,315.5c-0.1,0-0.3,0-0.4-0.1c-0.6-0.2-1-0.9-0.8-1.5l4.5-14.7
						c0.2-0.6,0.9-1,1.5-0.8c0.6,0.2,1,0.9,0.8,1.5l0,0l0,0l-4.5,14.7C232.9,315.1,232.4,315.5,231.9,315.5z"/>
				</g>
				<g id="etr1rb30h02360">
					<path id="etr1rb30h02361" class="st6" d="M225.4,313.3c-0.1,0-0.3,0-0.4-0.1c-0.6-0.2-1-0.9-0.8-1.6l5.2-14.9
						c0.2-0.7,0.9-1,1.6-0.8c0.7,0.2,1,0.9,0.8,1.6l0,0l0,0l-5.2,15C226.4,313,225.9,313.3,225.4,313.3z"/>
				</g>
				<g id="etr1rb30h02362">
					<path id="etr1rb30h02363" class="st6" d="M219.8,311.6c-0.1,0-0.3,0-0.4-0.1c-0.6-0.2-0.9-0.9-0.7-1.5v-0.1l5.5-15.4
						c0.2-0.6,1-0.9,1.6-0.7c0.6,0.2,0.9,1,0.7,1.6l0,0l-5.5,15.4C220.8,311.3,220.3,311.6,219.8,311.6z"/>
				</g>
			</g>
			<g id="etr1rb30h02364">
				<path id="etr1rb30h02365" class="st5" d="M362.2,180.4c-0.2-1.5-1-2.9-2.1-4c0-1-0.2-2-0.6-3c-1.4-3.4-3.4-4.5-4.9-4.2l-0.1-0.4
					c-4.1-6.9-9.6-2.5-5.9,2.8c2.2,3.1-2.3,8.2-4.4,10.2l-0.1-0.1c0.7-1,1.2-7.5-4.6-7.7s-11.4,5.1-10.2,7.5s8.3-3,8.3-0.9
					s0.3,8.6-5.3,9.6s-4.9-3.5-3.5-5.5s-2.7-6.5-7-0.2c-2.2,3-2.5,7-0.9,10.3l0,0c0,0-12,6.1-15,8.2s-1.7,4.7-0.4,7.9
					c3,7.4,17.9,20,21.5,16.7c2.3-2.1,10.6-18.7,10.6-18.7l-0.4-0.3c10-2.2,18.3-14.8,18.3-14.8
					C359.1,189.7,363.1,184.6,362.2,180.4z"/>
			</g>
			<g id="etr1rb30h02366">
				<path id="etr1rb30h02367" class="st5" d="M206.4,276.7c-13-9.1-31.8-21.7-42.6-26.3c-20.7-8.8-46.5-9.1-49.9,19.3
					c-1.3,10.6,7,19.1,18.9,26l30,14l43.6-16V276.7z"/>
			</g>
			<g id="etr1rb30h02368">
				<g id="etr1rb30h02369">
					<path id="etr1rb30h02370" class="st8" d="M184.8,262.2c-11.1,13-18.7,28.7-22,45.5l-11.8-3.9c5.5-30.9,22.8-48.3,22.8-48.3
						L184.8,262.2z"/>
				</g>
			</g>
			<g id="etr1rb30h02371">
				<g id="etr1rb30h02372">
					<path id="etr1rb30h02373" class="st6" d="M162.8,308.9h-0.2c-0.6-0.1-1.1-0.7-1-1.3c0,0,0-0.1,0-0.1
						c2.3-11.9,6.7-23.2,13.1-33.5c2.7-4.5,5.8-8.7,9.2-12.6c0.4-0.5,1.2-0.5,1.7-0.1c0.5,0.4,0.5,1.2,0.1,1.7l0,0
						c-11,12.9-18.4,28.3-21.7,44.9C163.9,308.5,163.4,308.9,162.8,308.9z"/>
				</g>
				<g id="etr1rb30h02374">
					<path id="etr1rb30h02375" class="st6" d="M151,305h-0.2c-0.6-0.1-1.1-0.7-1-1.3c0,0,0-0.1,0-0.1c2.3-12.8,6.9-25,13.6-36.1
						c2.7-4.6,5.9-8.9,9.5-12.8c0.5-0.5,1.2-0.5,1.7,0s0.5,1.2,0,1.7l0,0c-0.2,0.2-17.2,17.5-22.5,47.7
						C152.1,304.6,151.6,305.1,151,305C151,305,151,305,151,305z"/>
				</g>
			</g>
			<g id="etr1rb30h02376">
				<path id="etr1rb30h02377" class="st5" d="M192.8,286.8c0,0,39-29,56.7-36.5c20.7-8.8,46.5-9.1,49.9,19.3
					c4,34-90.4,47.6-90.4,47.6L192.8,286.8z"/>
			</g>
			<g id="etr1rb30h02378">
				<g id="etr1rb30h02379">
					<path id="etr1rb30h02380" class="st8" d="M228,262.5c11.1,13,18.7,28.7,22,45.5l11.8-3.9c-5.5-30.9-22.8-48.3-22.8-48.3
						L228,262.5z"/>
				</g>
			</g>
			<g id="etr1rb30h02381">
				<path id="etr1rb30h02382" class="st6" d="M209.1,318.5c-0.6,0-1.1-0.5-1.2-1.1c-0.1-0.6,0.3-1.3,0.9-1.4c0,0,0.1,0,0.1,0
					c15.8-2.5,31.3-6.1,46.5-11c13.3-4.4,23.7-9.3,30.9-14.6c8.8-6.4,12.8-13.4,11.9-20.6c-1.1-9.6-5-16.4-11.4-20.1
					c-8.7-5.1-22.2-4.4-36.8,1.8c-17.3,7.3-56.1,36.1-56.5,36.4c-0.6,0.4-1.3,0.3-1.7-0.3c-0.4-0.6-0.3-1.3,0.3-1.7l0,0
					c1.6-1.2,39.4-29.2,57-36.6c15.4-6.5,29.6-7.1,39-1.7c7.1,4.1,11.4,11.5,12.6,21.9c1,8.2-3.4,15.9-12.9,22.9
					c-7.4,5.4-18.1,10.5-31.6,14.9c-22.9,7.6-46.7,11-46.9,11.1S209.2,318.4,209.1,318.5z"/>
			</g>
			<g id="etr1rb30h02383">
				<path id="etr1rb30h02384" class="st6" d="M132.8,296.8c-0.2,0-0.4-0.1-0.6-0.2c-14.1-8.1-20.7-17.2-19.5-27.2
					c1.2-10.4,5.5-17.8,12.6-21.9c9.4-5.5,23.6-4.9,39,1.7c10.8,4.6,29.2,16.9,42.8,26.4c0.6,0.4,0.7,1.1,0.3,1.7
					c-0.4,0.6-1.1,0.7-1.7,0.3l0,0l0,0c-13.5-9.5-31.8-21.7-42.3-26.2c-14.7-6.2-28.1-6.9-36.8-1.8c-6.4,3.7-10.3,10.5-11.4,20.1
					c-1.1,8.9,5.1,17.2,18.3,24.7c0.6,0.3,0.8,1.1,0.5,1.7C133.7,296.5,133.3,296.8,132.8,296.8z"/>
			</g>
			<g id="etr1rb30h02385">
				<g id="etr1rb30h02386">
					<path id="etr1rb30h02387" class="st6" d="M347.7,185.5c-0.4,0-0.7-0.2-0.9-0.5c-0.4-0.5-0.3-1.2,0.1-1.7
						c0.2-0.2,0.4-0.3,0.7-0.4c1-0.6,3.7-2.8,4.5-5c0.3-0.7,0.3-1.5-0.1-2.2c-1.2-1.9-1.2-4.3-0.1-6.3c0.8-1.1,2.1-1.7,3.4-1.6
						c2,0.2,3.9,2,5.1,5c0.5,1.1,0.7,2.3,0.7,3.5c0,0.6-0.5,1.1-1.1,1.2h-0.1c-0.6,0-1.1-0.5-1.2-1.1v-0.1c0-0.9-0.2-1.8-0.5-2.6
						c-1-2.4-2.2-3.4-3.1-3.5c-0.4-0.1-0.9,0.1-1.1,0.5c-0.5,0.7-0.6,2,0.3,3.7c2.1,4.1-2.3,8.4-5.2,10.3
						C348.8,185.2,348.3,185.5,347.7,185.5z"/>
				</g>
				<g id="etr1rb30h02388">
					<path id="etr1rb30h02389" class="st6" d="M344.4,182.5c-0.3,0-0.6-0.1-0.8-0.3c-0.5-0.5-0.5-1.2-0.1-1.7
						c0.2-0.2,0.4-0.4,0.7-0.5c0.9-0.8,3.3-3.3,3.8-5.7c0.2-0.7,0-1.5-0.4-2.1c-1.5-2.1-1.9-4.4-1-6.2c0.6-1.2,1.8-2.1,3.2-2.1
						c2-0.1,4.1,1.4,5.7,4.2c0.4,0.6,0.2,1.3-0.4,1.7c-0.6,0.4-1.3,0.2-1.7-0.4l0,0c-1.3-2.2-2.7-3-3.5-3c-0.5,0-0.9,0.3-1.1,0.7
						c-0.4,0.7-0.3,2.1,0.8,3.7c2.6,3.7-1.1,8.7-3.7,11C345.5,182.2,345,182.4,344.4,182.5z"/>
				</g>
				<g id="etr1rb30h02390">
					<path id="etr1rb30h02391" class="st6" d="M322.1,197.8c-0.3,0-0.7-0.1-0.9-0.4c-3.3-3.9-3.5-9.6-0.5-13.8
						c2.3-3.5,4.7-3.8,5.9-3.7c0.4,0,0.8,0.1,1.2,0.3c0.1-0.7,0.4-1.5,0.8-2.1c2.5-3.5,6.5-5.5,10.8-5.4c2.4-0.1,4.5,1.3,5.5,3.4
						c1.1,2.4,0.8,5.3,0.1,6.3c-0.4,0.6-1.1,0.7-1.7,0.3c-0.6-0.4-0.7-1.1-0.3-1.7l0,0c0.4-1.4,0.2-2.8-0.4-4.1
						c-0.7-1.1-1.9-1.8-3.2-1.7c-3.4,0-6.6,1.6-8.6,4.3c-0.3,0.4-0.5,0.8-0.5,1.3c1.2-0.2,2.4-0.5,3.5-1c1.9-0.8,3.2-1.3,4.2-0.7
						c0.5,0.3,0.7,0.8,0.7,1.4v0.3c0,2.3,0.1,9.4-6.3,10.4c-3.3,0.6-4.7-0.6-5.4-1.6c-1.1-1.7-0.5-4.3,0.7-5.8
						c0.1-0.2,0.1-0.4,0-0.6c-0.3-0.5-0.7-0.8-1.3-0.9c-1.1-0.1-2.4,0.9-3.6,2.7c-2.4,3.2-2.3,7.7,0.3,10.8c0.4,0.5,0.4,1.2-0.1,1.7
						C322.7,197.7,322.4,197.8,322.1,197.8z M330.2,183.2c0.1,0.7-0.1,1.4-0.5,2c-0.6,0.9-1,2.4-0.6,3.1s2,0.6,2.9,0.5
						c3.6-0.6,4.2-4,4.3-7.5c-0.5,0.2-1.1,0.4-1.6,0.6C333.3,182.6,331.8,183,330.2,183.2z"/>
				</g>
				<g id="etr1rb30h02392">
					<path id="etr1rb30h02393" class="st6" d="M334.4,209.8c-1.1,0-2.2-0.1-3.2-0.4c-0.7-0.2-1-0.9-0.8-1.6c0.2-0.6,0.8-0.9,1.4-0.8
						c11.3,2.8,22.5-14.1,22.6-14.3s0.1-0.1,0.1-0.2c1.8-1.9,7.3-7.8,6.4-12c-0.5-2.3-1.5-3.4-2.2-3.6c-0.4-0.1-0.7,0-1,0.3
						c-0.5,0.5-0.8,1.7-0.3,3.4c1.3,4.1-3.4,7.4-6.4,8.7c-0.5,0.2-1.7,0.7-2.3-0.3c-0.3-0.6-0.1-1.3,0.4-1.7
						c0.2-0.2,0.5-0.2,0.8-0.2c1-0.4,3.8-1.9,4.9-3.8c0.4-0.6,0.5-1.3,0.3-1.9c-0.7-2.3-0.4-4.5,0.9-5.8c0.9-0.9,2.3-1.3,3.5-0.9
						c1.9,0.5,3.3,2.5,4,5.4c1.1,4.9-3.4,10.4-6.9,14.2C355.5,195.7,345.8,209.8,334.4,209.8z"/>
				</g>
				<g id="etr1rb30h02394">
					<path id="etr1rb30h02395" class="st6" d="M330,200.6c-0.2,0-0.4-0.1-0.5-0.2c-0.3-0.2-0.3-0.6-0.1-0.9c0,0,0,0,0,0l0.1-0.1
						c0.2-0.2,5.6-5.2,12-4.1c0.4,0,0.6,0.4,0.6,0.8s-0.4,0.6-0.8,0.6h-0.1c-5.8-1.1-10.8,3.7-10.8,3.7
						C330.3,200.5,330.2,200.6,330,200.6z"/>
				</g>
			</g>
			<g id="etr1rb30h02396">
				<path id="etr1rb30h02397" class="st6" d="M325.4,229c-0.5,0-1-0.1-1.5-0.2c-6-1.4-17-11.3-19.6-17.8l-0.3-0.6
					c-1.2-2.9-2.5-6.1,1.1-8.7c3.1-2.2,14.7-8.1,15.2-8.3l1.1,2.2c-0.1,0.1-11.9,6-14.8,8.1c-1.9,1.3-1.6,2.6-0.3,5.8l0.3,0.6
					c2.4,5.8,12.6,15.1,17.9,16.3c0.6,0.2,1.2,0.1,1.7-0.1c1.5-1.4,7.2-12,10.3-18.3l2.2,1.1c-0.9,1.7-8.5,16.9-10.9,19
					C327.2,228.8,326.3,229.1,325.4,229z"/>
			</g>
			<g id="etr1rb30h02398">
				<path id="etr1rb30h02399" class="st5" d="M107.3,202.7c-3.1-2.2-15-8.2-15-8.2l0,0c1.7-3.3,1.3-7.3-0.9-10.3
					c-4.2-6.3-8.4-1.8-7,0.2s2.1,6.5-3.5,5.5s-5.3-7.4-5.3-9.6s7.1,3.2,8.3,0.9s-4.4-7.7-10.2-7.5s-5.4,6.7-4.6,7.7l-0.1,0.1
					c-2.1-2-6.6-7.1-4.4-10.2c3.7-5.2-1.8-9.7-5.9-2.8l-0.1,0.4c-1.5-0.4-3.5,0.7-4.9,4.2c-0.4,1-0.6,2-0.6,3c-1.2,1-1.9,2.5-2.1,4
					c-0.9,4.2,3,9.3,6.7,13.1c0,0,8.3,12.6,18.3,14.8l-0.4,0.3c0,0,8.3,16.6,10.6,18.7c3.7,3.3,18.5-9.3,21.5-16.7
					C109,207.4,110.4,204.8,107.3,202.7z"/>
			</g>
			<g id="etr1rb30h02400">
				<g id="etr1rb30h02401">
					<path id="etr1rb30h02402" class="st6" d="M65.5,185.4c-0.5,0-1-0.2-1.4-0.6c-2.9-1.9-7.3-6.2-5.2-10.3c0.9-1.8,0.7-3.1,0.3-3.7
						c-0.2-0.4-0.7-0.6-1.1-0.5c-0.8,0.1-2.1,1-3.1,3.5c-0.3,0.8-0.5,1.7-0.5,2.6c0,0.7-0.5,1.2-1.2,1.2s-1.2-0.5-1.2-1.2l0,0
						c0-1.2,0.3-2.4,0.7-3.5c1.2-2.9,3.1-4.7,5.1-5c1.3-0.2,2.7,0.5,3.4,1.6c1.1,1.6,1.1,3.9-0.1,6.3c-0.3,0.7-0.4,1.5-0.1,2.2
						c0.8,2.3,3.5,4.4,4.5,5c0.3,0,0.5,0.2,0.7,0.4c0.5,0.4,0.6,1.1,0.2,1.6c0,0,0,0,0,0l-0.1,0.1C66.1,185.3,65.8,185.4,65.5,185.4
						z"/>
				</g>
				<g id="etr1rb30h02403">
					<path id="etr1rb30h02404" class="st6" d="M68.8,182.4c-0.6-0.1-1.1-0.4-1.4-0.8c-2.6-2.3-6.4-7.2-3.7-11
						c1.1-1.6,1.2-2.9,0.8-3.7c-0.2-0.4-0.6-0.7-1.1-0.7c-0.8,0-2.2,0.7-3.5,3c-0.4,0.6-1.1,0.8-1.7,0.4c-0.6-0.4-0.8-1.1-0.4-1.7
						l0,0l0,0c1.6-2.7,3.7-4.2,5.7-4.2c1.4,0,2.6,0.8,3.2,2.1c0.9,1.8,0.5,4.1-1,6.2c-0.4,0.6-0.5,1.4-0.4,2.1
						c0.5,2.4,2.9,4.9,3.8,5.7c0.3,0.1,0.5,0.2,0.7,0.5c0.4,0.5,0.4,1.2-0.1,1.7l0,0C69.5,182.3,69.2,182.4,68.8,182.4z"/>
				</g>
				<g id="etr1rb30h02405">
					<path id="etr1rb30h02406" class="st6" d="M91.1,197.7c-0.7,0-1.2-0.5-1.2-1.2c0-0.2,0.1-0.5,0.2-0.7c0-0.1,0-0.1,0.1-0.1
						c0,0,0,0,0,0c2.5-3.1,2.7-7.5,0.3-10.8c-1.2-1.8-2.5-2.8-3.6-2.7c-0.6,0.1-1,0.4-1.3,0.9c-0.1,0.2-0.1,0.4,0,0.6
						c1.2,1.6,1.8,4.1,0.7,5.8c-0.6,1-2.1,2.2-5.4,1.6c-6.4-1.1-6.3-8.1-6.3-10.4v-0.3c0-0.6,0.2-1.1,0.7-1.4c1-0.7,2.3-0.1,4.2,0.7
						c0.9,0.4,2.9,1.2,3.5,1c0.1-0.2-0.1-0.7-0.5-1.3c-2-2.7-5.2-4.3-8.6-4.3c-1.3-0.1-2.5,0.6-3.2,1.7c-0.7,1.3-0.8,2.7-0.4,4.1
						c0.4,0.6,0.3,1.3-0.3,1.7s-1.3,0.3-1.7-0.3l0,0c-0.7-1-1.1-3.9,0.1-6.3c0.7-1.5,2.2-3.2,5.5-3.4c4.3,0,8.3,2,10.8,5.4
						c0.4,0.6,0.7,1.3,0.8,2.1c0.4-0.2,0.8-0.3,1.2-0.3c1.2-0.1,3.5,0.3,5.9,3.7c3,4.2,2.8,9.9-0.5,13.8
						C91.8,197.5,91.5,197.7,91.1,197.7z M76.9,181.2c0,3.4,0.7,6.9,4.3,7.5c0.9,0.1,2.4,0.3,2.9-0.5s0.1-2.2-0.6-3.1
						c-0.4-0.6-0.6-1.3-0.5-2c-1.6-0.1-3.1-0.5-4.5-1.2C78,181.6,77.5,181.4,76.9,181.2z"/>
				</g>
				<g id="etr1rb30h02407">
					<path id="etr1rb30h02408" class="st6" d="M78.8,209.7c-11.3,0-21.1-14.1-22.1-15.6c-3.5-3.7-8-9.2-6.9-14.2
						c0.6-2.9,2.1-4.9,4-5.4c1.2-0.4,2.6,0,3.5,0.9c1.3,1.3,1.6,3.5,0.9,5.8c-0.2,0.6-0.1,1.3,0.3,1.9c1.1,1.9,3.9,3.4,4.9,3.8
						c0.3,0,0.5,0.1,0.8,0.2c0.6,0.3,0.8,1,0.5,1.6c0,0,0,0.1-0.1,0.1l0,0c-0.6,1-1.7,0.5-2.3,0.3c-3-1.3-7.7-4.6-6.4-8.7
						c0.5-1.7,0.2-2.9-0.3-3.4c-0.3-0.3-0.6-0.4-1-0.3c-0.7,0.2-1.7,1.3-2.2,3.6c-0.9,4.3,4.5,10.1,6.4,12c0,0.1,0.1,0.1,0.1,0.2
						s11.4,17,22.6,14.3c0.6-0.1,1.3,0.3,1.4,0.9c0,0,0,0.1,0,0.1c0.1,0.6-0.2,1.2-0.8,1.4C81,209.5,79.9,209.7,78.8,209.7z"/>
				</g>
				<g id="etr1rb30h02409">
					<path id="etr1rb30h02410" class="st6" d="M83.2,200.5c-0.2,0-0.3-0.1-0.5-0.2l0,0c0,0-5.1-4.8-10.8-3.7c-0.4,0-0.7-0.2-0.8-0.6
						c0-0.3,0.2-0.6,0.5-0.7c6.5-1.2,11.8,3.8,12,4.1c0.3,0.2,0.3,0.6,0.1,0.9c0,0,0,0,0,0l-0.1,0.1
						C83.5,200.5,83.4,200.5,83.2,200.5z"/>
				</g>
			</g>
			<g id="etr1rb30h02411">
				<path id="etr1rb30h02412" class="st6" d="M87.8,228.9c-0.9,0-1.7-0.3-2.4-0.9c-2.4-2.2-10-17.3-10.9-19l2.2-1.1
					c3.2,6.3,8.8,16.9,10.3,18.3c0.5,0.2,1.1,0.3,1.7,0.1c5.3-1.2,15.5-10.5,17.9-16.3l0.3-0.6c1.3-3.2,1.6-4.4-0.3-5.8
					c-2.9-2.1-14.7-8.1-14.8-8.1l1.1-2.2c0.5,0.2,12.1,6.1,15.2,8.3c3.6,2.6,2.3,5.8,1.1,8.7l-0.3,0.6c-2.6,6.4-13.6,16.4-19.6,17.8
					C88.8,228.9,88.3,228.9,87.8,228.9z"/>
			</g>
			<g id="etr1rb30h02413">
				<g id="etr1rb30h02414">
					<path id="etr1rb30h02415" class="st5" d="M147.9,298.6c-5.6-1.7-16.8-5.7-22.4-0.5c-5.6,5.2,3.4,22.6,15.6,27
						c9.2,3.2,22.6,7.2,32.8,4.3c9-2.6,35.1-10.2,35.1-10.2s-5.7-24.5-17.9-33.7c0,0-25.6,15.2-27,15.6
						C160.8,302.2,152,299.9,147.9,298.6z"/>
				</g>
				<g id="etr1rb30h02416">
					<polygon id="etr1rb30h02417" class="st9" points="175.1,316.1 193.4,310.4 187.9,295.1 170.5,302 					"/>
				</g>
				<g id="etr1rb30h02418">
					<path id="etr1rb30h02419" class="st6" d="M166,331.7c-8.7,0-18.2-2.9-25.3-5.4c-9.1-3.2-16.3-13.2-17.9-20.6
						c-0.8-3.7-0.1-6.6,1.8-8.4c5.8-5.3,16.1-2.1,22.3-0.2c0.4,0.1,0.9,0.3,1.3,0.4l0,0c7.6,2.3,13.4,3.2,15.6,2.5
						c1.2-0.5,16.6-9.5,26.7-15.5c0.4-0.3,1-0.2,1.4,0.1C204.3,294,210,318,210.2,319c0.1,0.7-0.3,1.3-0.9,1.5
						c-0.3,0.1-26.2,7.6-35.1,10.2C171.5,331.4,168.8,331.7,166,331.7z M133.4,296.8c-2.7,0-5.3,0.6-7.1,2.3
						c-1.3,1.2-1.6,3.3-1.1,6.1c1.4,6.8,8,15.9,16.3,18.8c9.1,3.2,22.3,7.1,32.1,4.3c7.8-2.3,28.8-8.4,34-9.9
						c-1.3-4.8-6.7-23.3-16.5-31.4c-6.7,4-25.1,14.9-26.5,15.3c-3.5,1.2-11.2-0.7-17-2.5l0,0c-0.4-0.1-0.8-0.3-1.3-0.4
						C142.8,298.3,137.8,296.8,133.4,296.8L133.4,296.8z"/>
				</g>
				<g id="etr1rb30h02420">
					<path id="etr1rb30h02421" class="st6" d="M168.8,331.6h-0.3c-8.2-2.2-16.1-5.2-23.8-8.7c-14.6-7.1-20.1-23.6-20.3-24.3
						c-0.2-0.6,0.2-1.3,0.8-1.5s1.3,0.2,1.5,0.8c0.1,0.2,5.4,16.2,19.1,22.8c8,3.9,18.2,7,21.9,8.1c0.1-2.7-0.2-7.2-2.1-9.1
						c-2.4-2.4-13.4-4.7-17.4-5.4c-0.6-0.1-1.1-0.7-0.9-1.4c0,0,0-0.1,0-0.1c0.1-0.6,0.7-1,1.3-0.9c1.6,0.3,15.3,2.7,18.7,6.1
						s2.8,11.7,2.7,12.6c0,0.4-0.2,0.7-0.5,0.9C169.2,331.5,169,331.6,168.8,331.6z"/>
				</g>
				<g id="etr1rb30h02422">
					<path id="etr1rb30h02423" class="st6" d="M147.1,323.9c-0.1,0-0.3,0-0.4-0.1c-0.6-0.2-1-0.9-0.8-1.5c2-5.9,1.6-12.3-1.2-17.9
						c-1.3-2.5-2.9-4.9-4.9-6.9c-0.5-0.4-0.5-1.2-0.1-1.7c0.4-0.5,1.2-0.5,1.7-0.1l0,0l0,0c2.2,2.2,4.1,4.7,5.4,7.5
						c3.1,6.2,3.6,13.3,1.4,19.9C148.1,323.6,147.6,323.9,147.1,323.9z"/>
				</g>
				<g id="etr1rb30h02424">
					<path id="etr1rb30h02425" class="st6" d="M166.4,320c-0.7,0-1.2-0.5-1.3-1.2c0-0.6,0.4-1,0.9-1.2c0.3-0.1,32.5-10.1,38.7-11.9
						c0.6-0.2,1.3,0.2,1.5,0.8l0,0c0.2,0.6-0.2,1.3-0.8,1.5c-6.2,1.8-38.3,11.8-38.7,11.9C166.6,319.9,166.5,320,166.4,320z"/>
				</g>
				<g id="etr1rb30h02426">
					<path id="etr1rb30h02427" class="st6" d="M163.2,306h-0.5c-4.9-0.4-9.6-1.5-14.2-3.2c-1.4-0.5-2.8-1.1-4.1-1.9
						c-1.5-0.9-2-1.3-2-2c0-0.6,0.5-1.2,1.1-1.3c0.5-0.1,1,0.2,1.2,0.6c1.2,0.9,8.1,4.5,18.1,5.3h0.1c-0.3-0.5-0.6-0.9-1-1.3
						c-0.5-0.5-0.5-1.2,0-1.7c0.5-0.5,1.2-0.5,1.7,0l0,0c1,1,2.5,2.8,1.8,4.3C165,305.6,164.1,306.1,163.2,306z"/>
				</g>
				<g id="etr1rb30h02428">
					<path id="etr1rb30h02429" class="st6" d="M164,305.9c-0.5,0-0.9-0.3-1.1-0.8c-0.2-0.6,0.1-1.3,0.7-1.6l33-13.2
						c0.6-0.2,1.4,0.1,1.6,0.7c0.2,0.6-0.1,1.4-0.7,1.6l-33,13.2C164.3,305.8,164.2,305.9,164,305.9z"/>
				</g>
				<g id="etr1rb30h02430">
					<path id="etr1rb30h02431" class="st6" d="M175.1,317.3c-0.5,0-1-0.4-1.2-0.9l-4-14.3c-0.2-0.6,0.2-1.3,0.8-1.5
						c0.6-0.2,1.3,0.2,1.5,0.8l0,0l4,14.3c0.2,0.6-0.2,1.3-0.8,1.5l0,0C175.3,317.3,175.2,317.3,175.1,317.3z"/>
				</g>
				<g id="etr1rb30h02432">
					<path id="etr1rb30h02433" class="st6" d="M181.3,315.5c-0.6,0-1-0.4-1.2-0.9l-4.5-14.7c-0.2-0.6,0.2-1.3,0.8-1.5
						c0.6-0.2,1.3,0.2,1.5,0.8l4.5,14.7c0.2,0.6-0.2,1.3-0.8,1.5C181.5,315.4,181.4,315.5,181.3,315.5z"/>
				</g>
				<g id="etr1rb30h02434">
					<path id="etr1rb30h02435" class="st6" d="M187.8,313.3c-0.5,0-1-0.3-1.2-0.8l-5.2-14.9c-0.2-0.7,0.1-1.4,0.8-1.6
						c0.7-0.2,1.4,0.1,1.6,0.8l5.2,14.9c0.2,0.7-0.2,1.4-0.8,1.6L187.8,313.3z"/>
				</g>
				<g id="etr1rb30h02436">
					<path id="etr1rb30h02437" class="st6" d="M193.4,311.6c-0.5,0-1-0.3-1.2-0.8l-5.5-15.3c-0.2-0.6,0.1-1.4,0.7-1.6
						c0.6-0.2,1.4,0.1,1.6,0.7l0,0l5.5,15.4c0.2,0.6-0.1,1.3-0.7,1.6L193.4,311.6z"/>
				</g>
			</g>
			<g id="etr1rb30h02438">
				<g id="etr1rb30h02439">
					<path id="etr1rb30h02440" class="st6" d="M250,309.2c-0.6,0-1.1-0.4-1.2-1c-3.3-16.6-10.8-32-21.7-44.9
						c-0.4-0.5-0.4-1.3,0.1-1.7c0.5-0.4,1.3-0.4,1.7,0.1l0,0c3.5,3.9,6.5,8.1,9.2,12.6c6.3,10.3,10.8,21.6,13.1,33.5
						c0.1,0.6-0.3,1.2-0.9,1.4H250z"/>
				</g>
				<g id="etr1rb30h02441">
					<path id="etr1rb30h02442" class="st6" d="M261.9,305.3c-0.6,0-1.1-0.4-1.2-1c-5.3-30.1-22.3-47.5-22.5-47.7
						c-0.5-0.5-0.5-1.2,0-1.7s1.2-0.5,1.7,0c3.6,3.9,6.8,8.2,9.5,12.8c6.7,11.1,11.4,23.4,13.6,36.2c0.1,0.6-0.3,1.2-0.9,1.4H261.9z
						"/>
				</g>
			</g>
			<g id="etr1rb30h02443">
				<path id="etr1rb30h02444" class="st6" d="M288.3,208.6c-2.6,0.1-5.1-0.2-7.6-1c-0.4-0.2-0.7-0.6-0.7-1
					c-1.1-7.2-3.2-14.2-6.2-20.8c-4.4-9.8-12.7-22.3-27.3-26l0.6-2.4c7,1.9,13.3,5.7,18.2,11c4.4,4.8,8.1,10.4,10.7,16.4
					c3,6.6,5.1,13.6,6.3,20.7c4.9,1.5,17-0.1,21.5-0.9l0.4,2.4C299,207.9,293.6,208.5,288.3,208.6z"/>
			</g>
			<g id="etr1rb30h02445">
				<path id="etr1rb30h02446" class="st6" d="M287.8,241.6c-1.3,0-2.7-0.1-4.1-0.2c-10.9-1.1-20.5-6.8-28.4-16.8l1.9-1.5
					c7.5,9.5,16.5,14.8,26.8,15.9c19.7,2.1,37.7-12.6,37.8-12.7l1.6,1.9c-3.7,2.9-7.7,5.4-11.9,7.5
					C305.6,238.4,297.1,241.6,287.8,241.6z"/>
			</g>
			<g id="etr1rb30h02447">
				<g id="etr1rb30h02448">
					<path id="etr1rb30h02449" class="st6" d="M274.8,238.5l-1.9-1.6c7.6-8.8,8.9-30.4,8.9-30.6l2.5,0.1
						C284.3,207.4,283,229.1,274.8,238.5z"/>
				</g>
				<g id="etr1rb30h02450">
					<path id="etr1rb30h02451" class="st6" d="M259.2,226.4l-1.4-2c8.2-6.1,15.5-13.3,21.7-21.4l2,1.4
						C275.2,212.8,267.6,220.2,259.2,226.4z"/>
				</g>
			</g>
			<g id="etr1rb30h02452">
				<path id="etr1rb30h02453" class="st6" d="M124.9,208.5c-5.3-0.1-10.6-0.6-15.9-1.5l0.4-2.4c4.5,0.8,16.7,2.4,21.5,0.9
					c1.2-7.1,3.3-14.1,6.3-20.7c2.6-6,6.2-11.5,10.7-16.3c4.9-5.3,11.2-9.1,18.2-11l0.6,2.4c-14.5,3.7-22.9,16.2-27.3,26
					c-3,6.6-5.1,13.6-6.2,20.8c-0.1,0.4-0.3,0.8-0.7,1C130,208.3,127.5,208.6,124.9,208.5z"/>
			</g>
			<g id="etr1rb30h02454">
				<path id="etr1rb30h02455" class="st6" d="M125.4,241.5c-9.3,0-17.8-3.2-23.6-6c-4.3-2-8.3-4.5-11.9-7.5l1.6-1.9
					c0.2,0.1,18.1,14.8,37.8,12.7c10.2-1.1,19.2-6.4,26.8-15.9l1.9,1.5c-8,10-17.5,15.7-28.4,16.8
					C128.2,241.4,126.8,241.5,125.4,241.5z"/>
			</g>
			<g id="etr1rb30h02456">
				<g id="etr1rb30h02457">
					<path id="etr1rb30h02458" class="st6" d="M138.4,238.4c-8.1-9.4-9.4-31.1-9.5-32.1l2.5-0.1c0,0.2,1.3,21.8,8.9,30.6
						L138.4,238.4z"/>
				</g>
				<g id="etr1rb30h02459">
					<path id="etr1rb30h02460" class="st6" d="M154,226.3c-8.4-6.2-15.9-13.6-22.3-21.9l2-1.4c6.2,8.1,13.5,15.3,21.7,21.4
						L154,226.3z"/>
				</g>
			</g>
			<g id="etr1rb30h02461">
				<path id="etr1rb30h02462" class="st12" d="M212.1,186l2.3,4.5l-1.7,7.3l-4.1-3.3l0.7-5.4L212.1,186z"/>
				<path id="etr1rb30h02463" class="st13" d="M206,184.5c-0.5,0-0.9-0.4-0.9-0.9v-6.7c0-0.5,0.4-0.9,0.9-0.9c0.5,0,0.9,0.4,0.9,0.9
					l0,0v6.7C206.9,184.1,206.5,184.5,206,184.5"/>
				<path id="etr1rb30h02464" class="st12" d="M204.8,183.6h2.6"/>
				<path id="etr1rb30h02465" class="st13" d="M207.4,184.5h-2.6c-0.4,0-0.8-0.3-0.8-0.8c0,0,0,0,0,0v-0.1c0-0.4,0.3-0.8,0.8-0.8
					c0,0,0,0,0,0h2.6c0.4,0,0.8,0.3,0.8,0.8c0,0,0,0,0,0v0.1C208.2,184.1,207.8,184.5,207.4,184.5L207.4,184.5"/>
				<path id="etr1rb30h02466" class="st12" d="M212.1,186l2.8-2.6c-4.7-4.6-12.2-4.6-16.8,0c-4.6,4.7-4.6,12.2,0,16.8
					c2.2,2.2,5.2,3.5,8.4,3.5c2.4,0,4.6,0.9,6.5-0.4l2.3,0.3l-0.1-3.8l-6.7-5.3l1.4-6.8L212.1,186"/>
				<path id="etr1rb30h02467" class="st13" d="M206.5,204.8c-7.2,0-13-5.8-13-13s5.8-13,13-13c3.4,0,6.7,1.4,9.2,3.8l0.8,0.8
					l-3.7,3.5l-1.6-1.7l1.9-1.8c-4.6-3.7-11.4-2.9-15.1,1.7c-3.7,4.6-2.9,11.4,1.7,15.1l0,0c1.9,1.5,4.3,2.3,6.7,2.3"/>
				<path id="etr1rb30h02468" class="st14" d="M213,198.1l-1.7-1.6c1.2-1.3,1.9-2.9,1.9-4.7c0-1.9-0.7-3.6-2.1-4.9l-0.9-0.8l0.9-0.9
					l0.8,0.8l0.8-0.8c1.8,1.7,2.8,4,2.8,6.5C215.6,194.1,214.7,196.4,213,198.1"/>
				<path id="etr1rb30h02469" class="st15" d="M203.8,191.7c0-1.5,1.2-2.7,2.7-2.7c1.5,0,2.7,1.2,2.7,2.7c0,1.5-1.2,2.7-2.7,2.7l0,0
					C205,194.4,203.8,193.2,203.8,191.7C203.8,191.7,203.8,191.7,203.8,191.7L203.8,191.7"/>
				<path id="etr1rb30h02470" class="st13" d="M206.5,190.2c-0.8,0-1.5,0.7-1.5,1.5s0.7,1.5,1.5,1.5s1.5-0.7,1.5-1.5
					C208,190.9,207.3,190.2,206.5,190.2 M206.5,195.6c-2.1,0-3.8-1.7-3.8-3.8c0-2.1,1.7-3.8,3.8-3.8c2.1,0,3.8,1.7,3.8,3.8l0,0
					C210.3,193.9,208.6,195.6,206.5,195.6L206.5,195.6 M214.9,183.3l-6.8,6.3"/>
				<path id="etr1rb30h02471" class="st13" d="M208.9,190.5l-1.6-1.7l6.8-6.3l1.6,1.7L208.9,190.5z"/>
				<path id="etr1rb30h02472" class="st12" d="M207.8,194.1l4.9,3.7l2.6,2v5l-5.3-0.3"/>
				<path id="etr1rb30h02473" class="st13" d="M216.4,204.8h-10.1v-2.3h7.8v-2.1l-7-5.3l1.4-1.9l8,6L216.4,204.8z"/>
				<g id="etr1rb30h02474">
					<path id="etr1rb30h02475" class="st16" d="M219.1,177.6l-0.9,0.9l-0.9-0.9l0.9-0.9L219.1,177.6z"/>
				</g>
				<path id="etr1rb30h02478" class="st13" d="M202,186.8c-0.5,0-0.9-0.4-0.9-0.9v-9.1c0-0.5,0.4-0.9,0.9-0.9c0.5,0,0.9,0.4,0.9,0.9
					l0,0v9.1c0,0.5-0.3,0.9-0.8,0.9C202.1,186.8,202.1,186.8,202,186.8L202,186.8"/>
			</g>
		</g>
		
			<radialGradient id="etr1rb30h02479_1_" cx="-1.8798" cy="-164.802" r="143.8604" gradientTransform="matrix(1 0 0 -1 208.59 37.45)" gradientUnits="userSpaceOnUse">
			<stop  offset="0" style="stop-color:#E01F81"/>
			<stop  offset="0" style="stop-color:#D52E7B"/>
			<stop  offset="0" style="stop-color:#C84172"/>
			<stop  offset="0.11" style="stop-color:#C04C6E"/>
			<stop  offset="0.15" style="stop-color:#BD506C"/>
			<stop  offset="0.3" style="stop-color:#EA895F"/>
			<stop  offset="0.47" style="stop-color:#A32175"/>
			<stop  offset="0.64" style="stop-color:#F8D429"/>
			<stop  offset="0.79" style="stop-color:#009C4C"/>
			<stop  offset="1" style="stop-color:#E02181"/>
		</radialGradient>
		<path id="etr1rb30h02479" class="st17" d="M363.4,180.1c-0.3-1.6-1-3.1-2.1-4.3c-0.1-1-0.3-2-0.7-2.9c-1.2-2.9-3.1-4.7-5.1-5h-0.2
			c-1.6-2.6-3.6-4-5.6-3.9c-1.4,0-2.6,0.8-3.2,2.1c-0.9,1.8-0.5,4.1,1,6.2c0.4,0.6,0.5,1.4,0.4,2.1c-0.4,1.5-1.2,2.9-2.2,4.1
			c-0.1-0.8-0.3-1.7-0.7-2.4c-0.7-1.5-2.2-3.2-5.5-3.4c-4.3,0-8.3,2-10.8,5.4c-0.4,0.6-0.7,1.3-0.8,2.1c-0.4-0.2-0.8-0.3-1.2-0.3
			c-1.2-0.1-3.5,0.3-5.9,3.7c-2.1,3-2.7,6.9-1.5,10.4c-3,1.5-11.5,6-14.1,7.8c-1.1,0.7-1.9,1.8-2.2,3c-5,0.8-16.1,2.1-20.6,0.7
			c-1.2-7.1-3.3-14.1-6.3-20.7c-2.6-6-6.2-11.6-10.7-16.4c-0.7-0.8-1.5-1.5-2.2-2.2v-8.5c0-7.5-5.2-14-12.5-15.6
			c0.3-0.9,0.6-1.7,0.9-2.6l1.9-0.8c0.1,0,0.1,0,0.1-0.1l0,0c2-1.1,3.4-3.1,3.8-5.3l0.9,0.1h0.3c2.1,0,3.9-1.7,4.1-3.8l0.7-9.3
			c0.2-2.2-1.5-4.2-3.7-4.4c0,0-0.1,0-0.1,0l0,0l-1.2-0.1c-0.2-2.3-1.3-4.3-3-5.8l-0.1-0.1l-3.4-2.1c-6.1-20.4-24.1-35.1-45.2-35.1
			s-39,14.7-45.1,35L158,110l-0.1,0.1c-1.8,1.4-2.9,3.5-3,5.8l-1.2,0.1c-1.1,0.1-2.1,0.6-2.8,1.4c-0.7,0.8-1.1,1.9-1,3l0.7,9.3
			c0.1,2.1,1.9,3.8,4,3.8h0.3l0.9-0.1c0.5,2.2,1.8,4.2,3.8,5.3c0.1,0,0.1,0,0.1,0.1l0,0l2.1,0.9c0.2,0.8,0.5,1.5,0.8,2.3
			c-8,1-14,7.8-14,15.8v10l-0.6,0.6c-4.4,4.8-8.1,10.4-10.7,16.4c-3,6.6-5.1,13.6-6.3,20.7c-4.6,1.4-15.6,0.1-20.6-0.7
			c-0.3-1.2-1.1-2.3-2.2-3c-2.6-1.8-11.2-6.3-14.1-7.8c1.3-3.5,0.7-7.4-1.5-10.4c-2.3-3.5-4.7-3.8-5.9-3.7c-0.4,0-0.8,0.1-1.2,0.3
			c-0.1-0.7-0.4-1.5-0.8-2.1c-2.5-3.5-6.5-5.5-10.8-5.4c-2.4-0.1-4.5,1.3-5.5,3.4c-0.4,0.8-0.6,1.6-0.7,2.4
			c-1.1-1.1-1.9-2.6-2.2-4.1c-0.2-0.7,0-1.5,0.4-2.1c1.5-2.1,1.9-4.4,1-6.2c-0.6-1.2-1.8-2.1-3.2-2.1c-2-0.1-4,1.4-5.6,3.9h-0.2
			c-2,0.2-3.9,2-5.1,5c-0.4,0.9-0.6,1.9-0.7,2.9c-1.1,1.2-1.8,2.7-2.1,4.3c-1.1,4.9,3.4,10.4,6.9,14.2c0.8,1.2,8.4,12.2,17.8,14.9
			c1,1.9,8.5,16.8,10.9,19c0.7,0.6,1.5,0.9,2.4,0.9c0.5,0,1-0.1,1.5-0.2c0.3-0.1,0.7-0.2,1.1-0.3c3.6,2.7,7.4,5,11.4,7
			c5.8,2.9,14.3,6,23.6,6c1.3,0,2.7-0.1,4.1-0.2c4.4-0.5,8.7-1.7,12.7-3.7c-1,2-1.2,4.2-0.7,6.3c-6.2-0.1-11.7,1.1-16.2,3.7
			c-7.1,4.1-11.4,11.5-12.6,21.9c-1.1,9.2,4.5,17.7,16.5,25.4c-1.7,0.4-3.2,1.2-4.5,2.4l0,0c-1.9,1.8-2.6,4.7-1.8,8.4
			c1.5,7.4,8.8,17.4,17.9,20.6c7.1,2.5,16.6,5.4,25.3,5.4c0.9,0,1.8,0,2.7-0.1h0.2c1.8-0.2,3.6-0.5,5.3-0.9
			c7.2-2.1,25.3-7.3,32.3-9.4c7,2,25.1,7.3,32.3,9.4c1.7,0.5,3.5,0.8,5.3,0.9h0.2c0.9,0.1,1.8,0.1,2.7,0.1c8.7,0,18.2-2.9,25.3-5.4
			c9.1-3.2,16.3-13.2,17.9-20.6c0.8-3.7,0.1-6.6-1.8-8.4l0,0c-1.3-1.1-2.8-1.9-4.4-2.4c1.3-0.8,2.5-1.6,3.7-2.5
			c9.5-7,13.9-14.7,12.9-22.9c-1.2-10.4-5.5-17.8-12.6-21.9c-4.6-2.7-10.3-3.9-16.7-3.7c0.5-2.2,0.1-4.5-1-6.5
			c4.2,2.2,8.7,3.5,13.4,4c1.4,0.1,2.7,0.2,4.1,0.2c9.3,0,17.8-3.2,23.6-6c4-2,7.8-4.3,11.4-7c0.4,0.1,0.8,0.2,1.1,0.3
			c0.5,0.1,1,0.2,1.5,0.2c0.9,0,1.7-0.3,2.4-0.9c2.4-2.1,9.9-17.1,10.9-19c9.4-2.8,17-13.7,17.8-14.9
			C360,190.5,364.5,185,363.4,180.1z M329.7,185.2c0.4-0.6,0.6-1.3,0.5-2c1.6-0.1,3.1-0.5,4.5-1.2c0.5-0.2,1.1-0.4,1.6-0.6
			c0,3.4-0.7,6.9-4.3,7.5c-0.9,0.1-2.4,0.3-2.9-0.5C328.8,187.3,329,186.1,329.7,185.2L329.7,185.2z M84.1,188.2
			c-0.5,0.8-2,0.6-2.9,0.5c-3.6-0.6-4.2-4-4.3-7.5c0.5,0.2,1.1,0.4,1.6,0.6c1.4,0.7,2.9,1.1,4.5,1.2c-0.1,0.7,0.1,1.4,0.5,2
			C84.1,186,84.5,187.5,84.1,188.2L84.1,188.2z"/>
	</g>
	<path class="st18" d="M129.8,378.5c-10.3,0-21.1-3.4-28.3-5.9c-12.7-4.5-21.7-17.4-23.7-27.3c-1-4-0.6-8.3,1.1-12.1
		c-10.6-10-12.3-19.9-11.4-27c0.9-7.9,3.4-14.6,7.3-19.9c-4.6-1.2-9-2.9-13.3-5c-3.3-1.6-6.5-3.5-9.6-5.6h-0.4
		c-3.2,0-6.3-1.2-8.6-3.4c-2-1.9-4.5-5.6-11.1-18.3c-9.5-4.4-16.3-13.4-18.5-16.5c-3.6-3.9-10.8-12.2-8.6-21.8
		c0.4-2.1,1.3-4.2,2.4-6c0.2-0.9,0.5-1.8,0.9-2.7c1.5-4,4.4-7.3,8.2-9.3c2.7-3.2,6.6-5.1,10.8-5.1h0.8c0.5,0,1,0.1,1.5,0.2l-1.4-2.6
		c-9.5-4.4-16.3-13.4-18.4-16.5c-3.6-3.9-10.8-12.2-8.6-21.8c0.4-2.1,1.3-4.2,2.4-6c0.2-0.9,0.5-1.8,0.9-2.7c1.5-4,4.4-7.3,8.2-9.3
		c2.7-3.2,6.6-5.1,10.8-5.1H24c5.2,0.4,9.6,3.8,11.3,8.7c5.9,0.4,11.4,3.2,15.3,7.7c3.8,1.2,7,3.7,9.1,7.1c0.6,0.8,1.1,1.6,1.5,2.5
		c0.7-0.1,1.5-0.2,2.2-0.2c1.5,0,3,0.3,4.4,0.8l-1.3-2.4c-9.4-4.4-16.3-13.4-18.4-16.5c-3.6-3.9-10.8-12.2-8.6-21.8
		c0.4-2.1,1.3-4.2,2.4-6c0.2-0.9,0.5-1.8,0.9-2.7c1.5-4,4.4-7.3,8.2-9.3c2.7-3.2,6.6-5.1,10.8-5.1h0.8c4.6,0.3,8.7,3,10.7,7.2
		c0.2,0.5,0.4,1,0.6,1.5c5.9,0.4,11.4,3.2,15.3,7.7c3.8,1.2,7,3.7,9.1,7.1c1.3,1.9,2.3,4.1,3,6.3c1.3-2.9,3.1-5.5,5.3-7.7
		c-0.3-0.2-0.6-0.5-0.9-0.7c-2.6-2.2-4.2-5.4-4.5-8.8l-0.7-9.4c-0.4-5.1,2.3-10.1,6.8-12.5c1-2,2.5-3.8,4.2-5.2
		c0.4-0.4,0.9-0.7,1.4-1l0.8-0.5c6.2-17.1,19.9-30.4,36.5-35.6l0,0c0.4-0.4,0.9-0.7,1.4-1l0.8-0.5c8.3-22.9,29-38,52.6-38
		c22.8,0,43,14.2,51.8,35.8c21,2.4,39,16.9,46.6,37.8l0.6,0.4c0.5,0.3,1,0.7,1.5,1.1c1.7,1.4,3,3.2,4,5.1c1.4,0.7,2.7,1.7,3.7,2.9
		c0.1,0.1,0.2,0.3,0.3,0.4c2.1,2.6,3.1,5.9,2.9,9.3c0,0-0.7,9.3-0.7,9.4c-0.4,4.2-2.7,7.9-6.3,10.1c0.8,0.8,1.5,1.7,2.2,2.6l0.2-0.2
		c2.1-3.3,5.3-5.7,9-6.9c3.9-4.5,9.4-7.3,15.3-7.8l0.6-1.5c2-4.3,6.3-7.1,11.1-7.2h0.4c4.2,0.1,8.2,2,10.9,5.2
		c3.7,2,6.6,5.2,8.1,9.1c0.4,0.9,0.7,1.8,0.9,2.8c1.2,1.9,2,3.9,2.4,6.1c2,9.1-4.5,17.1-8.2,21.5c-2,2.9-8.9,12.1-18.5,16.6
		c-1,2-2,3.8-2.8,5.4c0.6-0.6,1.3-1.2,2.1-1.6l0.4-0.3c0.6-0.3,1.2-0.6,1.9-0.9c1.2-0.5,2.5-0.8,3.8-0.9h0.8c1.7,0,3.3,0.4,4.9,1
		c0.6-1.8,1.4-3.5,2.5-5l0.1-0.2c2.1-3.3,5.3-5.7,9-6.9c3.9-4.5,9.4-7.3,15.3-7.8l0.6-1.5c2-4.3,6.3-7.1,11.1-7.2h0.4
		c4.2,0.1,8.2,2,10.9,5.2c3.7,2,6.6,5.2,8.1,9.1c0.4,0.9,0.7,1.8,0.9,2.8c1.1,1.8,1.9,3.8,2.4,5.9c2,9.1-4.5,17.1-8.2,21.5
		c-2,2.9-8.9,12.1-18.5,16.6c-0.8,1.5-1.5,2.8-2.1,4.1c0.7-0.1,1.5-0.2,2.2-0.2h0.4c4.2,0.1,8.2,2,10.9,5.2c3.7,2,6.6,5.2,8.1,9.1
		c0.4,0.9,0.7,1.8,0.9,2.8c1.2,1.9,2,3.9,2.4,6.1c2,9.3-4.7,17.4-8.3,21.5c-2,2.9-8.9,12.1-18.5,16.6c-6.6,12.7-9.1,16.5-11.2,18.4
		c-2.3,2.2-5.4,3.4-8.6,3.3h-0.5c-3.1,2.1-6.2,3.9-9.5,5.6l-0.1,0.1c-4.2,2-8.5,3.7-13,4.9c4.1,5.9,6.6,12.7,7.3,19.9
		c0.8,7-0.7,17-11.5,27.1c1.6,3.8,2,8,1,12c-2.1,9.9-11.2,22.8-23.7,27.2c-7.2,2.5-18,5.9-28.3,5.9c-0.9,0-2,0-3.2-0.1H284
		c-2.5-0.1-4.9-0.6-7.3-1.3l-6.3-1.8c-7.5-2.2-17.4-5.1-23.4-6.8c-5.3,1.5-13.5,3.9-20.3,5.9l-9.5,2.8l-0.5,0.1
		c-2.1,0.5-4.2,0.9-6.4,1.1h-0.7c-1.2,0.1-2.3,0.1-3.2,0.1c-10.3,0-21.1-3.4-28.3-5.9c-2.7-0.9-5.2-2.2-7.5-3.8l-0.3-0.1
		c-5.2,1.5-13.3,3.9-20,5.8l-9.8,2.8l-0.5,0.1c-2.1,0.5-4.2,0.9-6.4,1.1h-0.7C131.9,378.4,130.9,378.6,129.8,378.5z"/>
</g>
</svg>
