<svg id="Layer_1" data-name="Layer 1" xmlns="http://www.w3.org/2000/svg" xmlns:xlink="http://www.w3.org/1999/xlink" viewBox="0 0 478.59 495.69"><defs><style>.cls-1{mask:url(#mask);}.cls-2,.cls-4,.cls-6,.cls-8{mix-blend-mode:multiply;}.cls-2{fill:url(#radial-gradient);}.cls-3{mask:url(#mask-2);}.cls-4{fill:url(#radial-gradient-2);}.cls-5{mask:url(#mask-3);}.cls-6{fill:url(#radial-gradient-3);}.cls-7{mask:url(#mask-4);}.cls-8{fill:url(#radial-gradient-4);}.cls-9{fill:#d0d2d3;}.cls-10{fill:#6f3ff5;}.cls-11{fill:#e6e7e8;}.cls-12{fill:#a6a8ab;}.cls-13{fill:#5932c4;}.cls-13,.cls-14,.cls-19,.cls-20,.cls-21,.cls-22,.cls-23{stroke:#283538;}.cls-13,.cls-14,.cls-19,.cls-20,.cls-21,.cls-22,.cls-23,.cls-48{stroke-miterlimit:10;stroke-width:0.25px;}.cls-14{fill:url(#radial-gradient-5);}.cls-15{opacity:0.58;}.cls-16,.cls-17{fill:#11bc92;}.cls-16,.cls-18{fill-rule:evenodd;}.cls-18{fill:#079973;}.cls-19{fill:#531782;}.cls-20{fill:#8333bc;}.cls-21{fill:#bbffcb;opacity:0.57;}.cls-22{fill:#a149db;}.cls-23{fill:#7121a5;}.cls-24{mask:url(#mask-5);}.cls-25{fill:url(#radial-gradient-6);}.cls-26{mask:url(#mask-6);}.cls-27{fill:url(#radial-gradient-7);}.cls-28{mask:url(#mask-7);}.cls-29{fill:url(#radial-gradient-8);}.cls-30{mask:url(#mask-8);}.cls-31{fill:url(#radial-gradient-9);}.cls-32{clip-path:url(#clip-path);}.cls-33{fill:#c7c8c9;}.cls-34{clip-path:url(#clip-path-2);}.cls-35{fill:#3c20a5;}.cls-36{fill:#4224b2;}.cls-37{clip-path:url(#clip-path-3);}.cls-38{fill:#fff;opacity:0.5;}.cls-39{clip-path:url(#clip-path-4);}.cls-40{clip-path:url(#clip-path-5);}.cls-41{clip-path:url(#clip-path-6);}.cls-42{clip-path:url(#clip-path-7);}.cls-43{fill:#b8bbbc;}.cls-44{clip-path:url(#clip-path-8);}.cls-45{clip-path:url(#clip-path-9);}.cls-46{clip-path:url(#clip-path-10);}.cls-47{font-size:26.41px;fill:#dcfbff;font-family:SpaceMono-Regular, Space Mono;}.cls-48{fill:none;stroke:#000a28;}.cls-49{filter:url(#luminosity-noclip-8);}.cls-50{filter:url(#luminosity-noclip-7);}.cls-51{filter:url(#luminosity-noclip-6);}.cls-52{filter:url(#luminosity-noclip-5);}.cls-53{filter:url(#luminosity-noclip-4);}.cls-54{filter:url(#luminosity-noclip-3);}.cls-55{filter:url(#luminosity-noclip-2);}.cls-56{filter:url(#luminosity-noclip);}</style><filter id="luminosity-noclip" x="183.71" y="-8442" width="210.81" height="32766" filterUnits="userSpaceOnUse" color-interpolation-filters="sRGB"><feFlood flood-color="#fff" result="bg"/><feBlend in="SourceGraphic" in2="bg"/></filter><mask id="mask" x="183.71" y="-8442" width="210.81" height="32766" maskUnits="userSpaceOnUse"><g class="cls-56"/></mask><radialGradient id="radial-gradient" cx="245.37" cy="218.06" r="167.66" gradientTransform="translate(0 -20.75) scale(1 1.05)" gradientUnits="userSpaceOnUse"><stop offset="0" stop-color="#7a7a7a"/><stop offset="0.27" stop-color="#6f6f6f"/><stop offset="0.73" stop-color="#535353"/><stop offset="1" stop-color="#404040"/></radialGradient><filter id="luminosity-noclip-2" x="133.88" y="-8442" width="187.63" height="32766" filterUnits="userSpaceOnUse" color-interpolation-filters="sRGB"><feFlood flood-color="#fff" result="bg"/><feBlend in="SourceGraphic" in2="bg"/></filter><mask id="mask-2" x="133.88" y="-8442" width="187.63" height="32766" maskUnits="userSpaceOnUse"><g class="cls-55"/></mask><radialGradient id="radial-gradient-2" cx="275.67" cy="187.29" r="178.58" gradientTransform="translate(0 -0.51)" xlink:href="#radial-gradient"/><filter id="luminosity-noclip-3" x="226.75" y="-8442" width="173.61" height="32766" filterUnits="userSpaceOnUse" color-interpolation-filters="sRGB"><feFlood flood-color="#fff" result="bg"/><feBlend in="SourceGraphic" in2="bg"/></filter><mask id="mask-3" x="226.75" y="-8442" width="173.61" height="32766" maskUnits="userSpaceOnUse"><g class="cls-54"/></mask><radialGradient id="radial-gradient-3" cx="313.55" cy="186.13" r="101.78" xlink:href="#radial-gradient"/><filter id="luminosity-noclip-4" x="121.98" y="-8442" width="235.49" height="32766" filterUnits="userSpaceOnUse" color-interpolation-filters="sRGB"><feFlood flood-color="#fff" result="bg"/><feBlend in="SourceGraphic" in2="bg"/></filter><mask id="mask-4" x="121.98" y="-8442" width="235.49" height="32766" maskUnits="userSpaceOnUse"><g class="cls-53"/></mask><radialGradient id="radial-gradient-4" cx="239.73" cy="176.55" r="105.66" xlink:href="#radial-gradient"/><radialGradient id="radial-gradient-5" cx="256.82" cy="202.34" r="162.43" gradientUnits="userSpaceOnUse"><stop offset="0" stop-color="#7fff92"/><stop offset="0.16" stop-color="#75ff87"/><stop offset="0.43" stop-color="#5cff6b"/><stop offset="0.78" stop-color="#32ff3d"/><stop offset="1" stop-color="#15ff1d"/></radialGradient><filter id="luminosity-noclip-5" x="183.71" y="144.54" width="210.81" height="196.8" filterUnits="userSpaceOnUse" color-interpolation-filters="sRGB"><feFlood flood-color="#fff" result="bg"/><feBlend in="SourceGraphic" in2="bg"/></filter><mask id="mask-5" x="177.18" y="141.67" width="210.81" height="196.8" maskUnits="userSpaceOnUse"><g class="cls-52"><g transform="translate(-6.53 -2.88)"><g class="cls-1"><path class="cls-2" d="M394.52,261.2a74.93,74.93,0,0,1-2.69,18.21,149.73,149.73,0,0,1-47.22,53.47c-10.26,4.25-22.62,7.29-37.54,8.45h-.9c-23.94,0-49.09-5.6-70.18-16.92-32.51-17.45-55.7-57.79-51.87-95.28,2.91-28.41,16.52-59.7,40.24-75.76,24.06-16.3,70.38-11.09,76.62,24.25,2.44,13.84-7.25,28.07-19.27,33.86,14.27-8,13.68-33.88,1.7-43.87s-31.12-7.5-43.61-.19c-30.12,17.64-38.44,60.09-27.48,92.1,3.71,10.8,10.17,19.51,17.61,27.74,16.14,17.83,36.57,24.35,59.86,25.53,8.7.43,19,1.22,27.62,0,16.28-2.36,32.82-11.12,47-19.39C372.91,288.49,394.47,273.22,394.52,261.2Z"/></g></g></g></mask><radialGradient id="radial-gradient-6" cx="245.37" cy="218.06" r="167.66" gradientTransform="translate(0 -20.75) scale(1 1.05)" xlink:href="#radial-gradient-5"/><filter id="luminosity-noclip-6" x="133.88" y="111.64" width="187.63" height="234.53" filterUnits="userSpaceOnUse" color-interpolation-filters="sRGB"><feFlood flood-color="#fff" result="bg"/><feBlend in="SourceGraphic" in2="bg"/></filter><mask id="mask-6" x="127.35" y="108.77" width="187.63" height="234.53" maskUnits="userSpaceOnUse"><g class="cls-51"><g transform="translate(-6.53 -2.88)"><g class="cls-3"><path class="cls-4" d="M310.47,139.23c-.65-.87-1.34-1.72-2.05-2.56-14.15-16.7-32.77-22.31-53.51-24.56-39.61-4.3-88.22,21.63-105.24,60-8.89,20-15.79,42.08-15.79,64.47,0,39.34,21.63,85.58,58.1,100.1l1.18.46L257,346.18s-115.27-30.83-91-142.22c8-36.68,38.1-69.12,74.38-73.88,32.71-4.3,71.72,13.92,69.72,53.78-.7,14.2-10.19,30.19-24.1,33.1,15.82-2.8,26.87-10.74,32.44-26.81A55,55,0,0,0,310.47,139.23Z"/></g></g></g></mask><radialGradient id="radial-gradient-7" cx="275.67" cy="187.29" r="178.58" gradientTransform="translate(0 -0.51)" xlink:href="#radial-gradient-5"/><filter id="luminosity-noclip-7" x="226.75" y="54" width="173.61" height="240.74" filterUnits="userSpaceOnUse" color-interpolation-filters="sRGB"><feFlood flood-color="#fff" result="bg"/><feBlend in="SourceGraphic" in2="bg"/></filter><mask id="mask-7" x="220.22" y="51.13" width="173.61" height="240.74" maskUnits="userSpaceOnUse"><g class="cls-50"><g transform="translate(-6.53 -2.88)"><g class="cls-5"><path class="cls-6" d="M370.21,265.75c-13.73,12.06-28.39,21.91-46.66,25.49-21.35,4.18-40.59,6.37-61-3.81-22.78-11.39-32.62-29-35.52-54-2.45-20.89,9.09-50.7,32.82-48,14.27,1.62,23.7,13.91,11.6,26.94,6.73-13.53-7.56-23.94-19.87-18.89-23.27,9.56-13.05,48.91-.18,62.64,17.65,18.83,41,19.57,64,12.71,14.78-4.44,35.48-17.8,41.82-33.31,7.27-17.92,13-43.05,12.15-62.54-.65-15.06-4.79-30.53-10.42-44.29-15-36.87-46.18-57.76-81.68-70.3-3.43-1.22-7-2.31-10.38-3.62a12.58,12.58,0,0,1-1.44-.74c53.46.23,100.09,30.78,125.06,76.11,1.34,3.33,2.58,6.79,3.65,10.45C405.92,180.36,402.45,237.39,370.21,265.75Z"/></g></g></g></mask><radialGradient id="radial-gradient-8" cx="313.55" cy="186.13" r="101.78" gradientTransform="translate(0 -20.75) scale(1 1.05)" xlink:href="#radial-gradient-5"/><filter id="luminosity-noclip-8" x="121.98" y="67.88" width="235.49" height="192.9" filterUnits="userSpaceOnUse" color-interpolation-filters="sRGB"><feFlood flood-color="#fff" result="bg"/><feBlend in="SourceGraphic" in2="bg"/></filter><mask id="mask-8" x="115.45" y="65" width="235.49" height="192.9" maskUnits="userSpaceOnUse"><g class="cls-49"><g transform="translate(-6.53 -2.88)"><g class="cls-7"><path class="cls-8" d="M264.78,245.11c9.39,3.91,19.58,3.6,29.23,1.49,30-6.6,43.95-41.95,43.57-71.58-.86-69.12-91.29-93.88-141.89-68.6-20.27,10.14-43,24.39-57.37,42.93-6.38,8.25-14.15,20-16.34,31.15,6.47-40.21,28-75.07,58.36-97.95,3.54-1.76,7.16-3.33,10.77-4.74C212,69.64,234,66.16,256.23,68.69,292.9,72.85,329,95.79,347,130.32c15.74,30.12,13.9,72.81-7,99.6-9.18,11.75-21.71,22-35.41,27.35l-.68.25c-13.42,4.67-28.51,4.78-41.06-2.74-13.79-8.26-24.51-28.73-20.44-45.39,2.27-9.3,13.49-19.24,23-15.36,4.93,2,12.09,13.32,7.31,18.36-.36-6.59-1.08-10.82-6.26-15.17-4.92-4.14-10.19-1.79-14,2.79s-5.85,8.87-6.12,14.81C245.75,227.58,253.85,240.54,264.78,245.11Z"/></g></g></g></mask><radialGradient id="radial-gradient-9" cx="239.73" cy="176.55" r="105.66" gradientTransform="translate(0 -20.75) scale(1 1.05)" xlink:href="#radial-gradient-5"/><clipPath id="clip-path" transform="translate(-6.53 -2.88)"><path class="cls-9" d="M87.18,264.93S80,279.18,78,287.33c-3,12-.4,22-.4,24.8S62,366.92,61.18,370.52s-7.3,12.89-10.5,23.29S35.39,444.9,39,445.7s10.39-.6,12-1.8,33.8-51,36.6-56.59,23.59-47.59,23.59-47.59,16-52,17.2-60.79S87.18,264.93,87.18,264.93Z"/></clipPath><clipPath id="clip-path-2" transform="translate(-6.53 -2.88)"><path class="cls-10" d="M52.78,386.61s9.3-.3,15.9,2.7S79.18,401,79.18,401s-25.8,41.69-26.7,49.49.3,10.8,4.8,15.6,3.3,5.4,7.8,5.4,4.8,5.4,3.9,6.6-14.2.8-17.8.8-9.69.3-14.19-3-13.3-9.8-11.8-12.8,6.6-10.8,8.4-17.1,6.9-31.19,9.59-37.79S52.78,386.61,52.78,386.61Z"/></clipPath><clipPath id="clip-path-3" transform="translate(-6.53 -2.88)"><path class="cls-9" d="M140,278.13s12,65.59,12.4,72-.8,20-.8,22.4,6.8,75.58,6.8,75.58-2.4,8.8-9.6,10.4-5.2-3.6-5.2-3.6-17.2-51.59-18-60.39-1.6-14.8-3.6-20.79-22.39-60.4-23.59-62-7.33-14-7.6-22c-.4-11.6,4.4-23.6,4.4-23.6l45.19,2Z"/></clipPath><clipPath id="clip-path-4" transform="translate(-6.53 -2.88)"><path class="cls-10" d="M126.27,402.81s5.7-3.3,16.5-3.9c5.94-.33,12.3-.3,12.3-.3s2.1,46,4.5,50.39,12.79,4.7,16.39,5.1,12.4-1.2,15.2,1.2,4.7,6.6-.1,9.9a68.38,68.38,0,0,1-21.5,9.7c-7.59,2-18.79,3.6-22.39,2.8s-2.6-13.6-5-20-9.8-24.79-12.6-35.19A107.09,107.09,0,0,1,126.27,402.81Z"/></clipPath><clipPath id="clip-path-5" transform="translate(-6.53 -2.88)"><path class="cls-10" d="M149,122.15c4.45,13.1-.2,27.4-4.8,36.2-.42.79-9.2-19.6-8.4-21S149,122.15,149,122.15Z"/></clipPath><clipPath id="clip-path-6" transform="translate(-6.53 -2.88)"><path class="cls-11" d="M106.77,152.5c-5.09-2.4-5.46-7.37-5.84-9.75-7.5-46.94,39.74-43.49,49.34-20.7,1.21,2.89.6,4.2.6,4.2-1.15,2-5.47,5.74-12,10.57a1.68,1.68,0,0,0-.39,2,85.5,85.5,0,0,1,6.65,17.46,8.84,8.84,0,0,1-2.6,7.5c-2.29,2.1-9.15,1.65-12.6,1C121.47,163.15,106.77,152.5,106.77,152.5Z"/></clipPath><clipPath id="clip-path-7" transform="translate(-6.53 -2.88)"><path class="cls-11" d="M91.58,168.55c-8,5.6-11.6,13.6-11.2,24.39s0,60.79.4,66.39-.4,16.4-.4,16.4,22.4-5.2,43.59,0c6.79,1.66,18.4,8.8,18.4,8.8s3.7-42.79,6.1-63.19c1.92-16.31,3.7-35.49-2.1-43.39-4.4-6-11-10.8-16.6-11.6s-29-3-29-3Z"/></clipPath><clipPath id="clip-path-8" transform="translate(-6.53 -2.88)"><path class="cls-10" d="M67.78,169.15c-6.4,23.19,0,69.29,2.4,76.19,2.2,6.33,5.6,6,13.4,6h32.79s.4-56.59,1.6-64.39,0-22.39,0-22.39-7.6-7.4-21.39-7.4S69.65,162.38,67.78,169.15Z"/></clipPath><clipPath id="clip-path-9" transform="translate(-6.53 -2.88)"><path class="cls-12" d="M147.57,177.35c-3.6-3.8-5.11-5.77-16-3.4-9.2,2-10.68,13.61-12.4,20.19-2.4,9.2-8.2,46.4-8.2,46.4l1.8,52.59s11.4-4.8,14.6.4c0,0,4.6-43,6.2-48.59s8-25.6,11.2-32S156.11,186.37,147.57,177.35Z"/></clipPath><clipPath id="clip-path-10" transform="translate(-6.53 -2.88)"><path class="cls-10" d="M114.12,292.88l-.9,5.1,2.35,10.95a84.42,84.42,0,0,1-1.7,8.59c-.6,1.5,1.9,4.6,6.4,3.1s6.3-4.3,6.9-6.7,3.2-9.79,3.2-9.79l-2.8-11,2.8-28c-2.92-3.8-12.2-5.2-19-3.4Z"/></clipPath></defs><title>takemetosolarpunk</title><ellipse class="cls-13" cx="256.82" cy="202.34" rx="189.02" ry="194.21"/><ellipse class="cls-14" cx="256.82" cy="202.34" rx="160.22" ry="164.62"/><g class="cls-15"><path class="cls-16" d="M193.06,167.36h25.55v111.2H193.06V167.36Zm16.14,5.48v2.92h2.32v-2.92ZM200,184v2.92h2.32V184Zm0,4v2.92h2.32V188Zm-3.35,0v2.92H199V188Zm0-4v2.92H199V184ZM200,172.84v2.92h2.32v-2.92Zm0,4v2.91h2.32v-2.91Zm-3.35,0v2.91H199v-2.91Zm0-4v2.92H199v-2.92Zm12.56,4v2.91h2.32v-2.91Zm-3.36,0v2.91h2.32v-2.91Zm0-4v2.92h2.32v-2.92Z" transform="translate(-6.53 -2.88)"/><path class="cls-16" d="M212.49,205.15H238v73.41H212.49V205.15Zm8.94,5.07v2.92h2.32v-2.92Zm0,4v2.92h2.32v-2.92Zm-3.35,0v2.92h2.32v-2.92Zm0-4v2.92h2.32v-2.92Z" transform="translate(-6.53 -2.88)"/><path class="cls-16" d="M227.61,182.48h40.66v96.08H227.61V182.48ZM254,187v2.91h2.32V187Zm0,4v2.92h2.32V191Zm-3.36,0v2.92h2.33V191Zm0-4v2.91h2.33V187Zm-6,0v2.91h2.32V187Zm0,4v2.92h2.32V191Zm-3.36,0v2.92h2.32V191Zm0-4v2.91h2.32V187Zm-6,0v2.91h2.32V187Zm0,4v2.92h2.32V191Zm-3.36,0v2.92h2.32V191Zm0-4v2.91h2.32V187Zm0,11.12V201h2.32v-2.92Zm3.36,0V201h2.32v-2.92Zm0,4V205h2.32v-2.91Zm-3.36,0V205h2.32v-2.91Z" transform="translate(-6.53 -2.88)"/><path class="cls-16" d="M247.76,222.42h40.66v56.14H247.76V222.42Zm4.89,4.89v2.92H255v-2.92Zm3.35,0v2.92h2.32v-2.92Zm0,4v2.92h2.32v-2.92Zm-3.35,0v2.92H255v-2.92Z" transform="translate(-6.53 -2.88)"/><path class="cls-16" d="M275.47,126.34H305V278.56h-29.5V126.34Zm4.1,24.32v2.92h2.33v-2.92Zm9-19.44v2.92h2.32v-2.92Zm3.36,0v2.92h2.32v-2.92Zm0,4v2.92h2.32V135.2Zm-3.36,0v2.92h2.32V135.2Zm-9-4v2.92h2.33v-2.92Zm3.36,0v2.92h2.32v-2.92Zm0,4v2.92h2.32V135.2Zm-3.36,0v2.92h2.33V135.2Zm0,5.74v2.92h2.33v-2.92Zm3.36,0v2.92h2.32v-2.92Zm0,4v2.92h2.32v-2.92Zm-3.36,0v2.92h2.33v-2.92Zm3.36,5.74v2.92h2.32v-2.92Zm0,4v2.92h2.32v-2.92Zm-3.36,0v2.92h2.33v-2.92Z" transform="translate(-6.53 -2.88)"/><path class="cls-16" d="M295.26,172.4h29.51V278.56H295.26V172.4Zm20.45,16v2.92H318v-2.92Zm0-10.8v2.92H318v-2.92Zm3.35,0v2.92h2.32v-2.92Zm0,4v2.92h2.32V181.6Zm-3.35,0v2.92H318V181.6Zm3.35,6.82v2.92h2.32v-2.92Zm0,4v2.92h2.32v-2.92Zm-3.35,0v2.92H318v-2.92Z" transform="translate(-6.53 -2.88)"/><path class="cls-16" d="M182.27,231.78h25.54v46.78H182.27V231.78Zm6.93,14.86v2.92h2.32v-2.92Zm0-11.13v2.92h2.32v-2.92Zm0,4v2.91h2.32V239.5Zm-3.36,0v2.91h2.33V239.5Zm0-4v2.92h2.33v-2.92Zm3.36,15.11v2.92h2.32v-2.92Zm-3.36,0v2.92h2.33v-2.92Zm0-4v2.92h2.33v-2.92Z" transform="translate(-6.53 -2.88)"/><path class="cls-16" d="M158,263.47l15.34-16.87,14.17,16,.17,16h-29.5L158,263.47Zm15.19-11.15a2.53,2.53,0,1,0,2.52,2.52,2.52,2.52,0,0,0-2.52-2.52Zm7.43,13.41v2.92h2.92v-2.92Zm0,4v2.92h2.92v-2.92Zm-4.22,0v2.92h2.92v-2.92Zm0-4v2.92h2.92v-2.92Zm-9.41,0v2.92h2.92v-2.92Zm0,4v2.92h2.92v-2.92Zm-4.21,0v2.92h2.91v-2.92Zm0-4v2.92h2.91v-2.92Z" transform="translate(-6.53 -2.88)"/><polygon class="cls-16" points="181.13 275.68 175.74 275.68 175.74 269.75 176.99 269.75 176.99 266.83 175.74 266.83 175.74 265.77 176.99 265.77 176.99 262.85 175.74 262.85 175.74 253.81 180.96 259.7 181.13 275.68"/><rect class="cls-17" x="186.53" y="228.9" width="14.75" height="46.78"/><polygon class="cls-16" points="212.08 202.27 212.08 207.35 211.54 207.35 211.54 210.27 212.08 210.27 212.08 211.33 211.54 211.33 211.54 214.25 212.08 214.25 212.08 275.68 205.96 275.68 205.96 202.27 212.08 202.27"/><rect class="cls-17" x="221.08" y="202.27" width="10.44" height="73.41"/><path class="cls-16" d="M268.27,222.42v56.14H247.76V222.42Zm-15.62,4.89v2.92H255v-2.92Zm3.35,0v2.92h2.32v-2.92Zm0,4v2.92h2.32v-2.92Zm-3.35,0v2.92H255v-2.92Z" transform="translate(-6.53 -2.88)"/><rect class="cls-17" x="268.94" y="219.55" width="12.95" height="56.14"/><rect class="cls-17" x="288.73" y="169.53" width="9.72" height="106.16"/><path class="cls-16" d="M292.06,93.64a46.46,46.46,0,0,0,13.57,6.65,17.77,17.77,0,0,1-30.81,0,41.9,41.9,0,0,0,13.57-6.66,2.86,2.86,0,0,0,3.67,0Z" transform="translate(-6.53 -2.88)"/><path class="cls-16" d="M289.12,88.79a2.86,2.86,0,0,0-1.77,2.65v.11A46.32,46.32,0,0,0,274.67,100a17.57,17.57,0,0,1-2.22-8.59A17.76,17.76,0,0,1,290,73.67a46.73,46.73,0,0,0-1,15.11l.1,0Z" transform="translate(-6.53 -2.88)"/><path class="cls-16" d="M290.35,73.66A17.79,17.79,0,0,1,305.79,100a41.57,41.57,0,0,0-12.7-8.48v-.1a2.87,2.87,0,0,0-1.8-2.67v0l.08,0A41.65,41.65,0,0,0,290.35,73.66Z" transform="translate(-6.53 -2.88)"/><path class="cls-16" d="M290.19,73A47.35,47.35,0,0,0,289,88.78a2.82,2.82,0,0,1,1.2-.27,2.92,2.92,0,0,1,1.15.24A42.27,42.27,0,0,0,290.19,73Z" transform="translate(-6.53 -2.88)"/><path class="cls-16" d="M274.15,100.5a47.39,47.39,0,0,1,13.23-9,2.81,2.81,0,0,0,1.08,2.06A42.06,42.06,0,0,1,274.15,100.5Z" transform="translate(-6.53 -2.88)"/><path class="cls-16" d="M306.29,100.5A47.38,47.38,0,0,1,292,93.59a2.87,2.87,0,0,0,1.07-2.07A42.38,42.38,0,0,1,306.29,100.5Z" transform="translate(-6.53 -2.88)"/><path class="cls-16" d="M290.22,93.34a2,2,0,1,0-2-2A2,2,0,0,0,290.22,93.34Z" transform="translate(-6.53 -2.88)"/><polygon class="cls-16" points="283.18 91.92 284.2 91.92 285.66 123.47 281.22 123.47 283.18 91.92"/><polygon class="cls-16" points="242.36 168.45 239.76 166.17 239.06 179.62 242.88 179.62 242.36 168.45"/><path class="cls-16" d="M264.59,156.81l-3.27-1.28-2.86-1.12L256.28,158l-2.16,3.56,2.54,1.59,2.91,1.81,2.5-4.06,2.52-4.09Zm-17.12,2-1.58-1.05-1.43-1-1.61,2.71-1.59,2.69,1.26,1.22,1.39,1.34,1.77-3,1.79-3Zm11.25,7.51c-.82,1.34-1.65,2.67-2.46,4l-2.45,4-2.49-2.4-2.2-2.12,2.12-3.49,2.14-3.53,2.5,1.67,2.84,1.9ZM252.25,162q-1,1.71-2.07,3.42l-2.06,3.39-1.82-1.76-1.64-1.57c.61-1,1.22-2,1.82-3l1.84-3.06,1.85,1.23,2.08,1.39Zm-.55-10.26-1.82,3c-.6,1-1.2,2-1.8,3l-1.61-1-1.46-.91,1.62-2.73,1.63-2.75,1.63.64,1.81.71Zm5.46,2.14c-.7,1.17-1.41,2.33-2.11,3.49L253,160.84c-.74-.45-1.44-.89-2.12-1.32L249,158.35l1.85-3.09,1.87-3.12,2.12.83Z" transform="translate(-6.53 -2.88)"/><path class="cls-16" d="M316.63,278.56h40V226l-20.41-14.13-19.63,13.35v53.33ZM342.89,230h2.32v2.92h-2.32V230Zm3.34,3.92h2.32v2.92h-2.32v-2.92Zm-3.34,0h2.32v2.92h-2.32v-2.92Zm3.34-3.92h2.32v2.92h-2.32V230Zm-12.41,0h2.32v2.92h-2.32V230Zm3.34,3.92h2.32v2.92h-2.32v-2.92Zm-3.34,0h2.32v2.92h-2.32v-2.92Zm3.34-3.92h2.32v2.92h-2.32V230Zm-12.41,0h2.32v2.92h-2.32V230Zm3.34,3.92h2.32v2.92h-2.32v-2.92Zm-3.34,0h2.32v2.92h-2.32v-2.92Zm3.34-3.92h2.32v2.92h-2.32V230Zm8.56-12.77a3.31,3.31,0,1,1-3.31,3.31A3.31,3.31,0,0,1,336.65,217.22Z" transform="translate(-6.53 -2.88)"/><path class="cls-16" d="M342.93,278.56h31.8V246.43h-31.8v32.13Zm22.17-16.45h2.32V265H365.1v-2.92Zm0-10.32h2.32v2.92H365.1v-2.92Zm3.34,3.92h2.33v2.92h-2.33v-2.92Zm-3.34,0h2.32v2.92H365.1v-2.92Zm3.34-3.92h2.33v2.92h-2.33v-2.92Zm-12.41,0h2.32v2.92H356v-2.92Zm3.34,3.92h2.32v2.92h-2.32v-2.92Zm-3.34,0h2.32v2.92H356v-2.92Zm3.34-3.92h2.32v2.92h-2.32v-2.92ZM368.44,266h2.33V269h-2.33V266Zm-3.34,0h2.32V269H365.1V266Zm3.34-3.92h2.33V265h-2.33Z" transform="translate(-6.53 -2.88)"/><polygon class="cls-16" points="318.24 216.82 318.24 275.68 310.1 275.68 310.1 222.35 318.24 216.82"/><polygon class="cls-16" points="336.4 275.68 350.14 275.68 350.14 255.75 349.5 255.75 349.5 252.84 350.14 252.84 350.14 251.83 349.5 251.83 349.5 248.91 350.14 248.91 350.14 243.55 336.4 243.55 336.4 275.68"/><path class="cls-16" d="M207.28,141.7a36.79,36.79,0,0,0,10.65,5.22,13.95,13.95,0,0,1-24.18,0,32.67,32.67,0,0,0,10.65-5.23,2.21,2.21,0,0,0,1.44.52A2.26,2.26,0,0,0,207.28,141.7Z" transform="translate(-6.53 -2.88)"/><path class="cls-16" d="M205,137.89a2.26,2.26,0,0,0-1.39,2.08v.08a36.68,36.68,0,0,0-10,6.67A14,14,0,0,1,205.7,126a36.54,36.54,0,0,0-.81,11.86l.08,0Z" transform="translate(-6.53 -2.88)"/><path class="cls-16" d="M205.94,126a14,14,0,0,1,13.85,14,13.78,13.78,0,0,1-1.74,6.73,32.68,32.68,0,0,0-10-6.65V140a2.24,2.24,0,0,0-1.41-2.09v0l.06,0A32.7,32.7,0,0,0,205.94,126Z" transform="translate(-6.53 -2.88)"/><path class="cls-16" d="M205.81,125.49a37.38,37.38,0,0,0-.92,12.39,2.32,2.32,0,0,1,1-.21,2.27,2.27,0,0,1,.9.19A33.07,33.07,0,0,0,205.81,125.49Z" transform="translate(-6.53 -2.88)"/><path class="cls-16" d="M193.22,147.08a37.18,37.18,0,0,1,10.39-7,2.23,2.23,0,0,0,.84,1.62A33.07,33.07,0,0,1,193.22,147.08Z" transform="translate(-6.53 -2.88)"/><path class="cls-16" d="M218.45,147.08a37,37,0,0,1-11.23-5.43,2.16,2.16,0,0,0,.84-1.61A33,33,0,0,1,218.45,147.08Z" transform="translate(-6.53 -2.88)"/><path class="cls-16" d="M205.84,141.46a1.56,1.56,0,1,0-1.56-1.56A1.57,1.57,0,0,0,205.84,141.46Z" transform="translate(-6.53 -2.88)"/><polygon class="cls-16" points="198.91 139.73 199.71 139.73 200.85 164.49 197.37 164.49 198.91 139.73"/><polygon class="cls-16" points="358.49 234.63 356.41 232.81 355.85 243.55 358.91 243.55 358.49 234.63"/><path class="cls-16" d="M377.55,225.91l-2.6-1-2.29-.9-1.74,2.87-1.73,2.85,2,1.26,2.32,1.45,2-3.24,2-3.27Zm-13.67,1.61-1.26-.84-1.14-.76-1.29,2.16-1.27,2.15,1,1,1.11,1.07,1.42-2.36,1.42-2.39Zm9,6-2,3.2L369,239.89,367,238l-1.76-1.69,1.69-2.79,1.71-2.82,2,1.33,2.27,1.52Zm-5.17-3.45L366,232.8c-.54.91-1.09,1.81-1.63,2.71l-1.47-1.41-1.3-1.25c.48-.81,1-1.62,1.46-2.43l1.46-2.44,1.48,1,1.66,1.11Zm-.44-8.2-1.45,2.43-1.44,2.4-1.28-.8-1.17-.73,1.29-2.18,1.3-2.19,1.31.51,1.44.56Zm4.36,1.72-1.68,2.78c-.56.92-1.12,1.84-1.67,2.76l-1.7-1-1.5-.94c.49-.82,1-1.65,1.48-2.47s1-1.66,1.49-2.49l1.69.66Z" transform="translate(-6.53 -2.88)"/><polygon class="cls-16" points="309.04 160.6 306.96 158.78 306.41 169.53 309.46 169.53 309.04 160.6"/><path class="cls-16" d="M328.11,151.88l-2.61-1-2.28-.89-1.75,2.87-1.72,2.84,2,1.27,2.32,1.44,2-3.24,2-3.27Zm-13.67,1.62c-.44-.29-.86-.57-1.26-.85l-1.15-.76-1.28,2.17-1.28,2.14c.33.32.67.64,1,1l1.12,1.07,1.41-2.37,1.43-2.38Zm9,6-2,3.2-1.95,3.17-2-1.92-1.75-1.69,1.69-2.79,1.71-2.81,2,1.33,2.28,1.51ZM318.25,156l-1.65,2.74L315,161.49l-1.46-1.41-1.3-1.26,1.45-2.42,1.47-2.45,1.48,1,1.65,1.1Zm-.44-8.19-1.45,2.42-1.44,2.41-1.28-.8-1.17-.73,1.3-2.18,1.3-2.2,1.3.52,1.44.56Zm4.37,1.71-1.69,2.78-1.67,2.77-1.69-1.06-1.51-.94c.49-.82,1-1.64,1.48-2.47l1.49-2.49,1.69.67Z" transform="translate(-6.53 -2.88)"/><path class="cls-16" d="M130.53,251.69a7.83,7.83,0,0,1,1.64,15.48v10.76h-3.28V274l-2.31-1.68a3,3,0,1,1,1.11-2.32,2.82,2.82,0,0,1-.12.83l1.32,1v-4.66a7.83,7.83,0,0,1,1.64-15.48Z" transform="translate(-6.53 -2.88)"/><path class="cls-16" d="M138.91,278.17h3.24V264.59a9.1,9.1,0,1,0-3.24,0Z" transform="translate(-6.53 -2.88)"/><path class="cls-16" d="M132.23,251.88A9.13,9.13,0,0,0,136.94,264a7.83,7.83,0,0,0-4.71-12.12Z" transform="translate(-6.53 -2.88)"/><path class="cls-16" d="M388.7,278.17h3.24V264.59a9.1,9.1,0,1,0-3.24,0Z" transform="translate(-6.53 -2.88)"/><path class="cls-16" d="M400.46,278.17h2.36v-9.89a6.64,6.64,0,1,0-2.36,0Z" transform="translate(-6.53 -2.88)"/><path class="cls-16" d="M395.19,263.32a9.08,9.08,0,0,0,4.24-7.69v-.13a6.63,6.63,0,0,0-4.43,6.25A6.75,6.75,0,0,0,395.19,263.32Z" transform="translate(-6.53 -2.88)"/><path class="cls-18" d="M144,316.2c-.8-.58-1.57-1.19-2.32-1.82" transform="translate(-6.53 -2.88)"/><path class="cls-18" d="M148,317a79.48,79.48,0,0,1-35.75-39.08H414.19C394,310.1,367,354.51,320,354c-32.05,23.33-86.67,32.71-129,3a87.7,87.7,0,0,1-40.06-36.65Z" transform="translate(-6.53 -2.88)"/></g><path class="cls-19" d="M263.35,11c-104.4,0-189,87-189,194.21s84.63,194.21,189,194.21,189-86.95,189-194.21S367.74,11,263.35,11Zm0,358.83c-88.49,0-160.22-73.7-160.22-164.62S174.86,40.59,263.35,40.59,423.57,114.3,423.57,205.21,351.84,369.83,263.35,369.83Z" transform="translate(-6.53 -2.88)"/><path class="cls-20" d="M263.35,40.59c-88.49,0-160.22,73.71-160.22,164.62s71.73,164.62,160.22,164.62,160.22-73.7,160.22-164.62S351.84,40.59,263.35,40.59Zm0,320.61c-83.85,0-151.82-69.84-151.82-156s68-156,151.82-156,151.82,69.83,151.82,156S347.2,361.2,263.35,361.2Z" transform="translate(-6.53 -2.88)"/><ellipse class="cls-21" cx="256.82" cy="202.34" rx="151.82" ry="155.99"/><rect class="cls-22" x="87.84" y="343.11" width="328" height="27.13"/><rect class="cls-20" x="69.96" y="370.24" width="363.76" height="27.13"/><rect class="cls-23" x="52.7" y="397.37" width="398.29" height="27.13"/><rect class="cls-19" x="32.74" y="424.5" width="437.73" height="27.13"/><g class="cls-24"><path class="cls-25" d="M394.52,261.2a74.93,74.93,0,0,1-2.69,18.21,149.73,149.73,0,0,1-47.22,53.47c-10.26,4.25-22.62,7.29-37.54,8.45h-.9c-23.94,0-49.09-5.6-70.18-16.92-32.51-17.45-55.7-57.79-51.87-95.28,2.91-28.41,16.52-59.7,40.24-75.76,24.06-16.3,70.38-11.09,76.62,24.25,2.44,13.84-7.25,28.07-19.27,33.86,14.27-8,13.68-33.88,1.7-43.87s-31.12-7.5-43.61-.19c-30.12,17.64-38.44,60.09-27.48,92.1,3.71,10.8,10.17,19.51,17.61,27.74,16.14,17.83,36.57,24.35,59.86,25.53,8.7.43,19,1.22,27.62,0,16.28-2.36,32.82-11.12,47-19.39C372.91,288.49,394.47,273.22,394.52,261.2Z" transform="translate(-6.53 -2.88)"/></g><g class="cls-26"><path class="cls-27" d="M310.47,139.23c-.65-.87-1.34-1.72-2.05-2.56-14.15-16.7-32.77-22.31-53.51-24.56-39.61-4.3-88.22,21.63-105.24,60-8.89,20-15.79,42.08-15.79,64.47,0,39.34,21.63,85.58,58.1,100.1l1.18.46L257,346.18s-115.27-30.83-91-142.22c8-36.68,38.1-69.12,74.38-73.88,32.71-4.3,71.72,13.92,69.72,53.78-.7,14.2-10.19,30.19-24.1,33.1,15.82-2.8,26.87-10.74,32.44-26.81A55,55,0,0,0,310.47,139.23Z" transform="translate(-6.53 -2.88)"/></g><g class="cls-28"><path class="cls-29" d="M370.21,265.75c-13.73,12.06-28.39,21.91-46.66,25.49-21.35,4.18-40.59,6.37-61-3.81-22.78-11.39-32.62-29-35.52-54-2.45-20.89,9.09-50.7,32.82-48,14.27,1.62,23.7,13.91,11.6,26.94,6.73-13.53-7.56-23.94-19.87-18.89-23.27,9.56-13.05,48.91-.18,62.64,17.65,18.83,41,19.57,64,12.71,14.78-4.44,35.48-17.8,41.82-33.31,7.27-17.92,13-43.05,12.15-62.54-.65-15.06-4.79-30.53-10.42-44.29-15-36.87-46.18-57.76-81.68-70.3-3.43-1.22-7-2.31-10.38-3.62a12.58,12.58,0,0,1-1.44-.74c53.46.23,100.09,30.78,125.06,76.11,1.34,3.33,2.58,6.79,3.65,10.45C405.92,180.36,402.45,237.39,370.21,265.75Z" transform="translate(-6.53 -2.88)"/></g><g class="cls-30"><path class="cls-31" d="M264.78,245.11c9.39,3.91,19.58,3.6,29.23,1.49,30-6.6,43.95-41.95,43.57-71.58-.86-69.12-91.29-93.88-141.89-68.6-20.27,10.14-43,24.39-57.37,42.93-6.38,8.25-14.15,20-16.34,31.15,6.47-40.21,28-75.07,58.36-97.95,3.54-1.76,7.16-3.33,10.77-4.74C212,69.64,234,66.16,256.23,68.69,292.9,72.85,329,95.79,347,130.32c15.74,30.12,13.9,72.81-7,99.6-9.18,11.75-21.71,22-35.41,27.35l-.68.25c-13.42,4.67-28.51,4.78-41.06-2.74-13.79-8.26-24.51-28.73-20.44-45.39,2.27-9.3,13.49-19.24,23-15.36,4.93,2,12.09,13.32,7.31,18.36-.36-6.59-1.08-10.82-6.26-15.17-4.92-4.14-10.19-1.79-14,2.79s-5.85,8.87-6.12,14.81C245.75,227.58,253.85,240.54,264.78,245.11Z" transform="translate(-6.53 -2.88)"/></g><path class="cls-9" d="M87.18,264.93S80,279.18,78,287.33c-3,12-.4,22-.4,24.8S62,366.92,61.18,370.52s-7.3,12.89-10.5,23.29S35.39,444.9,39,445.7s10.39-.6,12-1.8,33.8-51,36.6-56.59,23.59-47.59,23.59-47.59,16-52,17.2-60.79S87.18,264.93,87.18,264.93Z" transform="translate(-6.53 -2.88)"/><g class="cls-32"><path class="cls-33" d="M73.78,311s10.8,4.49,11.4,13.79-9,43.2-11.4,50.1.9,11.39-3,19.19,5.4,15.3,5.4,15.3,6.3,1.5,7.2-.3,35.09-69.59,35.09-69.59L107.67,302l-16.89-12.3a29.14,29.14,0,0,1-10.7,9C73.18,302,73.78,311,73.78,311Z" transform="translate(-6.53 -2.88)"/></g><path class="cls-10" d="M52.78,386.61s9.3-.3,15.9,2.7S79.18,401,79.18,401s-25.8,41.69-26.7,49.49.3,10.8,4.8,15.6,3.3,5.4,7.8,5.4,4.8,5.4,3.9,6.6-14.2.8-17.8.8-9.69.3-14.19-3-13.3-9.8-11.8-12.8,6.6-10.8,8.4-17.1,6.9-31.19,9.59-37.79S52.78,386.61,52.78,386.61Z" transform="translate(-6.53 -2.88)"/><g class="cls-34"><path class="cls-35" d="M19.59,465.9s4.4-3.8,8.4-3a32.24,32.24,0,0,1,14,7.6c3.6,3.6,3.4,5.4,8.8,6.2s22,2.2,22,2.2l-1.8,3-29.79-.2Z" transform="translate(-6.53 -2.88)"/><path class="cls-36" d="M72.58,389.61s-9.3,19.8-13.8,27-14.4,18.3-15.3,25.49.3,8.4.3,12-4.19,3.3-4.49,6.6,4.27,7.16,7.29,9.2c7.91,5.32,10.87,3,5.6-3.5-4.83-5.93-1.2-18.3,5.7-26.09s25.2-39,25.2-39Z" transform="translate(-6.53 -2.88)"/></g><path class="cls-35" d="M73.48,394.41c-9.11,16.72-20.09,43.13-28.3,65.09l1.4,2c9.71-24.24,19.3-45.29,29.9-63.19Z" transform="translate(-6.53 -2.88)"/><path class="cls-9" d="M140,278.13s12,65.59,12.4,72-.8,20-.8,22.4,6.8,75.58,6.8,75.58-2.4,8.8-9.6,10.4-5.2-3.6-5.2-3.6-17.2-51.59-18-60.39-1.6-14.8-3.6-20.79-22.39-60.4-23.59-62-7.33-14-7.6-22c-.4-11.6,4.4-23.6,4.4-23.6l45.19,2Z" transform="translate(-6.53 -2.88)"/><g class="cls-37"><path class="cls-33" d="M88,283.73s6.9,17.9,17.3,24.3,19.59,7.59,26.39,18,3.9,40.9,7.1,46.1,4,9.59,4,18-8,52.39-8,52.39l-22.4-77.18Z" transform="translate(-6.53 -2.88)"/><polygon class="cls-10" points="123.04 287.65 134.24 341.64 142.64 341.25 132.64 287.65 123.04 287.65"/><path class="cls-38" d="M137.57,279.93s9.8,61.59,10.2,63.19a115.93,115.93,0,0,1,1.3,22.2c-.3,11.4-3.9,45,8.7,42,2.4-.57-3.4-53.19-3.4-69s-8.4-54.59-9.2-55.39S137.57,279.93,137.57,279.93Z" transform="translate(-6.53 -2.88)"/></g><path class="cls-10" d="M126.27,402.81s5.7-3.3,16.5-3.9c5.94-.33,12.3-.3,12.3-.3s2.1,46,4.5,50.39,12.79,4.7,16.39,5.1,12.4-1.2,15.2,1.2,4.7,6.6-.1,9.9a68.38,68.38,0,0,1-21.5,9.7c-7.59,2-18.79,3.6-22.39,2.8s-2.6-13.6-5-20-9.8-24.79-12.6-35.19A107.09,107.09,0,0,1,126.27,402.81Z" transform="translate(-6.53 -2.88)"/><g class="cls-39"><path class="cls-36" d="M140.37,397.71s-1.83,16.44,2.2,23.2c9.3,15.6,6,33.29,8.4,36.59s8,3.5,6.8,7.4.9,6.3,5.1,6c22.49-1.6,29.49-11.2,29.49-11.2l1,7.4s4,13.1,2.8,13.4-42,12.9-47.09,9.3-35.4-86.39-35.4-86.39Z" transform="translate(-6.53 -2.88)"/></g><path class="cls-10" d="M149,122.15c4.45,13.1-.2,27.4-4.8,36.2-.42.79-9.2-19.6-8.4-21S149,122.15,149,122.15Z" transform="translate(-6.53 -2.88)"/><g class="cls-40"><path class="cls-38" d="M147.42,122.8c2.7,13.5-1,24.75-4.5,35.4l5.45,1.15,4-33.8Z" transform="translate(-6.53 -2.88)"/></g><path class="cls-11" d="M106.77,152.5c-5.09-2.4-5.46-7.37-5.84-9.75-7.5-46.94,39.74-43.49,49.34-20.7,1.21,2.89.6,4.2.6,4.2-1.15,2-5.47,5.74-12,10.57a1.68,1.68,0,0,0-.39,2,85.5,85.5,0,0,1,6.65,17.46,8.84,8.84,0,0,1-2.6,7.5c-2.29,2.1-9.15,1.65-12.6,1C121.47,163.15,106.77,152.5,106.77,152.5Z" transform="translate(-6.53 -2.88)"/><g class="cls-41"><path class="cls-9" d="M111.87,102.86s-16.49,22.49,14.5,33.89c13.36,4.91,16.92,18.9,17.6,21.9s-2.78,11.1-5.18,10.2-45.21-16.8-45.51-17.7-5.1-32.39-5.1-32.39Z" transform="translate(-6.53 -2.88)"/><path class="cls-10" d="M139.57,163.35c.75-1.5.18-3-5.2-8-6-5.6-16.2-11.6-23.4-11.8-6.67-.18-9.89,2.6-7.49,5.8s7.29,6.67,12.29,9.07,7.38,5.73,12.15,6.15S138.82,164.85,139.57,163.35Z" transform="translate(-6.53 -2.88)"/><path class="cls-38" d="M106.17,104.06s19.65,1,30,7.8c13,8.5,12.4,18.09,12.4,18.09l10.4-3.7s2.4-9.89-12-17.69S106.17,104.06,106.17,104.06Z" transform="translate(-6.53 -2.88)"/></g><path class="cls-35" d="M135.27,173.65c-3-6.3-6-13.14-6.5-16.3-1.25-7.92-21.61-8.21-21.4-7.4l-8.59,18.6Z" transform="translate(-6.53 -2.88)"/><path class="cls-11" d="M91.58,168.55c-8,5.6-11.6,13.6-11.2,24.39s0,60.79.4,66.39-.4,16.4-.4,16.4,22.4-5.2,43.59,0c6.79,1.66,18.4,8.8,18.4,8.8s3.7-42.79,6.1-63.19c1.92-16.31,3.7-35.49-2.1-43.39-4.4-6-11-10.8-16.6-11.6s-29-3-29-3Z" transform="translate(-6.53 -2.88)"/><g class="cls-42"><path class="cls-43" d="M135.17,285.33s2.8-42,5.2-52,.8-11.2,4.4-20.4-1.6-34.79-13.2-39-28-7-35.19,3-10,69.59-9.6,80.78l.8,22.4Z" transform="translate(-6.53 -2.88)"/><path class="cls-38" d="M151.17,214.14s-2.1,6-5.7,19.8-8.3,40.09-7.9,46,7.3,10.4,7.3,10.4,6.6,0,6.6-5.1S151.17,214.14,151.17,214.14Z" transform="translate(-6.53 -2.88)"/></g><path class="cls-10" d="M67.78,169.15c-6.4,23.19,0,69.29,2.4,76.19,2.2,6.33,5.6,6,13.4,6h32.79s.4-56.59,1.6-64.39,0-22.39,0-22.39-7.6-7.4-21.39-7.4S69.65,162.38,67.78,169.15Z" transform="translate(-6.53 -2.88)"/><g class="cls-44"><path class="cls-36" d="M103.48,248.94,93.06,206.18a6.05,6.05,0,0,0-5.28-4.58,62.18,62.18,0,0,0-16,.2,6,6,0,0,0-5,6.5c1.07,11.62,3.62,38.56,4.32,39.74C72,249.53,103.48,248.94,103.48,248.94Z" transform="translate(-6.53 -2.88)"/><path class="cls-38" d="M71.38,177c2.7.2,7.09.28,16.8-.8,4.42-.5,9.29-14,14.2-13.8,6.18.2,12.06,2.37,19.19,3.2l-10-8.4-18-4.2-16.4,3.6C69.58,165.34,68.68,176.75,71.38,177Z" transform="translate(-6.53 -2.88)"/><path class="cls-35" d="M69.18,245.74c4.8-.4,28-.4,34,.4.91.12,0-54.4,2.79-62.39,1.72-4.91,11.41-13,12-12.8,4.56,1.57-1.6,80.38-1.6,80.38s-2.4,3.6-16.39,2.8-26.4-2-27.6-2.4S69.18,245.74,69.18,245.74Z" transform="translate(-6.53 -2.88)"/></g><path class="cls-12" d="M147.57,177.35c-3.6-3.8-5.11-5.77-16-3.4-9.2,2-10.68,13.61-12.4,20.19-2.4,9.2-8.2,46.4-8.2,46.4l1.8,52.59s11.4-4.8,14.6.4c0,0,4.6-43,6.2-48.59s8-25.6,11.2-32S156.11,186.37,147.57,177.35Z" transform="translate(-6.53 -2.88)"/><g class="cls-45"><path class="cls-12" d="M118.37,266.13s0-12.22-1.7-21.39c-2.4-12.6-9.6-3-9.6-3l1.7,25.59Z" transform="translate(-6.53 -2.88)"/><path class="cls-10" d="M126.42,181.9s2.25-6.45,11.25-6.45,12.3,5.7,11.7,12-3.83,16.43-3.83,16.43c-1.8-4.58-16.62-10-23.17-9.13Z" transform="translate(-6.53 -2.88)"/><path class="cls-38" d="M142.37,172c9.4,12.8,3.4,26-3.2,44.79-2.41,6.87-9.2,27-9.2,27l.4,26.79,12-31.19,15.6-58Z" transform="translate(-6.53 -2.88)"/></g><path class="cls-10" d="M114.12,292.88l-.9,5.1,2.35,10.95a84.42,84.42,0,0,1-1.7,8.59c-.6,1.5,1.9,4.6,6.4,3.1s6.3-4.3,6.9-6.7,3.2-9.79,3.2-9.79l-2.8-11,2.8-28c-2.92-3.8-12.2-5.2-19-3.4Z" transform="translate(-6.53 -2.88)"/><g class="cls-46"><path class="cls-36" d="M118.47,259.88c-.9,15.25,3.9,28.85,7.7,33.85,0,0-8.9,9.5-8.75,11s1.35,3.6,1.2,4.95-.9,3-1.2,4.49-4.8,4.95-4.8,4.95-2.4-21.44-2.4-21.89-.9-36-.9-36Z" transform="translate(-6.53 -2.88)"/><path class="cls-38" d="M127.07,294.53l2.5,9.8c-2.85,1.8-6.61,1.45-11.6-.6l.1-9.8Z" transform="translate(-6.53 -2.88)"/></g><polygon class="cls-35" points="110.14 285.95 110.14 241.96 106.54 242.36 107.34 287.15 110.14 285.95"/><text class="cls-47" transform="translate(129.82 92.37) rotate(-46.39) scale(0.98 1)">T</text><text class="cls-47" transform="translate(140.44 81.19) rotate(-41.45) scale(0.98 1)">a</text><text class="cls-47" transform="matrix(0.79, -0.58, 0.59, 0.8, 152, 70.96)">k</text><text class="cls-47" transform="matrix(0.83, -0.51, 0.52, 0.85, 164.37, 61.81)">e</text><text class="cls-47" transform="matrix(0.88, -0.43, 0.44, 0.9, 177.51, 53.78)"> </text><text class="cls-47" transform="translate(191.33 46.96) rotate(-20.95) scale(0.98 1)">m</text><text class="cls-47" transform="translate(205.71 41.43) rotate(-15.67) scale(0.98 1)">e</text><text class="cls-47" transform="translate(220.51 37.26) rotate(-10.36) scale(0.98 1)"> </text><text class="cls-47" transform="matrix(0.97, -0.09, 0.09, 1, 235.65, 34.47)">t</text><text class="cls-47" transform="translate(250.96 32.99) rotate(0.98) scale(0.98 1)">o</text><text class="cls-47" transform="translate(266.38 33.13) rotate(5.44) scale(0.98 1)"> </text><text class="cls-47" transform="matrix(0.96, 0.18, -0.19, 0.98, 281.7, 34.57)">S</text><text class="cls-47" transform="translate(296.83 37.42) rotate(16.05) scale(0.98 1)">o</text><text class="cls-47" transform="translate(311.63 41.66) rotate(21.33) scale(0.98 1)">l</text><text class="cls-47" transform="matrix(0.87, 0.44, -0.45, 0.89, 325.99, 47.25)">a</text><text class="cls-47" transform="translate(339.77 54.12) rotate(31.72) scale(0.98 1)">r</text><text class="cls-47" transform="matrix(0.78, 0.59, -0.6, 0.8, 352.9, 62.22)">P</text><text class="cls-47" transform="matrix(0.73, 0.65, -0.67, 0.75, 365.24, 71.44)">u</text><text class="cls-47" transform="translate(376.75 81.71) rotate(46.74) scale(0.98 1)">n</text><text class="cls-47" transform="translate(387.32 92.92) rotate(51.61) scale(0.98 1)">k</text><path class="cls-48" d="M152.5,498.44a13.81,13.81,0,0,1-8.05-2.11c-2.31-1.63-4.51-3.19-16.79-33.83H64.79c.32.37.6.71.85,1A11.89,11.89,0,0,1,76,470.16c.17.34.32.67.46,1l9.84.83L75.49,489.93l-36.94-.25L6.73,466.41l7.64-6.57a23.89,23.89,0,0,1,5.35-3.38c.09-.17.19-.34.29-.51,1.92-3.35,4.82-8.4,5.88-12.14.58-2,1.65-6.66,2.78-11.56,2.9-12.58,5.26-22.55,7.11-27.07,2.73-6.68,9.45-21.29,9.74-21.91l2.08-4.53h.71c.9-1.82,1.79-3.5,2.57-5,1-1.9,2.24-4.25,2.52-5.09.35-1.53,1.74-6.33,5.21-18.22,3-10.39,7.22-24.78,9.49-33.13l-2-.85-.25-4.94a23.79,23.79,0,0,1,2.74-12.29,57.61,57.61,0,0,1,1.68-13.85,59.32,59.32,0,0,1,1.87-5.93l.31-4.32a144.38,144.38,0,0,0,.4-15.22,13.82,13.82,0,0,1-3-.6c-3.51-1.17-5.81-4.22-8.19-10.89l-3.51-9.82,2.4-.19c-2.89-17.29-6-51.46-.47-71.4a17.82,17.82,0,0,1,6.54-9.23,38.62,38.62,0,0,1,4.52-6.47l1.74-2,1.17-.26a204.56,204.56,0,0,1,7.38-21.57c-.67-4.35-1.92-12.54-1.92-12.54l11.44-7.67C125.72,42.9,191.59,3,263.35,3c108.64,0,197,90.71,197,202.21a205.39,205.39,0,0,1-16.46,81A202.23,202.23,0,0,1,412,338h18.42v27.13h17.87v27.12h17.27v27.13H485V462.5H201.85a11.89,11.89,0,0,1-.7,2.53l0,.36c4.23,14,3.53,16.32,2.05,18.94a8.26,8.26,0,0,1-5,3.9l-1.11.33C174.93,495.12,159.92,498.44,152.5,498.44Z" transform="translate(-6.53 -2.88)"/></svg>